<?xml version="1.0" encoding="UTF-8" standalone="no"?>
<!-- Created with Inkscape (http://www.inkscape.org/) -->

<svg
   xmlns:dc="http://purl.org/dc/elements/1.1/"
   xmlns:cc="http://creativecommons.org/ns#"
   xmlns:rdf="http://www.w3.org/1999/02/22-rdf-syntax-ns#"
   xmlns:svg="http://www.w3.org/2000/svg"
   xmlns="http://www.w3.org/2000/svg"
   xmlns:sodipodi="http://sodipodi.sourceforge.net/DTD/sodipodi-0.dtd"
   xmlns:inkscape="http://www.inkscape.org/namespaces/inkscape"
   width="8.5609999mm"
   height="9.3940001mm"
   viewBox="0 0 8.5609996 9.394"
   version="1.1"
   id="svg9712"
   inkscape:version="0.92.2 (5c3e80d, 2017-08-06)"
   sodipodi:docname="androidIconWhite.svg">
  <defs
     id="defs9706" />
  <sodipodi:namedview
     id="base"
     pagecolor="#ffffff"
     bordercolor="#666666"
     borderopacity="1.0"
     inkscape:pageopacity="0.0"
     inkscape:pageshadow="2"
     inkscape:zoom="1.979899"
     inkscape:cx="56.603397"
     inkscape:cy="57.670198"
     inkscape:document-units="mm"
     inkscape:current-layer="layer1"
     showgrid="false"
     inkscape:window-width="1366"
     inkscape:window-height="704"
     inkscape:window-x="0"
     inkscape:window-y="27"
     inkscape:window-maximized="1" />
  <metadata
     id="metadata9709">
    <rdf:RDF>
      <cc:Work
         rdf:about="">
        <dc:format>image/svg+xml</dc:format>
        <dc:type
           rdf:resource="http://purl.org/dc/dcmitype/StillImage" />
        <dc:title></dc:title>
      </cc:Work>
    </rdf:RDF>
  </metadata>
  <g
     inkscape:label="Layer 1"
     inkscape:groupmode="layer"
     id="layer1"
     transform="translate(0,-287.606)">
    <g
       id="g5269-2-0"
       transform="matrix(0.01754745,0,0,0.01754745,0.01119442,288.00236)"
       style="fill:#ffffff;fill-opacity:1">
      <g
         id="g5193-3-8"
         style="fill:#ffffff;fill-opacity:1">
        <g
           id="g5161-9-7"
           style="fill:#ffffff;fill-opacity:1">
          <g
             id="g5159-8-5"
             style="fill:#ffffff;fill-opacity:1">
            <path
               id="path5151-0-1"
               d="m 68.541,164.715 h -1.294 c -16.588,0 -30.113,13.568 -30.113,30.113 v 131.107 c 0,16.61 13.525,30.134 30.113,30.134 h 1.316 c 16.588,0 30.113,-13.568 30.113,-30.134 V 194.827 C 98.654,178.283 85.108,164.715 68.541,164.715 Z"
               style="fill:#ffffff;fill-opacity:1"
               inkscape:connector-curvature="0" />
            <path
               id="path5153-3-4"
               d="m 113.085,376.54 c 0,15.229 12.446,27.632 27.675,27.632 h 29.574 v 70.817 c 0,16.631 13.568,30.156 30.113,30.156 h 1.294 c 16.61,0 30.156,-13.546 30.156,-30.156 v -70.817 h 41.33 v 70.817 c 0,16.631 13.611,30.156 30.156,30.156 h 1.273 c 16.609,0 30.134,-13.546 30.134,-30.156 v -70.817 h 29.595 c 15.207,0 27.654,-12.403 27.654,-27.632 V 169.525 H 113.085 Z"
               style="fill:#ffffff;fill-opacity:1"
               inkscape:connector-curvature="0" />
            <path
               id="path5155-1-5"
               d="m 322.041,43.983 23.491,-36.26 c 1.51,-2.287 0.841,-5.414 -1.467,-6.903 -2.286,-1.51 -5.414,-0.884 -6.903,1.467 l -24.353,37.512 c -18.27,-7.485 -38.676,-11.691 -60.226,-11.691 -21.571,0 -41.934,4.206 -60.247,11.691 L 168.026,2.287 c -1.488,-2.351 -4.638,-2.977 -6.946,-1.467 -2.308,1.488 -2.977,4.616 -1.467,6.903 l 23.512,36.26 c -42.387,20.773 -70.968,59.924 -70.968,104.834 0,2.761 0.173,5.479 0.41,8.175 H 392.62 c 0.237,-2.696 0.388,-5.414 0.388,-8.175 0.001,-44.91 -28.602,-84.061 -70.967,-104.834 z m -134.386,64.928 c -7.442,0 -13.482,-5.997 -13.482,-13.46 0,-7.463 6.04,-13.439 13.482,-13.439 7.485,0 13.482,5.975 13.482,13.439 0,7.464 -6.04,13.46 -13.482,13.46 z m 129.835,0 c -7.442,0 -13.482,-5.997 -13.482,-13.46 0,-7.463 6.04,-13.439 13.482,-13.439 7.463,0 13.46,5.975 13.46,13.439 0,7.463 -5.997,13.46 -13.46,13.46 z"
               style="fill:#ffffff;fill-opacity:1"
               inkscape:connector-curvature="0" />
            <path
               id="path5157-5-0"
               d="m 437.876,164.715 h -1.251 c -16.588,0 -30.156,13.568 -30.156,30.113 v 131.107 c 0,16.61 13.59,30.134 30.156,30.134 h 1.273 c 16.609,0 30.113,-13.568 30.113,-30.134 V 194.827 c 0,-16.544 -13.547,-30.112 -30.135,-30.112 z"
               style="fill:#ffffff;fill-opacity:1"
               inkscape:connector-curvature="0" />
          </g>
        </g>
        <g
           id="g5163-7-4"
           style="fill:#ffffff;fill-opacity:1" />
        <g
           id="g5165-77-0"
           style="fill:#ffffff;fill-opacity:1" />
        <g
           id="g5167-0-3"
           style="fill:#ffffff;fill-opacity:1" />
        <g
           id="g5169-9-7"
           style="fill:#ffffff;fill-opacity:1" />
        <g
           id="g5171-8-7"
           style="fill:#ffffff;fill-opacity:1" />
        <g
           id="g5173-0-8"
           style="fill:#ffffff;fill-opacity:1" />
        <g
           id="g5175-3-7"
           style="fill:#ffffff;fill-opacity:1" />
        <g
           id="g5177-1-7"
           style="fill:#ffffff;fill-opacity:1" />
        <g
           id="g5179-4-4"
           style="fill:#ffffff;fill-opacity:1" />
        <g
           id="g5181-8-3"
           style="fill:#ffffff;fill-opacity:1" />
        <g
           id="g5183-90-1"
           style="fill:#ffffff;fill-opacity:1" />
        <g
           id="g5185-5-3"
           style="fill:#ffffff;fill-opacity:1" />
        <g
           id="g5187-1-0"
           style="fill:#ffffff;fill-opacity:1" />
        <g
           id="g5189-30-7"
           style="fill:#ffffff;fill-opacity:1" />
        <g
           id="g5191-1-1"
           style="fill:#ffffff;fill-opacity:1" />
      </g>
      <g
         id="g5195-9-7"
         style="fill:#ffffff;fill-opacity:1" />
      <g
         id="g5197-9-8"
         style="fill:#ffffff;fill-opacity:1" />
      <g
         id="g5199-2-6"
         style="fill:#ffffff;fill-opacity:1" />
      <g
         id="g5201-0-1"
         style="fill:#ffffff;fill-opacity:1" />
      <g
         id="g5203-0-0"
         style="fill:#ffffff;fill-opacity:1" />
      <g
         id="g5205-7-8"
         style="fill:#ffffff;fill-opacity:1" />
      <g
         id="g5207-3-3"
         style="fill:#ffffff;fill-opacity:1" />
      <g
         id="g5209-9-0"
         style="fill:#ffffff;fill-opacity:1" />
      <g
         id="g5211-7-0"
         style="fill:#ffffff;fill-opacity:1" />
      <g
         id="g5213-6-2"
         style="fill:#ffffff;fill-opacity:1" />
      <g
         id="g5215-4-9"
         style="fill:#ffffff;fill-opacity:1" />
      <g
         id="g5217-9-6"
         style="fill:#ffffff;fill-opacity:1" />
      <g
         id="g5219-3-5"
         style="fill:#ffffff;fill-opacity:1" />
      <g
         id="g5221-3-4"
         style="fill:#ffffff;fill-opacity:1" />
      <g
         id="g5223-8-3"
         style="fill:#ffffff;fill-opacity:1" />
    </g>
  </g>
</svg>
