<?xml version="1.0" encoding="UTF-8" standalone="no"?>
<!-- Created with Inkscape (http://www.inkscape.org/) -->

<svg
   xmlns:dc="http://purl.org/dc/elements/1.1/"
   xmlns:cc="http://creativecommons.org/ns#"
   xmlns:rdf="http://www.w3.org/1999/02/22-rdf-syntax-ns#"
   xmlns:svg="http://www.w3.org/2000/svg"
   xmlns="http://www.w3.org/2000/svg"
   xmlns:sodipodi="http://sodipodi.sourceforge.net/DTD/sodipodi-0.dtd"
   xmlns:inkscape="http://www.inkscape.org/namespaces/inkscape"
   width="7.5mm"
   height="7.5mm"
   viewBox="0 0 7.5 7.5"
   version="1.1"
   id="svg4802"
   inkscape:version="0.92.2 (5c3e80d, 2017-08-06)"
   sodipodi:docname="AngularIcon.svg">
  <defs
     id="defs4796" />
  <sodipodi:namedview
     id="base"
     pagecolor="#ffffff"
     bordercolor="#666666"
     borderopacity="1.0"
     inkscape:pageopacity="0.0"
     inkscape:pageshadow="2"
     inkscape:zoom="1"
     inkscape:cx="-110"
     inkscape:cy="148.58661"
     inkscape:document-units="mm"
     inkscape:current-layer="layer1"
     showgrid="false"
     inkscape:window-width="1366"
     inkscape:window-height="704"
     inkscape:window-x="0"
     inkscape:window-y="27"
     inkscape:window-maximized="1" />
  <metadata
     id="metadata4799">
    <rdf:RDF>
      <cc:Work
         rdf:about="">
        <dc:format>image/svg+xml</dc:format>
        <dc:type
           rdf:resource="http://purl.org/dc/dcmitype/StillImage" />
        <dc:title></dc:title>
      </cc:Work>
    </rdf:RDF>
  </metadata>
  <g
     inkscape:label="Layer 1"
     inkscape:groupmode="layer"
     id="layer1"
     transform="translate(0,-289.5)">
    <path
       style="fill:#8bc34a;fill-opacity:1;stroke-width:0.03705248"
       d="m 2.3013665,296.28247 c -0.98494,-0.54496 -1.30360997,-0.73827 -1.32497997,-0.80375 -0.0501,-0.15338 -0.47587,-4.00642 -0.44569,-4.0329 0.016,-0.0141 0.71281997,-0.269 1.54835987,-0.56644 l 1.5191498,-0.54079 1.52579,0.5451 c 0.83918,0.29981 1.53588,0.5552 1.54822,0.56754 0.02,0.0201 -0.39979,3.82322 -0.44397,4.02202 -0.0137,0.0615 -0.28548,0.22862 -1.13873,0.70015 -0.61644,0.34066 -1.20415,0.66601 -1.30605,0.72299 L 3.5981962,297 Z m 0.28867,-1.3624 0.18719,-0.47243 h 0.8209697 0.82098 l 0.18719,0.47243 0.18719,0.47241 0.37218,0.0106 0.37219,0.0105 -0.96299,-2.15889 c -0.52965,-1.18738 -0.96739,-2.16326 -0.97275,-2.16863 -0.006,-0.006 -0.4449,0.96614 -0.9767697,2.15889 l -0.96702,2.16863 0.37223,-0.0105 0.37223,-0.0106 z m 0.4709097,-1.09829 c 0,-0.0511 0.5273,-1.30464 0.54242,-1.28953 0.0241,0.0241 0.5321,1.25473 0.5321,1.28905 0,0.0184 -0.24167,0.0335 -0.53727,0.0335 -0.29549,0 -0.53725,-0.0149 -0.53725,-0.033 z"
       id="path8197"
       inkscape:connector-curvature="0" />
  </g>
</svg>
