<?xml version="1.0" encoding="UTF-8" standalone="no"?>
<!-- Created with Inkscape (http://www.inkscape.org/) -->

<svg
   xmlns:dc="http://purl.org/dc/elements/1.1/"
   xmlns:cc="http://creativecommons.org/ns#"
   xmlns:rdf="http://www.w3.org/1999/02/22-rdf-syntax-ns#"
   xmlns:svg="http://www.w3.org/2000/svg"
   xmlns="http://www.w3.org/2000/svg"
   xmlns:sodipodi="http://sodipodi.sourceforge.net/DTD/sodipodi-0.dtd"
   xmlns:inkscape="http://www.inkscape.org/namespaces/inkscape"
   width="8.6820002mm"
   height="7.98mm"
   viewBox="0 0 8.6820003 7.9800001"
   version="1.1"
   id="svg23677"
   inkscape:version="0.92.2 (5c3e80d, 2017-08-06)"
   sodipodi:docname="atlassionIcon.svg">
  <defs
     id="defs23671" />
  <sodipodi:namedview
     id="base"
     pagecolor="#ffffff"
     bordercolor="#666666"
     borderopacity="1.0"
     inkscape:pageopacity="0.0"
     inkscape:pageshadow="2"
     inkscape:zoom="0.75"
     inkscape:cx="-110"
     inkscape:cy="-80"
     inkscape:document-units="mm"
     inkscape:current-layer="layer1"
     showgrid="false"
     inkscape:window-width="1366"
     inkscape:window-height="704"
     inkscape:window-x="0"
     inkscape:window-y="27"
     inkscape:window-maximized="1" />
  <metadata
     id="metadata23674">
    <rdf:RDF>
      <cc:Work
         rdf:about="">
        <dc:format>image/svg+xml</dc:format>
        <dc:type
           rdf:resource="http://purl.org/dc/dcmitype/StillImage" />
        <dc:title></dc:title>
      </cc:Work>
    </rdf:RDF>
  </metadata>
  <g
     inkscape:label="Layer 1"
     inkscape:groupmode="layer"
     id="layer1"
     transform="translate(0,-289.02)">
    <path
       inkscape:connector-curvature="0"
       id="path18482-3-2"
       d="m 1.1551338,296.44581 c -0.0676,-0.039 -0.0961,-0.087 -0.0968,-0.1635 -10e-4,-0.1006 1.73234,-3.5662 1.80894,-3.6164 0.13675,-0.089 0.2854399,0.03 0.57649,0.4633 0.62798,0.9351 0.8037199,2.2169 0.4280399,3.1208 -0.0356,0.087 -0.0859,0.172 -0.1114999,0.1897 -0.0398,0.027 -0.2247,0.032 -1.30388,0.031 -0.90533,-7.9e-4 -1.27003,-0.01 -1.30123,-0.025 z m 4.18842,0 c -0.0451,-0.026 -1.2724701,-2.4709 -1.3880499,-2.7644 -0.0891,-0.2261 -0.1906101,-0.5965 -0.2460501,-0.8969 -0.0542,-0.2934 -0.0545,-1.1384 -6.3e-4,-1.4307 0.0996,-0.5415 0.28398,-1.0683 0.5271,-1.5086 0.15771,-0.2857 0.2187999,-0.3557 0.3109101,-0.3557 0.0377,0 0.088,0.01 0.11108,0.023 0.0639,0.035 3.3796999,6.6757 3.3796999,6.7702 0,0.05 -0.0178,0.091 -0.0566,0.1301 l -0.0566,0.056 -1.27058,-7.9e-4 c -0.83707,-8e-4 -1.28379,-0.01 -1.30926,-0.023 z"
       style="fill:#8bc34a;fill-opacity:1;stroke-width:0.02167732"
       inkscape:export-xdpi="96"
       inkscape:export-ydpi="96" />
  </g>
</svg>
