<?xml version="1.0" encoding="UTF-8" standalone="no"?>
<!-- Created with Inkscape (http://www.inkscape.org/) -->

<svg
   xmlns:dc="http://purl.org/dc/elements/1.1/"
   xmlns:cc="http://creativecommons.org/ns#"
   xmlns:rdf="http://www.w3.org/1999/02/22-rdf-syntax-ns#"
   xmlns:svg="http://www.w3.org/2000/svg"
   xmlns="http://www.w3.org/2000/svg"
   xmlns:sodipodi="http://sodipodi.sourceforge.net/DTD/sodipodi-0.dtd"
   xmlns:inkscape="http://www.inkscape.org/namespaces/inkscape"
   width="12.607mm"
   height="9.8640003mm"
   viewBox="0 0 12.607 9.8640003"
   version="1.1"
   id="svg9712"
   inkscape:version="0.92.2 (5c3e80d, 2017-08-06)"
   sodipodi:docname="awsIconWhite.svg">
  <defs
     id="defs9706" />
  <sodipodi:namedview
     id="base"
     pagecolor="#ffffff"
     bordercolor="#666666"
     borderopacity="1.0"
     inkscape:pageopacity="0.0"
     inkscape:pageshadow="2"
     inkscape:zoom="1.979899"
     inkscape:cx="56.603397"
     inkscape:cy="57.670198"
     inkscape:document-units="mm"
     inkscape:current-layer="layer1"
     showgrid="false"
     inkscape:window-width="1366"
     inkscape:window-height="704"
     inkscape:window-x="0"
     inkscape:window-y="27"
     inkscape:window-maximized="1" />
  <metadata
     id="metadata9709">
    <rdf:RDF>
      <cc:Work
         rdf:about="">
        <dc:format>image/svg+xml</dc:format>
        <dc:type
           rdf:resource="http://purl.org/dc/dcmitype/StillImage" />
        <dc:title></dc:title>
      </cc:Work>
    </rdf:RDF>
  </metadata>
  <g
     inkscape:label="Layer 1"
     inkscape:groupmode="layer"
     id="layer1"
     transform="translate(0,-287.136)">
    <path
       style="fill:#ffffff;fill-opacity:1;stroke-width:0.05423932"
       d="m 2.8942067,296.22784 c -0.35489,-0.13134 -0.65443,-0.24786 -0.66567,-0.25909 -0.0106,-0.0106 -0.0137,-0.47174 -0.005,-1.02334 l 0.0148,-1.00295 0.69155,0.24677 0.69154,0.24675 v 1.01957 c 0,0.56075 -0.0182,1.01762 -0.0407,1.01527 -0.0223,-0.003 -0.33102,-0.11165 -0.68591,-0.24298 z m 0.9559,-0.7634 0.0148,-1.0232 0.70512,-0.25716 c 0.38781,-0.14144 0.711221,-0.2574 0.71867,-0.25769 0.008,-2.2e-4 0.0136,0.45989 0.0136,1.02262 v 1.02316 l -0.66444,0.2328 c -0.36544,0.12801 -0.69548,0.244 -0.73345,0.25773 -0.0547,0.0197 -0.0659,-0.18828 -0.0543,-0.99826 z m -0.75437,-1.47363 c -0.3037,-0.11032 -0.56443,-0.21314 -0.57942,-0.22854 -0.015,-0.0154 0.25372,-0.12442 0.59711,-0.24239 l 0.62433,-0.21442 0.61953,0.20918 c 0.34073,0.1151 0.61936,0.22413 0.61919,0.2424 -4.23e-4,0.0407 -1.14864,0.44114 -1.25346,0.43717 -0.0413,-10e-4 -0.32357,-0.0932 -0.62728,-0.2034 z m -1.8750201,-0.64955 -0.69154993,-0.24358 v -1.02906 c 0,-0.95821 0.007,-1.02646 0.0949,-0.99146 0.0522,0.0206 0.35957,0.13134 0.68303993,0.24588 0.3234701,0.11458 0.5986101,0.2188 0.6114301,0.2316 0.0133,0.0133 0.0166,0.47485 0.008,1.02674 l -0.0148,1.00345 z m 0.9898701,-0.76623 v -1.02285 l 0.69155,-0.24395 0.69156,-0.24393 0.0148,1.00468 c 0.008,0.55258 0.007,1.01274 -0.003,1.02258 -0.009,0.009 -0.327699,0.12775 -0.706329,0.26213 l -0.688431,0.24422 z m 2.37297,0.76832 -0.69156,-0.24394 v -1.02286 -1.02287 l 0.68843,0.24421 c 0.37865,0.13433 0.69649,0.25228 0.70635,0.26214 0.009,0.009 0.0106,0.47001 0.003,1.02259 l -0.0148,1.00467 z m 0.93563,-0.73735 c 0,-0.63817 0.0206,-1.01878 0.0564,-1.04091 0.0532,-0.0329 1.35542,-0.51392 1.39126,-0.51392 0.009,0 0.0168,0.4588 0.0168,1.01954 v 1.01954 l -0.66444,0.23601 c -0.36544,0.12975 -0.69494,0.24719 -0.73223,0.26089 -0.0527,0.0193 -0.0679,-0.19922 -0.0679,-0.98115 z m -4.1042401,-1.49421 c -0.30337,-0.10792 -0.56378993,-0.20849 -0.57869993,-0.22349 -0.0149,-0.015 0.26050993,-0.12655 0.61207993,-0.24794 l 0.6392501,-0.22066 0.64457,0.22943 c 0.35794,0.12735 0.60841,0.24294 0.56323,0.25981 -0.62923,0.23498 -1.16969,0.41199 -1.24041,0.40625 -0.0487,-0.004 -0.33666,-0.0955 -0.6400201,-0.2034 z m 3.3613001,0.001 c -0.3042,-0.11058 -0.56511,-0.21304 -0.57982,-0.22773 -0.0146,-0.0148 0.2586,-0.12482 0.60734,-0.24478 l 0.63406,-0.21803 0.64646,0.22354 c 0.488601,0.16898 0.62104,0.2339 0.542381,0.26587 -0.259111,0.10526 -1.188841,0.40983 -1.240181,0.4062 -0.0314,-0.003 -0.30603,-0.0945 -0.61024,-0.20507 z m 1.64351,-0.58055 c -0.354869,-0.13134 -0.65443,-0.24787 -0.66565,-0.25909 -0.0106,-0.0106 -0.0137,-0.47173 -0.005,-1.02334 l 0.0148,-1.00295 0.691541,0.24677 0.69156,0.24675 v 1.01957 c 0,0.56075 -0.0184,1.01762 -0.0407,1.01527 -0.0224,-0.003 -0.33104,-0.11165 -0.68593,-0.24298 z m 0.94357,-0.76445 v -1.02332 l 0.6574,-0.23419 c 0.361571,-0.12882 0.691081,-0.24713 0.73222,-0.26291 0.062,-0.0238 0.0748,0.14727 0.0748,0.99662 v 1.02534 l -0.66442,0.23601 c -0.36545,0.12974 -0.694939,0.2472 -0.73223,0.26088 -0.0527,0.0193 -0.0679,-0.20266 -0.0679,-0.99843 z m 2.34585,0.75543 -0.66444,-0.2443 v -1.02307 -1.02308 l 0.68451,0.24282 c 0.3764703,0.13355 0.6937603,0.24282 0.7051003,0.24282 0.012,0 0.0206,0.46375 0.0206,1.03055 0,0.5668 -0.0182,1.02784 -0.0407,1.02454 -0.0224,-0.003 -0.339669,-0.1159 -0.7051103,-0.25028 z m 1.0169803,-0.77552 c 0,-0.5661 0.007,-1.02929 0.0156,-1.02929 0.008,0 0.32589,-0.10938 0.70511,-0.24317 l 0.68949,-0.24316 v 1.02964 c 0,0.5663 -0.009,1.02962 -0.0206,1.02962 -0.012,0 -0.32865,0.10926 -0.70512,0.24283 l -0.68449,0.24282 z m -4.0950703,-1.44371 c -0.2983,-0.10513 -0.56014,-0.20802 -0.58184,-0.22878 -0.0217,-0.0208 0.24086,-0.13472 0.58346,-0.25323 l 0.622901,-0.21548 0.623369,0.21383 c 0.342861,0.11763 0.62337,0.22822 0.62337,0.24584 0,0.0345 -1.191009,0.43741 -1.277069,0.43206 -0.0285,-10e-4 -0.295871,-0.0892 -0.594191,-0.19424 z m 3.29911,-0.009 c -0.303539,-0.11032 -0.564279,-0.21304 -0.57942,-0.22818 -0.0152,-0.0152 0.25193,-0.12349 0.593481,-0.24081 l 0.6210093,-0.21326 0.64982,0.21156 c 0.35741,0.1163 0.63157,0.22707 0.60929,0.24603 -0.0643,0.0547 -1.17779,0.43206 -1.26429,0.42851 -0.0428,-10e-4 -0.32636,-0.0936 -0.6298903,-0.20385 z"
       id="path14072-8-8"
       inkscape:connector-curvature="0" />
  </g>
</svg>
