<?xml version="1.0" encoding="UTF-8" standalone="no"?>
<!-- Created with Inkscape (http://www.inkscape.org/) -->

<svg
   xmlns:dc="http://purl.org/dc/elements/1.1/"
   xmlns:cc="http://creativecommons.org/ns#"
   xmlns:rdf="http://www.w3.org/1999/02/22-rdf-syntax-ns#"
   xmlns:svg="http://www.w3.org/2000/svg"
   xmlns="http://www.w3.org/2000/svg"
   xmlns:sodipodi="http://sodipodi.sourceforge.net/DTD/sodipodi-0.dtd"
   xmlns:inkscape="http://www.inkscape.org/namespaces/inkscape"
   width="12.607mm"
   height="9.8640003mm"
   viewBox="0 0 12.607 9.8640003"
   version="1.1"
   id="svg9712"
   inkscape:version="0.92.2 (5c3e80d, 2017-08-06)"
   sodipodi:docname="azureIcon.svg">
  <defs
     id="defs9706" />
  <sodipodi:namedview
     id="base"
     pagecolor="#ffffff"
     bordercolor="#666666"
     borderopacity="1.0"
     inkscape:pageopacity="0.0"
     inkscape:pageshadow="2"
     inkscape:zoom="1.979899"
     inkscape:cx="159.13388"
     inkscape:cy="57.670198"
     inkscape:document-units="mm"
     inkscape:current-layer="layer1"
     showgrid="false"
     inkscape:window-width="1366"
     inkscape:window-height="704"
     inkscape:window-x="0"
     inkscape:window-y="27"
     inkscape:window-maximized="1" />
  <metadata
     id="metadata9709">
    <rdf:RDF>
      <cc:Work
         rdf:about="">
        <dc:format>image/svg+xml</dc:format>
        <dc:type
           rdf:resource="http://purl.org/dc/dcmitype/StillImage" />
        <dc:title></dc:title>
      </cc:Work>
    </rdf:RDF>
  </metadata>
  <g
     inkscape:label="Layer 1"
     inkscape:groupmode="layer"
     id="layer1"
     transform="translate(0,-287.136)">
    <path
       style="fill:#8bc34a;fill-opacity:1;stroke-width:0.06992198"
       d="m 6.0246188,296.0148 c 1.39406,-0.25585 2.53466,-0.48595 2.53467,-0.51133 2e-5,-0.0254 -0.50883,-0.67039 -1.13075,-1.43339 -0.62193,-0.76301 -1.23489,-1.51564 -1.36213,-1.67252 l -0.23135,-0.28525 0.71022,-2.01075 c 0.69247,-1.96048 0.71276,-2.00591 0.81181,-1.81689 0.0559,0.10659 1.10438,1.98244 2.33003,4.16846 1.2256502,2.18603 2.2284502,3.9894 2.2284502,4.00749 0,0.0181 -1.89575,0.0299 -4.2128002,0.0262 l -4.21279,-0.007 2.53464,-0.46521 z m -5.13357004,-1.00709 c 0.13471004,-0.24037 0.77598004,-1.38552 1.42504004,-2.54482 l 1.18012,-2.10782 1.59206,-1.378 c 0.87565,-0.7579 1.60301,-1.3669 1.61637,-1.35332 0.0133,0.0136 -0.76741,1.7781 -1.73504,3.92116 l -1.75931,3.8965 -1.28209,10e-4 -1.28210004,10e-4 z"
       id="path14085-9-1"
       inkscape:connector-curvature="0"
       sodipodi:nodetypes="cscccscsscccccscscscccc"
       inkscape:transform-center-x="7.4835471"
       inkscape:transform-center-y="13.844562" />
  </g>
</svg>
