<?xml version="1.0" encoding="UTF-8" standalone="no"?>
<!-- Created with Inkscape (http://www.inkscape.org/) -->

<svg
   xmlns:dc="http://purl.org/dc/elements/1.1/"
   xmlns:cc="http://creativecommons.org/ns#"
   xmlns:rdf="http://www.w3.org/1999/02/22-rdf-syntax-ns#"
   xmlns:svg="http://www.w3.org/2000/svg"
   xmlns="http://www.w3.org/2000/svg"
   xmlns:sodipodi="http://sodipodi.sourceforge.net/DTD/sodipodi-0.dtd"
   xmlns:inkscape="http://www.inkscape.org/namespaces/inkscape"
   width="7.1409998mm"
   height="7.9679999mm"
   viewBox="0 0 7.1409998 7.9679999"
   version="1.1"
   id="svg3085"
   inkscape:version="0.92.2 (5c3e80d, 2017-08-06)"
   sodipodi:docname="cogzLogo.svg">
  <defs
     id="defs3079" />
  <sodipodi:namedview
     id="base"
     pagecolor="#ffffff"
     bordercolor="#666666"
     borderopacity="1.0"
     inkscape:pageopacity="0.0"
     inkscape:pageshadow="2"
     inkscape:zoom="1.24"
     inkscape:cx="-180"
     inkscape:cy="-85.708444"
     inkscape:document-units="mm"
     inkscape:current-layer="layer1"
     showgrid="false"
     inkscape:window-width="1366"
     inkscape:window-height="704"
     inkscape:window-x="0"
     inkscape:window-y="27"
     inkscape:window-maximized="1" />
  <metadata
     id="metadata3082">
    <rdf:RDF>
      <cc:Work
         rdf:about="">
        <dc:format>image/svg+xml</dc:format>
        <dc:type
           rdf:resource="http://purl.org/dc/dcmitype/StillImage" />
        <dc:title></dc:title>
      </cc:Work>
    </rdf:RDF>
  </metadata>
  <g
     inkscape:label="Layer 1"
     inkscape:groupmode="layer"
     id="layer1"
     transform="translate(0,-289.032)">
    <path
       style="fill:#800000;stroke-width:0.04489932"
       d="m 2.6695132,296.4272 c -0.53619,-0.0788 -0.99918,-0.32244 -1.41507,-0.74452 -1.46466999,-1.48646 -0.58270999,-4.01991 1.49782,-4.30253 l 0.23572,-0.032 v 0.89659 0.89659 l -0.12843,0.0257 c -0.15823,0.0317 -0.39137,0.22268 -0.47932,0.39276 -0.0852,0.16468 -0.0843,0.54909 10e-4,0.71517 0.081,0.15662 0.31302,0.34077 0.48272,0.38311 l 0.12348,0.0308 v 0.89312 c 0,0.49122 -0.0152,0.89066 -0.0337,0.88764 -0.0186,-0.003 -0.14669,-0.0221 -0.2848,-0.0424 z m 1.48585,-0.85222 c 0,-0.87318 0.003,-0.89587 0.092,-0.89587 0.20711,0 0.53139,-0.26423 0.62351,-0.50804 0.0263,-0.0695 0.0478,-0.33723 0.0478,-0.59492 v -0.46852 h -0.76329 -0.76329 v -0.87553 -0.87554 h 1.63883 1.63882 v 1.47224 c 0,1.6114 -0.017,1.7544 -0.26748,2.25062 -0.16735,0.33151 -0.57399,0.77619 -0.90764,0.99252 -0.28242,0.18313 -0.74318,0.33995 -1.10352,0.37559 l -0.23572,0.0233 z m 0.7633,-4.39581 c 0,-0.16288 0.10053,-0.56235 0.18945,-0.75276 0.22547,-0.48283 0.75129,-0.84972 1.28748,-0.89833 l 0.27414,-0.0249 v 0.88178 0.88177 h -0.87554 c -0.83824,0 -0.87553,-0.004 -0.87553,-0.0876 z"
       id="path5342-3"
       inkscape:connector-curvature="0"
       inkscape:export-xdpi="96"
       inkscape:export-ydpi="96" />
  </g>
</svg>
