<?xml version="1.0" encoding="UTF-8" standalone="no"?>
<!-- Created with Inkscape (http://www.inkscape.org/) -->

<svg
   xmlns:dc="http://purl.org/dc/elements/1.1/"
   xmlns:cc="http://creativecommons.org/ns#"
   xmlns:rdf="http://www.w3.org/1999/02/22-rdf-syntax-ns#"
   xmlns:svg="http://www.w3.org/2000/svg"
   xmlns="http://www.w3.org/2000/svg"
   xmlns:sodipodi="http://sodipodi.sourceforge.net/DTD/sodipodi-0.dtd"
   xmlns:inkscape="http://www.inkscape.org/namespaces/inkscape"
   version="1.1"
   id="svg848"
   width="414.89801"
   height="512"
   viewBox="0 0 414.89801 512"
   sodipodi:docname="delete_icon.svg"
   inkscape:version="0.92.2 (5c3e80d, 2017-08-06)">
  <metadata
     id="metadata854">
    <rdf:RDF>
      <cc:Work
         rdf:about="">
        <dc:format>image/svg+xml</dc:format>
        <dc:type
           rdf:resource="http://purl.org/dc/dcmitype/StillImage" />
        <dc:title></dc:title>
      </cc:Work>
    </rdf:RDF>
  </metadata>
  <defs
     id="defs852" />
  <sodipodi:namedview
     pagecolor="#ffffff"
     bordercolor="#666666"
     borderopacity="1"
     objecttolerance="10"
     gridtolerance="10"
     guidetolerance="10"
     inkscape:pageopacity="0"
     inkscape:pageshadow="2"
     inkscape:window-width="1366"
     inkscape:window-height="704"
     id="namedview850"
     showgrid="false"
     inkscape:zoom="0.65186406"
     inkscape:cx="224.38391"
     inkscape:cy="276.2735"
     inkscape:window-x="0"
     inkscape:window-y="27"
     inkscape:window-maximized="1"
     inkscape:current-layer="svg848" />
  <path
     style="fill:#cccccc;fill-opacity:1"
     d="m 94.565442,510.87077 c -16.4757,-2.13559 -28.96624,-8.52618 -41.66517,-21.31734 -7.261549,-7.31429 -9.858579,-10.77335 -13.216219,-17.60307 -8.24827,-16.77765 -7.6253,-4.13882 -8.00961,-162.5 -0.1882,-77.55 -0.0659,-142.9125 0.27181,-145.25 l 0.614,-4.25 H 207.43771 382.31516 l 0.61239,4.25 c 0.33682,2.3375 0.46067,67.7 0.27523,145.25 -0.37872,158.37771 0.24613,145.70348 -8.01141,162.5 -3.36274,6.84008 -5.94366,10.27448 -13.21623,17.58664 -13.0321,13.10307 -25.21818,19.18248 -42.89345,21.39877 -9.77384,1.22554 -215.01841,1.16612 -224.516248,-0.065 z M 119.5246,445.67079 c 1.86046,-1.25377 4.3946,-4.06627 5.63143,-6.25 l 2.24878,-3.97043 v -99.5 -99.5 l -2.24878,-3.97043 c -3.08998,-5.45566 -7.92483,-8.52957 -13.41586,-8.52957 -5.55028,0 -9.43134,1.99142 -13.000768,6.67085 l -2.80169,3.67296 -0.24149,100.57809 -0.24148,100.5781 2.25671,3.97043 c 3.172898,5.58235 7.915728,8.52957 13.726258,8.52957 3.24061,0 5.75667,-0.70924 8.08689,-2.27957 z m 96,0 c 1.86046,-1.25377 4.3946,-4.06627 5.63143,-6.25 l 2.24878,-3.97043 v -99.5 -99.5 l -2.24878,-3.97043 c -6.51071,-11.49528 -20.92593,-11.49528 -27.43664,0 l -2.24878,3.97043 v 99.5 99.5 l 2.24878,3.97043 c 3.15995,5.57919 7.90512,8.52957 13.71832,8.52957 3.24061,0 5.75667,-0.70924 8.08689,-2.27957 z m 96,0 c 1.86046,-1.25377 4.3946,-4.06627 5.63143,-6.25 l 2.24878,-3.97043 v -99.5 -99.5 l -2.24878,-3.97043 c -6.51071,-11.49528 -20.92593,-11.49528 -27.43664,0 l -2.24878,3.97043 v 99.5 99.5 l 2.24878,3.97043 c 3.15995,5.57919 7.90512,8.52957 13.71832,8.52957 3.24061,0 5.75667,-0.70924 8.08689,-2.27957 z M 20.937713,127.01863 c -5.12659,-1.26485 -11.05329,-4.79546 -14.34682,-8.54658 -5.51187,-6.27768 -6.53765002,-9.78508 -6.58672002,-22.521686 -0.0407,-10.554883 0.17313,-11.91092 2.60137002,-16.5 3.12883,-5.913105 6.6852,-9.416213 12.83217,-12.639982 l 4.5,-2.360018 69.625019,-0.282224 69.625018,-0.282223 0.48278,-14.217776 c 0.3942,-11.60882 0.90291,-15.31877 2.7723,-20.21778 6.34002,-16.61494 19.37763,-26.5834203 37.66891,-28.80141028 16.69477,-2.02441002 31.63839,2.48338998 41.74865,12.59366028 9.76914,9.76914 13.52904,20.83955 13.55996,39.925141 l 0.0174,10.717388 69.25,0.282612 69.25,0.282612 5,2.301224 c 6.54798,3.013673 10.83714,7.278452 13.65817,13.580517 1.91454,4.276992 2.29283,6.844101 2.30152,15.618259 0.009,8.832526 -0.35305,11.294026 -2.27826,15.499996 -2.90213,6.34025 -6.3711,9.99025 -12.68143,13.34325 l -5,2.65675 -185.5,0.15422 c -102.025,0.0848 -186.849997,-0.17886 -188.499997,-0.58595 z"
     id="path1401"
     inkscape:connector-curvature="0" />
</svg>
