<?xml version="1.0" encoding="UTF-8" standalone="no"?>
<!-- Created with Inkscape (http://www.inkscape.org/) -->

<svg
   xmlns:dc="http://purl.org/dc/elements/1.1/"
   xmlns:cc="http://creativecommons.org/ns#"
   xmlns:rdf="http://www.w3.org/1999/02/22-rdf-syntax-ns#"
   xmlns:svg="http://www.w3.org/2000/svg"
   xmlns="http://www.w3.org/2000/svg"
   xmlns:sodipodi="http://sodipodi.sourceforge.net/DTD/sodipodi-0.dtd"
   xmlns:inkscape="http://www.inkscape.org/namespaces/inkscape"
   width="7.5mm"
   height="7.5mm"
   viewBox="0 0 7.5 7.5"
   version="1.1"
   id="svg4802"
   inkscape:version="0.92.2 (5c3e80d, 2017-08-06)"
   sodipodi:docname="djangoIconWhite.svg">
  <defs
     id="defs4796" />
  <sodipodi:namedview
     id="base"
     pagecolor="#ffffff"
     bordercolor="#666666"
     borderopacity="1.0"
     inkscape:pageopacity="0.0"
     inkscape:pageshadow="2"
     inkscape:zoom="1"
     inkscape:cx="-173.95734"
     inkscape:cy="148.58661"
     inkscape:document-units="mm"
     inkscape:current-layer="layer1"
     showgrid="false"
     inkscape:window-width="1366"
     inkscape:window-height="704"
     inkscape:window-x="0"
     inkscape:window-y="27"
     inkscape:window-maximized="1" />
  <metadata
     id="metadata4799">
    <rdf:RDF>
      <cc:Work
         rdf:about="">
        <dc:format>image/svg+xml</dc:format>
        <dc:type
           rdf:resource="http://purl.org/dc/dcmitype/StillImage" />
        <dc:title></dc:title>
      </cc:Work>
    </rdf:RDF>
  </metadata>
  <g
     inkscape:label="Layer 1"
     inkscape:groupmode="layer"
     id="layer1"
     transform="translate(0,-289.5)">
    <path
       style="fill:#fffdff;fill-opacity:1;stroke-width:0.01304128"
       d="m 4.5753373,296.76341 c -0.27417,-0.13009 -0.49856,-0.23945 -0.4986399,-0.24304 -10e-5,-0.004 0.0565,-0.0359 0.1256398,-0.0717 0.5747102,-0.29794 0.8023701,-0.61755 0.8848302,-1.2422 0.0345,-0.26113 0.0447,-0.70828 0.045,-1.96921 l 2.911e-4,-1.2161 h 0.5477301 0.5477301 l -3.44e-4,1.23566 c -5.556e-4,1.93933 -0.019701,2.28158 -0.14923,2.67128 -0.1492099,0.44883 -0.43189,0.76934 -0.8937202,1.0133 L 5.0737747,297 Z m -1.81939,-1.24762 c -0.56649,-0.0476 -0.98933,-0.21896 -1.2754301,-0.51685 -0.20994,-0.2186 -0.31903,-0.43457 -0.39348,-0.779 -0.0247,-0.11418 -0.0285,-0.17269 -0.0287,-0.43824 -2.9e-4,-0.33742 0.0155,-0.44997 0.0978,-0.69646 0.20418,-0.61162 0.7222101,-1.02045 1.4219601,-1.1222 0.24266,-0.0353 0.67489,-0.0209 0.79873,0.0267 0.0194,0.007 0.0212,-0.0609 0.0212,-0.82138 v -0.82952 h 0.5477699 0.54776 l -0.003,2.52023 -0.003,2.52023 -0.1238898,0.0221 c -0.2083202,0.0371 -0.4800401,0.0762 -0.6651101,0.0959 -0.2216,0.0235 -0.75749,0.0341 -0.94203,0.0186 z m 0.62608,-0.8911 c 0.0124,-0.008 0.016,-0.20679 0.016,-0.88082 v -0.87093 l -0.0489,-0.0144 c -0.16632,-0.049 -0.4328,-0.0528 -0.59663,-0.009 -0.21902,0.0591 -0.38474,0.19152 -0.48157,0.38494 -0.0835,0.16684 -0.10543,0.27587 -0.10465,0.52079 7.302e-4,0.23273 0.0192,0.32823 0.0931,0.48216 0.0635,0.13219 0.18347,0.25242 0.31703,0.31773 0.15257,0.0746 0.22814,0.0864 0.52847,0.0825 0.14362,-0.002 0.26832,-0.008 0.27713,-0.0133 z m 1.7504899,-3.72511 v -0.56106 l 0.5444702,0.003 0.5444799,0.003 v 0.55426 0.55425 l -0.5444799,0.003 -0.5444702,0.003 z"
       id="path8300"
       inkscape:connector-curvature="0" />
  </g>
</svg>
