<?xml version="1.0" encoding="UTF-8" standalone="no"?>
<!-- Created with Inkscape (http://www.inkscape.org/) -->

<svg
   xmlns:dc="http://purl.org/dc/elements/1.1/"
   xmlns:cc="http://creativecommons.org/ns#"
   xmlns:rdf="http://www.w3.org/1999/02/22-rdf-syntax-ns#"
   xmlns:svg="http://www.w3.org/2000/svg"
   xmlns="http://www.w3.org/2000/svg"
   xmlns:sodipodi="http://sodipodi.sourceforge.net/DTD/sodipodi-0.dtd"
   xmlns:inkscape="http://www.inkscape.org/namespaces/inkscape"
   width="11.825mm"
   height="7.98mm"
   viewBox="0 0 11.825 7.9800001"
   version="1.1"
   id="svg23677"
   inkscape:version="0.92.2 (5c3e80d, 2017-08-06)"
   sodipodi:docname="dockerIcon.svg">
  <defs
     id="defs23671" />
  <sodipodi:namedview
     id="base"
     pagecolor="#ffffff"
     bordercolor="#666666"
     borderopacity="1.0"
     inkscape:pageopacity="0.0"
     inkscape:pageshadow="2"
     inkscape:zoom="0.75"
     inkscape:cx="-110"
     inkscape:cy="-80"
     inkscape:document-units="mm"
     inkscape:current-layer="layer1"
     showgrid="false"
     inkscape:window-width="1366"
     inkscape:window-height="704"
     inkscape:window-x="0"
     inkscape:window-y="27"
     inkscape:window-maximized="1" />
  <metadata
     id="metadata23674">
    <rdf:RDF>
      <cc:Work
         rdf:about="">
        <dc:format>image/svg+xml</dc:format>
        <dc:type
           rdf:resource="http://purl.org/dc/dcmitype/StillImage" />
        <dc:title></dc:title>
      </cc:Work>
    </rdf:RDF>
  </metadata>
  <g
     inkscape:label="Layer 1"
     inkscape:groupmode="layer"
     id="layer1"
     transform="translate(0,-289.02)">
    <g
       id="g18929-3-9"
       transform="matrix(0.02336649,0,0,0.02336649,20.788085,282.26567)">
      <rect
         id="rect18870-2-4"
         height="612"
         width="792"
         display="none"
         y="37.005001"
         x="-43.5"
         style="clip-rule:evenodd;display:none;fill:#e7e7e7;fill-rule:evenodd" />
      <g
         id="g18902-7-3">
        <g
           id="g18875-5-7"
           display="none"
           style="display:none">
          <path
             id="path18873-2-0"
             d="m 61.093,319.89 c 6.023,0 11.763,-0.157 17.219,-0.464 0.476,-0.026 0.932,-0.063 1.402,-0.092 0.005,-0.002 0.008,-0.002 0.012,-0.002 13.872,-0.855 25.876,-2.708 35.902,-5.57 0.002,-0.002 0.004,-0.002 0.006,-0.002 1.823,-0.521 3.588,-1.07 5.282,-1.656 1.894,-0.657 2.896,-2.725 2.241,-4.618 -0.656,-1.895 -2.722,-2.899 -4.618,-2.24 -12.734,4.412 -29.535,6.842 -50.125,7.298 -0.002,0 -0.004,0 -0.005,0 -10.477,0.232 -21.93,-0.044 -34.352,-0.843 0,0 0,0 -0.001,0 -0.635,-0.038 -1.259,-0.075 -1.9,-0.118 -1.995,-0.128 -3.731,1.374 -3.869,3.375 -0.136,1.999 1.376,3.73 3.375,3.866 2.537,0.173 5.03,0.321 7.49,0.453 0.392,0.021 0.77,0.034 1.158,0.054 v 0 c 7.256,0.366 14.194,0.559 20.783,0.559 z"
             display="inline"
             inkscape:connector-curvature="0"
             style="display:inline;fill:#394d54" />
        </g>
        <g
           id="g18945-2-5"
           transform="translate(-846.84314,235.14964)">
          <path
             style="clip-rule:evenodd;fill:#8bc34a;fill-opacity:1;fill-rule:evenodd"
             inkscape:connector-curvature="0"
             id="outline_7_-0-3"
             d="m 242.133,168.481 h 47.146 v 48.194 h 23.837 c 11.008,0 22.33,-1.962 32.755,-5.494 5.123,-1.736 10.872,-4.154 15.926,-7.193 -6.656,-8.689 -10.053,-19.661 -11.054,-30.476 -1.358,-14.71 1.609,-33.855 11.564,-45.368 l 4.956,-5.732 5.905,4.747 c 14.867,11.946 27.372,28.638 29.577,47.665 17.901,-5.266 38.921,-4.02 54.701,5.088 l 6.475,3.734 -3.408,6.652 c -13.345,26.046 -41.246,34.113 -68.524,32.687 -40.817,101.663 -129.68,149.794 -237.428,149.794 -55.666,0 -106.738,-20.81 -135.821,-70.197 l -0.477,-0.807 -4.238,-8.621 C 4.195,271.415 0.93,247.6 3.145,223.803 l 0.664,-7.127 h 40.315 v -48.194 h 47.143 v -47.145 h 94.292 V 74.191 h 56.574 z" />
          <g
             id="Containers_8_-1-9">
            <path
               style="clip-rule:evenodd;fill:#ffffff;fill-rule:evenodd"
               inkscape:connector-curvature="0"
               d="m 86.209,179.744 h 3.227 v 34.052 h -3.227 z m -6.189,0 h 3.354 v 34.052 H 80.02 Z m -6.192,0 h 3.354 v 34.052 h -3.354 z m -6.192,0 h 3.354 v 34.052 h -3.354 z m -6.19,0 H 64.8 v 34.052 h -3.354 z m -6.062,0 h 3.224 v 34.052 h -3.224 z m -3.403,-3.406 h 40.858 v 40.86 H 51.981 Z"
               id="path18877-9-3" />
            <path
               style="clip-rule:evenodd;fill:#ffffff;fill-rule:evenodd"
               inkscape:connector-curvature="0"
               d="m 133.354,132.598 h 3.229 v 34.051 h -3.229 z m -6.189,0 h 3.354 v 34.051 h -3.354 z m -6.192,0 h 3.354 v 34.051 h -3.354 z m -6.192,0 h 3.354 v 34.051 h -3.354 z m -6.188,0 h 3.352 v 34.051 h -3.352 z m -6.062,0 h 3.222 v 34.051 h -3.222 z m -3.407,-3.405 h 40.863 v 40.859 H 99.124 Z"
               id="path18879-2-9" />
            <path
               style="clip-rule:evenodd;fill:#ffffff;fill-rule:evenodd"
               inkscape:connector-curvature="0"
               d="m 133.354,179.744 h 3.229 v 34.052 h -3.229 z m -6.189,0 h 3.354 v 34.052 h -3.354 z m -6.192,0 h 3.354 v 34.052 h -3.354 z m -6.192,0 h 3.354 v 34.052 h -3.354 z m -6.188,0 h 3.352 v 34.052 h -3.352 z m -6.062,0 h 3.222 v 34.052 h -3.222 z m -3.407,-3.406 h 40.863 v 40.86 H 99.124 Z"
               id="path18881-1-2" />
            <path
               style="clip-rule:evenodd;fill:#ffffff;fill-rule:evenodd"
               inkscape:connector-curvature="0"
               d="m 180.501,179.744 h 3.225 v 34.052 h -3.225 z m -6.191,0 h 3.355 v 34.052 h -3.355 z m -6.19,0 h 3.354 v 34.052 h -3.354 z m -6.192,0 h 3.354 v 34.052 h -3.354 z m -6.192,0 h 3.354 v 34.052 h -3.354 z m -6.06,0 h 3.222 v 34.052 h -3.222 z m -3.405,-3.406 h 40.861 v 40.86 h -40.861 z"
               id="path18883-9-3" />
            <path
               style="clip-rule:evenodd;fill:#ffffff;fill-rule:evenodd"
               inkscape:connector-curvature="0"
               d="m 180.501,132.598 h 3.225 v 34.051 h -3.225 z m -6.191,0 h 3.355 v 34.051 h -3.355 z m -6.19,0 h 3.354 v 34.051 h -3.354 z m -6.192,0 h 3.354 v 34.051 h -3.354 z m -6.192,0 h 3.354 v 34.051 h -3.354 z m -6.06,0 h 3.222 v 34.051 h -3.222 z m -3.405,-3.405 h 40.861 v 40.859 h -40.861 z"
               id="path18885-7-4" />
            <path
               style="clip-rule:evenodd;fill:#ffffff;fill-rule:evenodd"
               inkscape:connector-curvature="0"
               d="m 227.647,179.744 h 3.226 v 34.052 h -3.226 z m -6.19,0 h 3.354 v 34.052 h -3.354 z m -6.192,0 h 3.354 v 34.052 h -3.354 z m -6.192,0 h 3.354 v 34.052 h -3.354 z m -6.189,0 h 3.354 v 34.052 h -3.354 z m -6.063,0 h 3.224 v 34.052 h -3.224 z m -3.405,-3.406 h 40.861 v 40.86 h -40.861 z"
               id="path18887-0-7" />
            <path
               style="clip-rule:evenodd;fill:#ffffff;fill-rule:evenodd"
               inkscape:connector-curvature="0"
               d="m 227.647,132.598 h 3.226 v 34.051 h -3.226 z m -6.19,0 h 3.354 v 34.051 h -3.354 z m -6.192,0 h 3.354 v 34.051 h -3.354 z m -6.192,0 h 3.354 v 34.051 h -3.354 z m -6.189,0 h 3.354 v 34.051 h -3.354 z m -6.063,0 h 3.224 v 34.051 h -3.224 z m -3.405,-3.405 h 40.861 v 40.859 h -40.861 z"
               id="path18889-6-7" />
            <path
               style="clip-rule:evenodd;fill:#ffffff;fill-rule:evenodd"
               inkscape:connector-curvature="0"
               d="m 227.647,85.451 h 3.226 v 34.053 h -3.226 z m -6.19,0 h 3.354 v 34.053 h -3.354 z m -6.192,0 h 3.354 v 34.053 h -3.354 z m -6.192,0 h 3.354 v 34.053 h -3.354 z m -6.189,0 h 3.354 v 34.053 h -3.354 z m -6.063,0 h 3.224 v 34.053 h -3.224 z m -3.405,-3.403 h 40.861 v 40.86 h -40.861 z"
               id="path18891-3-3" />
            <path
               style="clip-rule:evenodd;fill:#ffffff;fill-rule:evenodd"
               inkscape:connector-curvature="0"
               d="m 274.792,179.744 h 3.224 v 34.052 h -3.224 z m -6.19,0 h 3.352 v 34.052 h -3.352 z m -6.194,0 h 3.354 v 34.052 h -3.354 z m -6.19,0 h 3.354 v 34.052 h -3.354 z m -6.192,0 h 3.354 v 34.052 h -3.354 z m -6.062,0 h 3.227 v 34.052 h -3.227 z m -3.403,-3.406 h 40.86 v 40.86 h -40.86 z"
               id="path18893-8-9" />
          </g>
          <path
             style="clip-rule:evenodd;fill:#ffffff;fill-rule:evenodd"
             inkscape:connector-curvature="0"
             d="m 137.428,283.445 c 6.225,0 11.271,5.049 11.271,11.272 0,6.225 -5.046,11.271 -11.271,11.271 -6.226,0 -11.272,-5.046 -11.272,-11.271 0,-6.223 5.046,-11.272 11.272,-11.272"
             id="path18896-2-1" />
          <path
             style="clip-rule:evenodd;fill:#8bc34a;fill-opacity:1;fill-rule:evenodd"
             inkscape:connector-curvature="0"
             d="m 137.428,286.644 c 1.031,0 2.015,0.194 2.923,0.546 -0.984,0.569 -1.65,1.635 -1.65,2.854 0,1.82 1.476,3.293 3.296,3.293 1.247,0 2.329,-0.693 2.89,-1.715 0.395,0.953 0.615,1.999 0.615,3.097 0,4.458 -3.615,8.073 -8.073,8.073 -4.458,0 -8.074,-3.615 -8.074,-8.073 -10e-4,-4.461 3.616,-8.075 8.073,-8.075"
             id="path18898-2-7" />
          <path
             style="fill:#ffffff"
             inkscape:connector-curvature="0"
             d="m 167.394,364.677 c -27.916,-13.247 -43.239,-31.256 -51.765,-50.915 -10.37,2.961 -22.835,4.852 -37.317,5.664 -5.457,0.307 -11.196,0.464 -17.219,0.464 -6.942,0 -14.26,-0.205 -21.94,-0.613 25.6,25.585 57.094,45.283 115.408,45.645 4.305,-0.001 8.579,-0.085 12.833,-0.245 z"
             id="path18900-9-8" />
        </g>
      </g>
    </g>
  </g>
</svg>
