<?xml version="1.0" encoding="UTF-8" standalone="no"?>
<!-- Created with Inkscape (http://www.inkscape.org/) -->

<svg
   xmlns:dc="http://purl.org/dc/elements/1.1/"
   xmlns:cc="http://creativecommons.org/ns#"
   xmlns:rdf="http://www.w3.org/1999/02/22-rdf-syntax-ns#"
   xmlns:svg="http://www.w3.org/2000/svg"
   xmlns="http://www.w3.org/2000/svg"
   xmlns:sodipodi="http://sodipodi.sourceforge.net/DTD/sodipodi-0.dtd"
   xmlns:inkscape="http://www.inkscape.org/namespaces/inkscape"
   width="11.825mm"
   height="7.98mm"
   viewBox="0 0 11.825 7.9800001"
   version="1.1"
   id="svg23677"
   inkscape:version="0.92.2 (5c3e80d, 2017-08-06)"
   sodipodi:docname="emailIconWhite.svg">
  <defs
     id="defs23671" />
  <sodipodi:namedview
     id="base"
     pagecolor="#ffffff"
     bordercolor="#666666"
     borderopacity="1.0"
     inkscape:pageopacity="0.0"
     inkscape:pageshadow="2"
     inkscape:zoom="0.75"
     inkscape:cx="-110"
     inkscape:cy="-80"
     inkscape:document-units="mm"
     inkscape:current-layer="layer1"
     showgrid="false"
     inkscape:window-width="1366"
     inkscape:window-height="704"
     inkscape:window-x="0"
     inkscape:window-y="27"
     inkscape:window-maximized="1" />
  <metadata
     id="metadata23674">
    <rdf:RDF>
      <cc:Work
         rdf:about="">
        <dc:format>image/svg+xml</dc:format>
        <dc:type
           rdf:resource="http://purl.org/dc/dcmitype/StillImage" />
        <dc:title></dc:title>
      </cc:Work>
    </rdf:RDF>
  </metadata>
  <g
     inkscape:label="Layer 1"
     inkscape:groupmode="layer"
     id="layer1"
     transform="translate(0,-289.02)">
    <path
       style="fill:#ffffff;fill-opacity:1;stroke-width:0.01526979"
       d="m 2.6263207,296.46481 c -0.046213,-0.0105 -0.1275616,-0.022 -0.1808057,-0.0367 -0.1034283,-0.0272 -0.2925647,-0.11422 -0.2925647,-0.13518 0,-0.0105 0.084566,-0.10699 0.1878056,-0.22237 0.3239495,-0.36163 0.8316806,-0.92959 1.6140363,-1.80564 0.4157147,-0.46548 0.8473682,-0.94804 0.9592212,-1.07232 l 0.203367,-0.22604 0.170746,0.14912 c 0.09389,0.0817 0.307633,0.2691 0.474942,0.4157 0.167319,0.14661 0.328529,0.27885 0.358258,0.29405 0.06916,0.0356 0.178731,0.0356 0.247871,0 0.02976,-0.0147 0.190939,-0.14744 0.358248,-0.29405 0.167319,-0.1466 0.381039,-0.33365 0.474952,-0.4157 l 0.170736,-0.14912 0.203367,0.22604 c 0.111853,0.12428 0.543506,0.60684 0.959231,1.07232 0.782356,0.87605 1.290077,1.44401 1.6140356,1.80564 0.103324,0.11538 0.187796,0.21535 0.187796,0.22237 0,0.022 -0.191536,0.10919 -0.316174,0.1444 l -0.1190106,0.0335 h -3.596045 c -1.9778162,0 -3.6338211,0 -3.6800127,-0.0105 z m -0.9296599,-0.6759 c -0.042021,-0.0985 -0.07482,-0.2078 -0.092635,-0.30819 -0.021901,-0.12376 -0.022111,-4.84769 -1.677e-4,-4.98664 0.02735,-0.17364 0.1319523,-0.44274 0.1720346,-0.44274 0.00629,0 0.1476394,0.11894 0.3130304,0.26449 0.2648476,0.23295 1.8194782,1.59289 2.3392183,2.04622 0.1049792,0.0912 0.203514,0.17845 0.21896,0.19323 0.03217,0.0304 0.180208,-0.14136 -1.3870916,1.61126 -0.4871083,0.5447 -1.0252917,1.14714 -1.195964,1.3388 -0.1706828,0.19167 -0.316939,0.34843 -0.3250288,0.34843 -0.00838,0 -0.027141,-0.0293 -0.042335,-0.065 z m 8.8680152,-0.1289 c -0.09546,-0.1073 -0.471757,-0.52845 -0.8360826,-0.93588 -0.364325,-0.40753 -0.738815,-0.82648 -0.832204,-0.93117 -0.09337,-0.10479 -0.259252,-0.29016 -0.368601,-0.41225 -0.775031,-0.86546 -0.716411,-0.79494 -0.684953,-0.82501 0.0963,-0.0922 2.8636536,-2.50446 2.8728336,-2.50436 0.03909,0 0.143972,0.27151 0.170987,0.44274 0.01048,0.065 0.01572,0.9346 0.01582,2.49912 1.15e-4,2.02225 -0.0031,2.41783 -0.0218,2.51434 -0.02389,0.1246 -0.101123,0.33387 -0.126493,0.34225 -0.0084,0 -0.09389,-0.0828 -0.189462,-0.18978 z m -4.5810866,-2.71145 c -0.137422,-0.12082 -0.669025,-0.5863 -1.181325,-1.03428 -0.5122996,-0.44809 -1.3042332,-1.14075 -1.7598415,-1.53924 -0.4556188,-0.39852 -0.8283902,-0.72966 -0.8283902,-0.73584 0,-0.0189 0.1682307,-0.0859 0.2901231,-0.11674 0.1101768,-0.0272 0.2523776,-0.0283 3.7411056,-0.0283 3.488719,0 3.63093,10e-4 3.741096,0.0283 0.1218926,0.0304 0.2901226,0.0985 0.2901226,0.11674 0,0.0105 -0.3762076,0.34015 -0.8360186,0.74223 -0.45981,0.40205 -0.945965,0.82771 -1.080338,0.94581 -0.892029,0.78436 -2.090079,1.82692 -2.106761,1.83331 -0.011,0 -0.131816,-0.0912 -0.269773,-0.21199 z"
       id="path18807-7-2"
       inkscape:connector-curvature="0" />
  </g>
</svg>
