<?xml version="1.0" encoding="UTF-8" standalone="no"?>
<!-- Generator: Adobe Illustrator 19.0.0, SVG Export Plug-In . SVG Version: 6.00 Build 0)  -->

<svg
   xmlns:dc="http://purl.org/dc/elements/1.1/"
   xmlns:cc="http://creativecommons.org/ns#"
   xmlns:rdf="http://www.w3.org/1999/02/22-rdf-syntax-ns#"
   xmlns:svg="http://www.w3.org/2000/svg"
   xmlns="http://www.w3.org/2000/svg"
   xmlns:sodipodi="http://sodipodi.sourceforge.net/DTD/sodipodi-0.dtd"
   xmlns:inkscape="http://www.inkscape.org/namespaces/inkscape"
   version="1.1"
   id="Layer_1"
   x="0px"
   y="0px"
   viewBox="0 0 187.313 183.09801"
   xml:space="preserve"
   sodipodi:docname="file2.svg"
   width="187.313"
   height="183.09801"
   inkscape:version="0.92.2 (5c3e80d, 2017-08-06)"><metadata
     id="metadata1178"><rdf:RDF><cc:Work
         rdf:about=""><dc:format>image/svg+xml</dc:format><dc:type
           rdf:resource="http://purl.org/dc/dcmitype/StillImage" /><dc:title></dc:title></cc:Work></rdf:RDF></metadata><defs
     id="defs1176" /><sodipodi:namedview
     pagecolor="#ffffff"
     bordercolor="#666666"
     borderopacity="1"
     objecttolerance="10"
     gridtolerance="10"
     guidetolerance="10"
     inkscape:pageopacity="0"
     inkscape:pageshadow="2"
     inkscape:window-width="1366"
     inkscape:window-height="704"
     id="namedview1174"
     showgrid="false"
     showguides="true"
     inkscape:guide-bbox="true"
     inkscape:zoom="0.99804688"
     inkscape:cx="322.57926"
     inkscape:cy="95.686888"
     inkscape:window-x="0"
     inkscape:window-y="27"
     inkscape:window-maximized="1"
     inkscape:current-layer="Layer_1"><sodipodi:guide
       position="514.00391,313.61252"
       orientation="1,0"
       id="guide1180"
       inkscape:locked="false" /></sodipodi:namedview><path
     style="fill:#ffd5d5;stroke-width:0.35779947"
     d="m 187.31334,92.549202 c 0,50.010858 -41.48413,90.548758 -92.657754,90.548758 C 43.481957,183.09796 2,142.56006 2,92.549202 2,42.540812 43.483404,2.0004212 94.655586,2.0004212 c 51.172184,0 92.657754,40.5403908 92.657754,90.5487808 z"
     id="path1023"
     inkscape:connector-curvature="0" /><path
     style="fill:#e9afaf"
     d="m 1342.6903,-90.930348 -127.071,-127.068012 h -123.136 v 13.207 l -57.856,-21.028 -75.00803,206.700012 160.97503,160.954988 c 118.948,-15.309 212.27,-112.186988 222.096,-232.765988 z"
     id="path1025"
     inkscape:connector-curvature="0" /><g
     id="g1141"
     transform="matrix(0.37375845,0,0,0.32674564,-10.223582,-0.6607988)"><rect
       x="163.657"
       y="146.065"
       transform="matrix(-0.94,-0.3411,0.3411,-0.94,289.8944,562.9742)"
       style="fill:#34495e"
       width="61.566002"
       height="219.873"
       id="rect1027" /><path
       style="fill:#ffffff"
       d="m 183.887,332.334 c -3.041,8.371 -12.291,12.693 -20.654,9.654 -8.371,-3.034 -12.698,-12.283 -9.656,-20.654 3.039,-8.363 12.283,-12.692 20.654,-9.654 8.369,3.041 12.693,12.291 9.656,20.654 z"
       id="path1029"
       inkscape:connector-curvature="0" /><path
       style="fill:#283a4d"
       d="m 181.13,331.338 c -2.483,6.848 -10.058,10.391 -16.901,7.898 -6.848,-2.475 -10.388,-10.051 -7.908,-16.899 2.493,-6.853 10.056,-10.388 16.906,-7.903 6.849,2.497 10.392,10.051 7.903,16.904 z"
       id="path1031"
       inkscape:connector-curvature="0" /><path
       style="fill:#ffffff"
       d="m 200.817,298.578 c -0.55,1.508 -2.243,2.299 -3.75,1.754 l -33.08,-12.001 c -1.513,-0.548 -2.301,-2.24 -1.751,-3.758 l 44.667,-123.092 c 0.548,-1.513 2.235,-2.307 3.758,-1.756 l 33.065,11.999 c 1.513,0.548 2.304,2.243 1.756,3.758 z"
       id="path1033"
       inkscape:connector-curvature="0" /><g
       id="g1051"><rect
         x="196.92599"
         y="205.69501"
         transform="rotate(-160.06829,212.31149,206.72136)"
         style="fill:#cee2f2"
         width="30.771"
         height="2.053"
         id="rect1035" /><rect
         x="192.716"
         y="217.26199"
         transform="rotate(-160.06829,208.10155,218.28987)"
         style="fill:#cee2f2"
         width="30.771"
         height="2.056"
         id="rect1037" /><rect
         x="188.515"
         y="228.826"
         transform="matrix(-0.94,-0.3411,0.3411,-0.94,317.1667,515.4692)"
         style="fill:#cee2f2"
         width="30.77"
         height="2.0510001"
         id="rect1039" /><rect
         x="184.30499"
         y="240.408"
         transform="matrix(-0.94,-0.3411,0.3411,-0.94,305.0752,536.5018)"
         style="fill:#cee2f2"
         width="30.796"
         height="2.0450001"
         id="rect1041" /><rect
         x="180.11301"
         y="251.966"
         transform="matrix(-0.9401,-0.341,0.341,-0.9401,293.0251,557.4916)"
         style="fill:#cee2f2"
         width="30.795"
         height="2.053"
         id="rect1043" /><rect
         x="175.937"
         y="263.55399"
         transform="matrix(-0.94,-0.3412,0.3412,-0.94,280.9173,578.5542)"
         style="fill:#cee2f2"
         width="30.797001"
         height="2.04"
         id="rect1045" /><rect
         x="205.091"
         y="172.23199"
         transform="matrix(-0.9401,-0.341,0.341,-0.9401,364.9541,432.5539)"
         style="fill:#cee2f2"
         width="30.798"
         height="23.944"
         id="rect1047" /><rect
         x="169.8"
         y="275.47699"
         transform="matrix(-0.94,-0.3411,0.3411,-0.94,263.2537,609.217)"
         style="fill:#cee2f2"
         width="30.77"
         height="11.975"
         id="rect1049" /></g><rect
       x="260.86401"
       y="149.99001"
       style="fill:#0575a5"
       width="61.568001"
       height="219.87801"
       id="rect1053" /><circle
       style="fill:#ffffff"
       cx="291.66101"
       cy="335.258"
       r="16.125"
       id="circle1055" /><circle
       style="fill:#283a4d"
       cx="291.66101"
       cy="335.258"
       r="13.192"
       id="circle1057" /><path
       style="fill:#ffffff"
       d="m 312.169,297.743 c 0,1.623 -1.321,2.934 -2.934,2.934 h -35.172 c -1.615,0 -2.934,-1.313 -2.934,-2.934 V 166.799 c 0,-1.603 1.321,-2.934 2.934,-2.934 h 35.172 c 1.615,0 2.934,1.331 2.934,2.934 z"
       id="path1059"
       inkscape:connector-curvature="0" /><g
       id="g1077"><rect
         x="276.27499"
         y="206.464"
         style="fill:#cee2f2"
         width="30.771"
         height="2.0510001"
         id="rect1061" /><rect
         x="276.27499"
         y="218.752"
         style="fill:#cee2f2"
         width="30.771"
         height="2.0510001"
         id="rect1063" /><rect
         x="276.27499"
         y="231.091"
         style="fill:#cee2f2"
         width="30.771"
         height="2.0510001"
         id="rect1065" /><rect
         x="276.27499"
         y="243.379"
         style="fill:#cee2f2"
         width="30.771"
         height="2.0510001"
         id="rect1067" /><rect
         x="276.27499"
         y="255.69299"
         style="fill:#cee2f2"
         width="30.771"
         height="2.0480001"
         id="rect1069" /><rect
         x="276.27499"
         y="268.00601"
         style="fill:#cee2f2"
         width="30.771"
         height="2.0480001"
         id="rect1071" /><rect
         x="276.27499"
         y="171.571"
         style="fill:#cee2f2"
         width="30.771"
         height="23.945999"
         id="rect1073" /><rect
         x="276.27499"
         y="281.01099"
         style="fill:#cee2f2"
         width="30.771"
         height="11.96"
         id="rect1075" /></g><rect
       x="322.43201"
       y="149.99001"
       style="fill:#c1d354"
       width="61.568001"
       height="219.87801"
       id="rect1079" /><circle
       style="fill:#ffffff"
       cx="353.229"
       cy="335.258"
       r="16.122999"
       id="circle1081" /><circle
       style="fill:#283a4d"
       cx="353.203"
       cy="335.258"
       r="13.197"
       id="circle1083" /><path
       style="fill:#ffffff"
       d="m 373.734,297.743 c 0,1.623 -1.313,2.934 -2.929,2.934 h -35.187 c -1.608,0 -2.921,-1.313 -2.921,-2.934 V 166.799 c 0,-1.603 1.313,-2.934 2.921,-2.934 h 35.187 c 1.615,0 2.929,1.331 2.929,2.934 z"
       id="path1085"
       inkscape:connector-curvature="0" /><g
       id="g1103"><rect
         x="337.81799"
         y="206.464"
         style="fill:#cee2f2"
         width="30.797001"
         height="2.0510001"
         id="rect1087" /><rect
         x="337.81799"
         y="218.752"
         style="fill:#cee2f2"
         width="30.797001"
         height="2.0510001"
         id="rect1089" /><rect
         x="337.81799"
         y="231.091"
         style="fill:#cee2f2"
         width="30.797001"
         height="2.0510001"
         id="rect1091" /><rect
         x="337.81799"
         y="243.379"
         style="fill:#cee2f2"
         width="30.797001"
         height="2.0510001"
         id="rect1093" /><rect
         x="337.81799"
         y="255.69299"
         style="fill:#cee2f2"
         width="30.797001"
         height="2.0480001"
         id="rect1095" /><rect
         x="337.81799"
         y="268.00601"
         style="fill:#cee2f2"
         width="30.797001"
         height="2.0480001"
         id="rect1097" /><rect
         x="337.81799"
         y="171.571"
         style="fill:#cee2f2"
         width="30.797001"
         height="23.945999"
         id="rect1099" /><rect
         x="337.81799"
         y="281.01099"
         style="fill:#cee2f2"
         width="30.797001"
         height="11.96"
         id="rect1101" /></g><path
       style="fill:#04689d"
       d="m 312.166,214.477 v 83.277 c 0,1.615 -1.308,2.921 -2.944,2.921 h -35.149 c -1.638,0 -2.941,-1.306 -2.941,-2.921 V 173.44 L 260.866,163.174 V 369.84 h 61.568 V 224.742 Z m -20.505,136.909 c -8.906,0 -16.128,-7.217 -16.128,-16.128 0,-8.883 7.219,-16.128 16.128,-16.128 8.909,0 16.102,7.245 16.102,16.128 0,8.908 -7.193,16.128 -16.102,16.128 z"
       id="path1105"
       inkscape:connector-curvature="0" /><path
       style="fill:#cee2f2"
       d="m 306.202,208.512 h -29.926 v -2.048 h 27.878 L 293.2,195.507 h -16.922 v -16.922 l -5.146,-5.146 v 124.314 c 0,1.615 1.306,2.921 2.941,2.921 h 35.149 c 1.638,0 2.944,-1.306 2.944,-2.921 v -83.277 z m 0.844,84.454 h -30.771 v -11.958 h 30.774 v 11.958 z m 0,-22.912 h -30.771 v -2.048 h 30.774 v 2.048 z m 0,-12.313 h -30.771 v -2.048 h 30.774 v 2.048 z m 0,-12.314 h -30.771 v -2.048 h 30.774 v 2.048 z m 0,-12.288 h -30.771 v -2.048 h 30.774 v 2.048 z m 0,-12.313 h -30.771 v -2.074 h 30.774 v 2.074 z"
       id="path1107"
       inkscape:connector-curvature="0" /><g
       id="g1125"><polygon
         style="fill:#a6c8e7"
         points="293.197,195.507 276.275,195.507 276.275,178.586 "
         id="polygon1109" /><polygon
         style="fill:#a6c8e7"
         points="276.275,208.512 276.275,206.464 304.154,206.464 306.202,208.512 "
         id="polygon1111" /><rect
         x="276.27499"
         y="218.752"
         style="fill:#a6c8e7"
         width="30.771"
         height="2.0739999"
         id="rect1113" /><rect
         x="276.27499"
         y="231.091"
         style="fill:#a6c8e7"
         width="30.771"
         height="2.0480001"
         id="rect1115" /><rect
         x="276.27499"
         y="243.379"
         style="fill:#a6c8e7"
         width="30.771"
         height="2.0480001"
         id="rect1117" /><rect
         x="276.27499"
         y="255.69299"
         style="fill:#a6c8e7"
         width="30.771"
         height="2.0480001"
         id="rect1119" /><rect
         x="276.27499"
         y="268.00601"
         style="fill:#a6c8e7"
         width="30.771"
         height="2.0480001"
         id="rect1121" /><rect
         x="276.27499"
         y="281.01099"
         style="fill:#a6c8e7"
         width="30.771"
         height="11.958"
         id="rect1123" /></g><path
       style="fill:#9cbb50"
       d="m 373.734,276.019 v 21.732 c 0,1.615 -1.306,2.921 -2.921,2.921 h -35.197 c -1.613,0 -2.918,-1.306 -2.918,-2.921 v -62.769 l -10.266,-10.24 V 369.843 H 384 v -83.558 z m -20.505,75.367 c -8.909,0 -16.131,-7.217 -16.131,-16.128 0,-8.883 7.219,-16.128 16.131,-16.128 8.883,0 16.1,7.245 16.1,16.128 0.002,8.908 -7.217,16.128 -16.1,16.128 z"
       id="path1127"
       inkscape:connector-curvature="0" /><path
       style="fill:#cee2f2"
       d="m 367.77,270.054 h -29.952 v -2.048 h 27.904 L 355.454,257.74 h -17.638 v -2.048 h 15.59 L 343.14,245.426 h -5.325 v -2.048 h 3.277 l -8.397,-8.397 v 62.771 c 0,1.615 1.306,2.921 2.918,2.921 h 35.2 c 1.615,0 2.921,-1.306 2.921,-2.921 V 276.02 Z m 0.844,22.912 h -30.797 v -11.958 h 30.797 z"
       id="path1129"
       inkscape:connector-curvature="0" /><g
       id="g1139"><polygon
         style="fill:#a6c8e7"
         points="337.818,245.427 337.818,243.379 341.094,243.379 343.142,245.427 "
         id="polygon1131" /><polygon
         style="fill:#a6c8e7"
         points="337.818,257.741 337.818,255.693 353.408,255.693 355.456,257.741 "
         id="polygon1133" /><polygon
         style="fill:#a6c8e7"
         points="337.818,270.054 337.818,268.006 365.722,268.006 367.77,270.054 "
         id="polygon1135" /><rect
         x="337.81799"
         y="281.01099"
         style="fill:#a6c8e7"
         width="30.797001"
         height="11.958"
         id="rect1137" /></g></g><g
     id="g1143"
     transform="translate(0,-328.90204)" /><g
     id="g1145"
     transform="translate(0,-328.90204)" /><g
     id="g1147"
     transform="translate(0,-328.90204)" /><g
     id="g1149"
     transform="translate(0,-328.90204)" /><g
     id="g1151"
     transform="translate(0,-328.90204)" /><g
     id="g1153"
     transform="translate(0,-328.90204)" /><g
     id="g1155"
     transform="translate(0,-328.90204)" /><g
     id="g1157"
     transform="translate(0,-328.90204)" /><g
     id="g1159"
     transform="translate(0,-328.90204)" /><g
     id="g1161"
     transform="translate(0,-328.90204)" /><g
     id="g1163"
     transform="translate(0,-328.90204)" /><g
     id="g1165"
     transform="translate(0,-328.90204)" /><g
     id="g1167"
     transform="translate(0,-328.90204)" /><g
     id="g1169"
     transform="translate(0,-328.90204)" /><g
     id="g1171"
     transform="translate(0,-328.90204)" /></svg>