<?xml version="1.0" encoding="iso-8859-1"?>
<!-- Generator: Adobe Illustrator 19.0.0, SVG Export Plug-In . SVG Version: 6.00 Build 0)  -->
<svg version="1.1" id="Layer_1" xmlns="http://www.w3.org/2000/svg" xmlns:xlink="http://www.w3.org/1999/xlink" x="0px" y="0px"
	 viewBox="0 0 512 512" style="enable-background:new 0 0 512 512;" xml:space="preserve">
<path style="fill:#E1EFFA;" d="M512,256c0,141.391-114.616,256-256.003,256S0,397.391,0,256C0,114.616,114.614,0,255.997,0
	S512,114.616,512,256z"/>
<path style="fill:#BCD4E8;" d="M511.066,277.048L383.995,149.98H260.859v13.207l-57.856-21.028l-75.008,206.7L288.97,509.814
	C407.918,494.505,501.24,397.627,511.066,277.048z"/>
<g>
	
		<rect x="163.657" y="146.065" transform="matrix(-0.94 -0.3411 0.3411 -0.94 289.8944 562.9742)" style="fill:#34495E;" width="61.566" height="219.873"/>
	<path style="fill:#FFFFFF;" d="M183.887,332.334c-3.041,8.371-12.291,12.693-20.654,9.654c-8.371-3.034-12.698-12.283-9.656-20.654
		c3.039-8.363,12.283-12.692,20.654-9.654C182.6,314.721,186.924,323.971,183.887,332.334z"/>
	<path style="fill:#283A4D;" d="M181.13,331.338c-2.483,6.848-10.058,10.391-16.901,7.898c-6.848-2.475-10.388-10.051-7.908-16.899
		c2.493-6.853,10.056-10.388,16.906-7.903C180.076,316.931,183.619,324.485,181.13,331.338z"/>
	<path style="fill:#FFFFFF;" d="M200.817,298.578c-0.55,1.508-2.243,2.299-3.75,1.754l-33.08-12.001
		c-1.513-0.548-2.301-2.24-1.751-3.758l44.667-123.092c0.548-1.513,2.235-2.307,3.758-1.756l33.065,11.999
		c1.513,0.548,2.304,2.243,1.756,3.758L200.817,298.578z"/>
	<g>
		
			<rect x="196.926" y="205.695" transform="matrix(-0.9401 -0.3409 0.3409 -0.9401 341.4342 473.4371)" style="fill:#CEE2F2;" width="30.771" height="2.053"/>
		
			<rect x="192.716" y="217.262" transform="matrix(-0.9401 -0.3409 0.3409 -0.9401 329.3228 494.446)" style="fill:#CEE2F2;" width="30.771" height="2.056"/>
		
			<rect x="188.515" y="228.826" transform="matrix(-0.94 -0.3411 0.3411 -0.94 317.1667 515.4692)" style="fill:#CEE2F2;" width="30.77" height="2.051"/>
		
			<rect x="184.305" y="240.408" transform="matrix(-0.94 -0.3411 0.3411 -0.94 305.0752 536.5018)" style="fill:#CEE2F2;" width="30.796" height="2.045"/>
		
			<rect x="180.113" y="251.966" transform="matrix(-0.9401 -0.341 0.341 -0.9401 293.0251 557.4916)" style="fill:#CEE2F2;" width="30.795" height="2.053"/>
		
			<rect x="175.937" y="263.554" transform="matrix(-0.94 -0.3412 0.3412 -0.94 280.9173 578.5542)" style="fill:#CEE2F2;" width="30.797" height="2.04"/>
		
			<rect x="205.091" y="172.232" transform="matrix(-0.9401 -0.341 0.341 -0.9401 364.9541 432.5539)" style="fill:#CEE2F2;" width="30.798" height="23.944"/>
		
			<rect x="169.8" y="275.477" transform="matrix(-0.94 -0.3411 0.3411 -0.94 263.2537 609.217)" style="fill:#CEE2F2;" width="30.77" height="11.975"/>
	</g>
	<rect x="260.864" y="149.99" style="fill:#0575A5;" width="61.568" height="219.878"/>
	<circle style="fill:#FFFFFF;" cx="291.661" cy="335.258" r="16.125"/>
	<circle style="fill:#283A4D;" cx="291.661" cy="335.258" r="13.192"/>
	<path style="fill:#FFFFFF;" d="M312.169,297.743c0,1.623-1.321,2.934-2.934,2.934h-35.172c-1.615,0-2.934-1.313-2.934-2.934
		V166.799c0-1.603,1.321-2.934,2.934-2.934h35.172c1.615,0,2.934,1.331,2.934,2.934V297.743z"/>
	<g>
		<rect x="276.275" y="206.464" style="fill:#CEE2F2;" width="30.771" height="2.051"/>
		<rect x="276.275" y="218.752" style="fill:#CEE2F2;" width="30.771" height="2.051"/>
		<rect x="276.275" y="231.091" style="fill:#CEE2F2;" width="30.771" height="2.051"/>
		<rect x="276.275" y="243.379" style="fill:#CEE2F2;" width="30.771" height="2.051"/>
		<rect x="276.275" y="255.693" style="fill:#CEE2F2;" width="30.771" height="2.048"/>
		<rect x="276.275" y="268.006" style="fill:#CEE2F2;" width="30.771" height="2.048"/>
		<rect x="276.275" y="171.571" style="fill:#CEE2F2;" width="30.771" height="23.946"/>
		<rect x="276.275" y="281.011" style="fill:#CEE2F2;" width="30.771" height="11.96"/>
	</g>
	<rect x="322.432" y="149.99" style="fill:#C1D354;" width="61.568" height="219.878"/>
	<circle style="fill:#FFFFFF;" cx="353.229" cy="335.258" r="16.123"/>
	<circle style="fill:#283A4D;" cx="353.203" cy="335.258" r="13.197"/>
	<path style="fill:#FFFFFF;" d="M373.734,297.743c0,1.623-1.313,2.934-2.929,2.934h-35.187c-1.608,0-2.921-1.313-2.921-2.934
		V166.799c0-1.603,1.313-2.934,2.921-2.934h35.187c1.615,0,2.929,1.331,2.929,2.934V297.743z"/>
	<g>
		<rect x="337.818" y="206.464" style="fill:#CEE2F2;" width="30.797" height="2.051"/>
		<rect x="337.818" y="218.752" style="fill:#CEE2F2;" width="30.797" height="2.051"/>
		<rect x="337.818" y="231.091" style="fill:#CEE2F2;" width="30.797" height="2.051"/>
		<rect x="337.818" y="243.379" style="fill:#CEE2F2;" width="30.797" height="2.051"/>
		<rect x="337.818" y="255.693" style="fill:#CEE2F2;" width="30.797" height="2.048"/>
		<rect x="337.818" y="268.006" style="fill:#CEE2F2;" width="30.797" height="2.048"/>
		<rect x="337.818" y="171.571" style="fill:#CEE2F2;" width="30.797" height="23.946"/>
		<rect x="337.818" y="281.011" style="fill:#CEE2F2;" width="30.797" height="11.96"/>
	</g>
	<path style="fill:#04689D;" d="M312.166,214.477v83.277c0,1.615-1.308,2.921-2.944,2.921h-35.149c-1.638,0-2.941-1.306-2.941-2.921
		V173.44l-10.266-10.266v206.666h61.568V224.742L312.166,214.477z M291.661,351.386c-8.906,0-16.128-7.217-16.128-16.128
		c0-8.883,7.219-16.128,16.128-16.128s16.102,7.245,16.102,16.128C307.763,344.166,300.57,351.386,291.661,351.386z"/>
	<path style="fill:#CEE2F2;" d="M306.202,208.512h-29.926v-2.048h27.878l-10.954-10.957h-16.922v-16.922l-5.146-5.146v124.314
		c0,1.615,1.306,2.921,2.941,2.921h35.149c1.638,0,2.944-1.306,2.944-2.921v-83.277L306.202,208.512z M307.046,292.966h-30.771
		v-11.958h30.774v11.958H307.046z M307.046,270.054h-30.771v-2.048h30.774v2.048H307.046z M307.046,257.741h-30.771v-2.048h30.774
		v2.048H307.046z M307.046,245.427h-30.771v-2.048h30.774v2.048H307.046z M307.046,233.139h-30.771v-2.048h30.774v2.048H307.046z
		 M307.046,220.826h-30.771v-2.074h30.774v2.074H307.046z"/>
	<g>
		<polygon style="fill:#A6C8E7;" points="293.197,195.507 276.275,195.507 276.275,178.586 		"/>
		<polygon style="fill:#A6C8E7;" points="306.202,208.512 276.275,208.512 276.275,206.464 304.154,206.464 		"/>
		<rect x="276.275" y="218.752" style="fill:#A6C8E7;" width="30.771" height="2.074"/>
		<rect x="276.275" y="231.091" style="fill:#A6C8E7;" width="30.771" height="2.048"/>
		<rect x="276.275" y="243.379" style="fill:#A6C8E7;" width="30.771" height="2.048"/>
		<rect x="276.275" y="255.693" style="fill:#A6C8E7;" width="30.771" height="2.048"/>
		<rect x="276.275" y="268.006" style="fill:#A6C8E7;" width="30.771" height="2.048"/>
		<rect x="276.275" y="281.011" style="fill:#A6C8E7;" width="30.771" height="11.958"/>
	</g>
	<path style="fill:#9CBB50;" d="M373.734,276.019v21.732c0,1.615-1.306,2.921-2.921,2.921h-35.197c-1.613,0-2.918-1.306-2.918-2.921
		v-62.769l-10.266-10.24v145.101H384v-83.558L373.734,276.019z M353.229,351.386c-8.909,0-16.131-7.217-16.131-16.128
		c0-8.883,7.219-16.128,16.131-16.128c8.883,0,16.1,7.245,16.1,16.128C369.331,344.166,362.112,351.386,353.229,351.386z"/>
	<path style="fill:#CEE2F2;" d="M367.77,270.054h-29.952v-2.048h27.904l-10.268-10.266h-17.638v-2.048h15.59l-10.266-10.266h-5.325
		v-2.048h3.277l-8.397-8.397v62.771c0,1.615,1.306,2.921,2.918,2.921h35.2c1.615,0,2.921-1.306,2.921-2.921v-21.732L367.77,270.054z
		 M368.614,292.966h-30.797v-11.958h30.797V292.966z"/>
	<g>
		<polygon style="fill:#A6C8E7;" points="343.142,245.427 337.818,245.427 337.818,243.379 341.094,243.379 		"/>
		<polygon style="fill:#A6C8E7;" points="355.456,257.741 337.818,257.741 337.818,255.693 353.408,255.693 		"/>
		<polygon style="fill:#A6C8E7;" points="367.77,270.054 337.818,270.054 337.818,268.006 365.722,268.006 		"/>
		<rect x="337.818" y="281.011" style="fill:#A6C8E7;" width="30.797" height="11.958"/>
	</g>
</g>
<g>
</g>
<g>
</g>
<g>
</g>
<g>
</g>
<g>
</g>
<g>
</g>
<g>
</g>
<g>
</g>
<g>
</g>
<g>
</g>
<g>
</g>
<g>
</g>
<g>
</g>
<g>
</g>
<g>
</g>
</svg>
