<?xml version="1.0" encoding="UTF-8" standalone="no"?>
<!-- Created with Inkscape (http://www.inkscape.org/) -->

<svg
   xmlns:dc="http://purl.org/dc/elements/1.1/"
   xmlns:cc="http://creativecommons.org/ns#"
   xmlns:rdf="http://www.w3.org/1999/02/22-rdf-syntax-ns#"
   xmlns:svg="http://www.w3.org/2000/svg"
   xmlns="http://www.w3.org/2000/svg"
   xmlns:sodipodi="http://sodipodi.sourceforge.net/DTD/sodipodi-0.dtd"
   xmlns:inkscape="http://www.inkscape.org/namespaces/inkscape"
   width="10.086mm"
   height="9.8640003mm"
   viewBox="0 0 10.086 9.8640003"
   version="1.1"
   id="svg9712"
   inkscape:version="0.92.2 (5c3e80d, 2017-08-06)"
   sodipodi:docname="gCloudIconWhite.svg">
  <defs
     id="defs9706" />
  <sodipodi:namedview
     id="base"
     pagecolor="#ffffff"
     bordercolor="#666666"
     borderopacity="1.0"
     inkscape:pageopacity="0.0"
     inkscape:pageshadow="2"
     inkscape:zoom="1.979899"
     inkscape:cx="56.603397"
     inkscape:cy="57.670198"
     inkscape:document-units="mm"
     inkscape:current-layer="layer1"
     showgrid="false"
     inkscape:window-width="1366"
     inkscape:window-height="704"
     inkscape:window-x="0"
     inkscape:window-y="27"
     inkscape:window-maximized="1" />
  <metadata
     id="metadata9709">
    <rdf:RDF>
      <cc:Work
         rdf:about="">
        <dc:format>image/svg+xml</dc:format>
        <dc:type
           rdf:resource="http://purl.org/dc/dcmitype/StillImage" />
        <dc:title></dc:title>
      </cc:Work>
    </rdf:RDF>
  </metadata>
  <g
     inkscape:label="Layer 1"
     inkscape:groupmode="layer"
     id="layer1"
     transform="translate(0,-287.136)">
    <path
       style="fill:#ffffff;fill-opacity:1;stroke-width:0.04687944"
       d="m 2.732476,296.39864 c -0.1042,-0.0474 -0.24334,-0.15009 -0.30919,-0.22835 -0.0932,-0.11072 -1.87857001,-3.23122 -2.14938001,-3.75669 -0.0347,-0.0675 -0.0499,-0.22563 -0.0383,-0.39847 0.0169,-0.25073 0.0584,-0.35416 0.33077,-0.82574 0.17126,-0.29651 0.33887,-0.57593 0.37244,-0.62091 0.0538,-0.072 0.20918001,0.17505 1.30336001,2.07228 l 1.2423,2.15409 1.32435,0.003 c 0.72839,0.001 1.32433,0.0138 1.32433,0.0281 0,0.0142 -0.21398,0.39399 -0.47552,0.84384 l -0.47554,0.81789 -1.13009,-0.001 c -0.99492,-9e-4 -1.15275,-0.012 -1.31954,-0.0872 z m 3.03072,-0.0174 c 0.0551,-0.10513 2.36185,-4.12061 2.444,-4.25432 0.0318,-0.0518 -0.13121,-0.37345 -0.61782,-1.21886 l -0.66101,-1.14855 0.87843,-0.0133 c 0.48313,-0.007 0.90172,-0.004 0.93022,0.007 0.0285,0.0106 0.29983,0.4671 0.60303,1.01369 0.69903,1.26029 0.70362,1.28438 0.36603,1.92268 -0.61963,1.17148 -1.88978,3.36919 -2.03228,3.51639 -0.22673,0.23418 -0.43255,0.28015 -1.25471,0.28015 h -0.71113 z m -2.05456,-2.06271 c -0.0892,-0.11564 -1.2789,-2.22726 -1.27764,-2.2676 7.09e-4,-0.0226 0.29163,-0.54751 0.64647,-1.16632 l 0.64519,-1.1251 1.34108,-0.012 1.34111,-0.012 0.6611,1.14168 c 0.36363,0.62792 0.66114,1.15895 0.66114,1.18004 0,0.0212 -0.2977,0.55192 -0.66153,1.17957 l -0.66152,1.1412 h -1.32513 c -1.00474,0 -1.33602,-0.0142 -1.37027,-0.0585 z m 1.93699,-1.37384 c 0.68028,-0.42059 0.63774,-1.44113 -0.0757,-1.81598 -0.73298,-0.38513 -1.58732,0.16053 -1.53679,0.98153 0.0504,0.81945 0.91398,1.26631 1.61251,0.83445 z m -3.94023,-2.1287 -0.45606,-0.80501 0.53158,-0.96451 c 0.57117,-1.03635 0.75393,-1.27266 1.05383,-1.36251 0.26202,-0.0785 4.21444,-0.0817 4.47505,-0.004 0.29312,0.0878 0.44395,0.26199 0.83639,0.96582 l 0.37247,0.66803 -2.51709,1.9e-4 -2.51708,1.7e-4 -0.43289,0.76154 c -0.23807,0.41885 -0.53576,0.93778 -0.66152,1.15318 l -0.22864,0.39163 z"
       id="path14098-4-3"
       inkscape:connector-curvature="0" />
  </g>
</svg>
