<?xml version="1.0" encoding="UTF-8" standalone="no"?>
<!-- Created with Inkscape (http://www.inkscape.org/) -->

<svg
   xmlns:dc="http://purl.org/dc/elements/1.1/"
   xmlns:cc="http://creativecommons.org/ns#"
   xmlns:rdf="http://www.w3.org/1999/02/22-rdf-syntax-ns#"
   xmlns:svg="http://www.w3.org/2000/svg"
   xmlns="http://www.w3.org/2000/svg"
   xmlns:sodipodi="http://sodipodi.sourceforge.net/DTD/sodipodi-0.dtd"
   xmlns:inkscape="http://www.inkscape.org/namespaces/inkscape"
   width="7.5mm"
   height="8mm"
   viewBox="0 0 7.5 8"
   version="1.1"
   id="svg4802"
   inkscape:version="0.92.2 (5c3e80d, 2017-08-06)"
   sodipodi:docname="goIconWhite.svg">
  <defs
     id="defs4796" />
  <sodipodi:namedview
     id="base"
     pagecolor="#ffffff"
     bordercolor="#666666"
     borderopacity="1.0"
     inkscape:pageopacity="0.0"
     inkscape:pageshadow="2"
     inkscape:zoom="1"
     inkscape:cx="-313"
     inkscape:cy="148.58661"
     inkscape:document-units="mm"
     inkscape:current-layer="layer1"
     showgrid="false"
     inkscape:window-width="1366"
     inkscape:window-height="704"
     inkscape:window-x="0"
     inkscape:window-y="27"
     inkscape:window-maximized="1" />
  <metadata
     id="metadata4799">
    <rdf:RDF>
      <cc:Work
         rdf:about="">
        <dc:format>image/svg+xml</dc:format>
        <dc:type
           rdf:resource="http://purl.org/dc/dcmitype/StillImage" />
        <dc:title></dc:title>
      </cc:Work>
    </rdf:RDF>
  </metadata>
  <g
     inkscape:label="Layer 1"
     inkscape:groupmode="layer"
     id="layer1"
     transform="translate(0,-289)">
    <path
       sodipodi:nodetypes="ccccccccccccccccccscccccsscccssscccsccccccsscssccssccccccsscccccccccccccssccscsscscccscccssscccccsc"
       inkscape:connector-curvature="0"
       id="path8487"
       d="m 2.156068,296.30857 c -0.0861,-0.0861 -0.0711,-0.25596 0.0306,-0.34805 0.11672,-0.10564 0.18289,-0.10171 0.35532,0.0211 l 0.14281,0.10169 -0.17852,0.14187 c -0.19589,0.15567 -0.2622,0.17147 -0.35024,0.0834 z m 3.23527,-0.13057 -0.13442,-0.1403 0.15229,-0.10844 c 0.14517,-0.10338 0.15665,-0.10449 0.24585,-0.0238 0.1263,0.1143 0.16535,0.25624 0.0941,0.34208 -0.0898,0.10827 -0.20978,0.0849 -0.35783,-0.0696 z m -2.26957,-0.0325 c -0.35789,-0.0998 -0.63845,-0.27097 -0.85067,-0.5189 -0.31362,-0.36639 -0.40645,-0.89821 -0.32142,-1.8414 0.0416,-0.46132 0.0406,-0.82145 -0.004,-1.48575 -0.0529,-0.78642 -0.0504,-0.91509 0.024,-1.24775 0.18973,-0.84806 0.72478,-1.25187 1.77404,-1.3389 0.96146,-0.0797 1.69336,0.22767 1.97869,0.83108 0.17984,0.38033 0.30686,1.9502 0.29182,3.60667 -0.01,1.0842 -0.3182,1.62788 -1.09715,1.93451 -0.34987,0.13772 -1.39237,0.17282 -1.79524,0.0604 z m 0.73429,-4.30029 c 0.0174,-0.0851 0.0143,-0.15468 -0.007,-0.15468 -0.11085,0 -0.19268,0.0712 -0.19268,0.16759 0,0.23109 0.15173,0.22128 0.19963,-0.0129 z m 0.2936,0.1376 c 0.003,-0.0268 0.006,-0.0816 0.006,-0.12178 0,-0.14831 -0.0143,-0.1705 -0.1096,-0.1705 -0.0745,0 -0.0974,0.0325 -0.0974,0.13802 0,0.0759 0.0146,0.15264 0.0325,0.1705 0.0495,0.0495 0.1616,0.0387 0.16846,-0.0162 z m 0.28619,-0.44847 c 0,-0.0304 -0.0344,-0.0933 -0.0764,-0.1398 -0.0678,-0.0749 -0.0912,-0.0767 -0.20703,-0.0163 -0.17046,0.0889 -0.35093,0.0869 -0.48279,-0.005 -0.0977,-0.0684 -0.11022,-0.0662 -0.16073,0.0282 -0.10235,0.19124 -0.0263,0.25559 0.25969,0.21986 0.14139,-0.0177 0.31101,-0.0118 0.37693,0.0131 0.12995,0.049 0.29036,-0.006 0.29036,-0.0995 z m -0.29228,-0.25787 c 0.14461,-0.17424 -0.24398,-0.30926 -0.41058,-0.14266 -0.0421,0.0421 -0.0765,0.0951 -0.0765,0.11772 0,0.10964 0.39985,0.13011 0.48713,0.0249 z m -0.69552,-0.11454 c 0.16763,-0.0897 0.2571,-0.25575 0.2571,-0.47712 0,-0.53526 -0.66848,-0.76891 -1.07784,-0.37672 -0.1666,0.15961 -0.21395,0.35457 -0.14032,0.57768 0.11919,0.36114 0.56364,0.48885 0.96106,0.27616 z m -0.81579,-0.32532 c -0.0473,-0.057 -0.0489,-0.10284 -0.007,-0.19486 0.0629,-0.13813 0.16234,-0.1541 0.27265,-0.0438 0.0971,0.0971 0.0992,0.18614 0.003,0.1494 -0.0402,-0.0154 -0.0731,-0.007 -0.0731,0.0192 0,0.0259 0.0232,0.0472 0.0516,0.0472 0.0284,0 0.038,0.0219 0.0215,0.0487 -0.0453,0.0733 -0.19913,0.0585 -0.26913,-0.0258 z m 2.37286,0.27179 c 0.21468,-0.1309 0.27413,-0.2648 0.24627,-0.55469 -0.0255,-0.26522 -0.16724,-0.44064 -0.40411,-0.50009 -0.33383,-0.0838 -0.76963,0.18867 -0.82658,0.51676 -0.0344,0.19799 0.11681,0.4683 0.31919,0.5707 0.17835,0.0902 0.48862,0.075 0.66523,-0.0327 z m -0.81284,-0.34342 c -0.037,-0.0692 -0.037,-0.12563 0,-0.19485 0.0663,-0.12398 0.225,-0.12573 0.29057,-0.003 0.0682,0.12738 0.0636,0.15134 -0.0226,0.11825 -0.0402,-0.0154 -0.0731,-0.004 -0.0731,0.0259 0,0.0297 0.0232,0.0539 0.0516,0.0539 0.0284,0 0.038,0.0219 0.0215,0.0487 -0.0513,0.0831 -0.21315,0.0536 -0.26793,-0.0487 z m -2.65778,2.52394 c -0.0248,-0.0781 -0.005,-0.13016 0.0752,-0.19486 0.17149,-0.13886 0.29307,-0.11557 0.29307,0.0562 0,0.23024 -0.30298,0.34435 -0.36826,0.1387 z m 4.64285,0.073 c -0.0627,-0.0164 -0.0852,-0.0722 -0.0852,-0.21103 0,-0.18741 9.26e-4,-0.18839 0.14224,-0.13916 0.16683,0.0582 0.21828,0.15883 0.14815,0.28987 -0.0515,0.0963 -0.0591,0.0985 -0.20514,0.0603 z m -0.30822,-2.68219 c -0.0213,-0.0737 -0.0401,-0.18677 -0.0418,-0.2513 -0.002,-0.0773 -0.0519,-0.14452 -0.14591,-0.19696 -0.18945,-0.10563 -0.20905,-0.1865 -0.0546,-0.22527 0.25906,-0.065 0.56272,0.18186 0.56272,0.45751 0,0.0984 -0.17386,0.34998 -0.24182,0.34998 -0.0219,0 -0.0573,-0.0603 -0.0786,-0.13396 z m -4.08539,-0.023 c -0.21713,-0.30999 0.1151,-0.73324 0.50784,-0.64698 0.12395,0.0272 0.14121,0.0459 0.0944,0.10234 -0.0315,0.038 -0.11449,0.0964 -0.18441,0.12994 -0.0699,0.0335 -0.1341,0.10461 -0.14263,0.15799 -0.025,0.1566 -0.11598,0.36498 -0.15933,0.36498 -0.022,0 -0.0742,-0.0487 -0.11587,-0.10827 z"
       style="fill:#ffffff;fill-opacity:1;stroke-width:0.0487133" />
  </g>
</svg>
