<?xml version="1.0" encoding="UTF-8" standalone="no"?>
<!-- Created with Inkscape (http://www.inkscape.org/) -->

<svg
   xmlns:dc="http://purl.org/dc/elements/1.1/"
   xmlns:cc="http://creativecommons.org/ns#"
   xmlns:rdf="http://www.w3.org/1999/02/22-rdf-syntax-ns#"
   xmlns:svg="http://www.w3.org/2000/svg"
   xmlns="http://www.w3.org/2000/svg"
   xmlns:sodipodi="http://sodipodi.sourceforge.net/DTD/sodipodi-0.dtd"
   xmlns:inkscape="http://www.inkscape.org/namespaces/inkscape"
   width="140.707mm"
   height="77.578003mm"
   viewBox="0 0 140.707 77.578003"
   version="1.1"
   id="svg3203"
   inkscape:version="0.92.2 (5c3e80d, 2017-08-06)"
   sodipodi:docname="google plus.svg">
  <defs
     id="defs3197" />
  <sodipodi:namedview
     id="base"
     pagecolor="#ffffff"
     bordercolor="#666666"
     borderopacity="1.0"
     inkscape:pageopacity="0.0"
     inkscape:pageshadow="2"
     inkscape:zoom="0.175"
     inkscape:cx="379.98207"
     inkscape:cy="494.04535"
     inkscape:document-units="mm"
     inkscape:current-layer="layer1"
     showgrid="false"
     inkscape:window-width="1366"
     inkscape:window-height="704"
     inkscape:window-x="0"
     inkscape:window-y="27"
     inkscape:window-maximized="1" />
  <metadata
     id="metadata3200">
    <rdf:RDF>
      <cc:Work
         rdf:about="">
        <dc:format>image/svg+xml</dc:format>
        <dc:type
           rdf:resource="http://purl.org/dc/dcmitype/StillImage" />
        <dc:title></dc:title>
      </cc:Work>
    </rdf:RDF>
  </metadata>
  <g
     inkscape:label="Layer 1"
     inkscape:groupmode="layer"
     id="layer1"
     transform="translate(0,-219.422)">
    <g
       transform="translate(-809.87477,1.8359756)"
       id="g3166">
      <g
         style="fill:#ffffff"
         id="g3122"
         transform="matrix(0.26458333,0,0,0.26458333,809.87468,195.75285)">
        <g
           style="fill:#ffffff"
           id="g3065">
          <path
             id="path3061"
             d="m 160.777,259.368 h 71.594 c -12.567,35.53 -46.603,61.004 -86.45,60.71 -48.349,-0.357 -88.327,-39.035 -90.204,-87.349 -2.012,-51.789 39.537,-94.563 90.887,-94.563 23.479,0 44.905,8.946 61.058,23.605 3.826,3.473 9.65,3.495 13.413,-0.047 l 26.296,-24.749 c 4.112,-3.871 4.127,-10.408 0.027,-14.292 C 221.781,98.414 187.417,83.287 149.522,82.547 68.696,80.969 0.567,147.238 0.004,228.078 c -0.568,81.447 65.285,147.649 146.6,147.649 78.199,0 142.081,-61.229 146.36,-138.358 0.114,-0.967 0.189,-33.648 0.189,-33.648 H 160.777 c -5.426,0 -9.824,4.398 -9.824,9.824 v 35.999 c 0,5.426 4.399,9.824 9.824,9.824 z"
             style="fill:#ffffff"
             inkscape:connector-curvature="0" />
          <path
             id="path3063"
             d="m 414.464,206.99 v -35.173 c 0,-4.755 -3.854,-8.609 -8.609,-8.609 h -29.604 c -4.755,0 -8.609,3.854 -8.609,8.609 v 35.173 h -35.173 c -4.755,0 -8.609,3.854 -8.609,8.609 v 29.604 c 0,4.755 3.854,8.609 8.609,8.609 h 35.173 v 35.173 c 0,4.755 3.854,8.609 8.609,8.609 h 29.604 c 4.755,0 8.609,-3.854 8.609,-8.609 v -35.173 h 35.173 c 4.755,0 8.609,-3.854 8.609,-8.609 v -29.604 c 0,-4.755 -3.854,-8.609 -8.609,-8.609 z"
             style="fill:#ffffff"
             inkscape:connector-curvature="0" />
        </g>
        <g
           style="fill:#ffffff"
           id="g3067" />
        <g
           style="fill:#ffffff"
           id="g3069" />
        <g
           style="fill:#ffffff"
           id="g3071" />
        <g
           style="fill:#ffffff"
           id="g3073" />
        <g
           style="fill:#ffffff"
           id="g3075" />
        <g
           style="fill:#ffffff"
           id="g3077" />
        <g
           style="fill:#ffffff"
           id="g3079" />
        <g
           style="fill:#ffffff"
           id="g3081" />
        <g
           style="fill:#ffffff"
           id="g3083" />
        <g
           style="fill:#ffffff"
           id="g3085" />
        <g
           style="fill:#ffffff"
           id="g3087" />
        <g
           style="fill:#ffffff"
           id="g3089" />
        <g
           style="fill:#ffffff"
           id="g3091" />
        <g
           style="fill:#ffffff"
           id="g3093" />
        <g
           style="fill:#ffffff"
           id="g3095" />
      </g>
      <rect
         style="opacity:1;fill:#ffffff;fill-opacity:1;stroke:none;stroke-width:0.07643063;stroke-miterlimit:4;stroke-dasharray:none;stroke-opacity:0.94117647"
         id="rect3124"
         width="2.7329378"
         height="77.577995"
         x="947.849"
         y="217.58603"
         ry="0" />
    </g>
  </g>
</svg>
