<?xml version="1.0" encoding="UTF-8" standalone="no"?>
<!-- Created with Inkscape (http://www.inkscape.org/) -->

<svg
   xmlns:dc="http://purl.org/dc/elements/1.1/"
   xmlns:cc="http://creativecommons.org/ns#"
   xmlns:rdf="http://www.w3.org/1999/02/22-rdf-syntax-ns#"
   xmlns:svg="http://www.w3.org/2000/svg"
   xmlns="http://www.w3.org/2000/svg"
   xmlns:sodipodi="http://sodipodi.sourceforge.net/DTD/sodipodi-0.dtd"
   xmlns:inkscape="http://www.inkscape.org/namespaces/inkscape"
   width="10.5mm"
   height="8mm"
   viewBox="0 0 10.5 8"
   version="1.1"
   id="svg4802"
   inkscape:version="0.92.2 (5c3e80d, 2017-08-06)"
   sodipodi:docname="haskellIcon.svg">
  <defs
     id="defs4796" />
  <sodipodi:namedview
     id="base"
     pagecolor="#ffffff"
     bordercolor="#666666"
     borderopacity="1.0"
     inkscape:pageopacity="0.0"
     inkscape:pageshadow="2"
     inkscape:zoom="1"
     inkscape:cx="-110"
     inkscape:cy="148.58661"
     inkscape:document-units="mm"
     inkscape:current-layer="layer1"
     showgrid="false"
     inkscape:window-width="1366"
     inkscape:window-height="704"
     inkscape:window-x="0"
     inkscape:window-y="27"
     inkscape:window-maximized="1" />
  <metadata
     id="metadata4799">
    <rdf:RDF>
      <cc:Work
         rdf:about="">
        <dc:format>image/svg+xml</dc:format>
        <dc:type
           rdf:resource="http://purl.org/dc/dcmitype/StillImage" />
        <dc:title></dc:title>
      </cc:Work>
    </rdf:RDF>
  </metadata>
  <g
     inkscape:label="Layer 1"
     inkscape:groupmode="layer"
     id="layer1"
     transform="translate(0,-289)">
    <path
       inkscape:connector-curvature="0"
       id="path8653"
       d="m 1.11116,294.80533 1.11117,-1.6655 -1.11117,-1.6655 L 0,289.80883 l 0.83316003,0.004 0.83316997,0.004 1.09672,1.66128 1.09672,1.66128 -1.09672,1.66127 -1.09672,1.66128 -0.83316997,0.004 L 0,296.46994 Z m 2.22067,0 1.11116,-1.6655 -1.11116,-1.6655 -1.11116,-1.6655 H 3.0404 3.86014 l 2.22109,3.331 2.22108,3.331 H 7.48323 6.66415 l -0.68867,-1.03102 c -0.37877,-0.56707 -0.69997,-1.03103 -0.71379,-1.03103 -0.0138,0 -0.33502,0.46396 -0.71378,1.03103 l -0.68867,1.03102 H 3.03995 2.22067 Z m 3.91191,-0.76768 c -0.17636,-0.26229 -0.33417,-0.51211 -0.35069,-0.55517 -0.026,-0.0678 0.14072,-0.0783 1.24457,-0.0783 h 1.27461 v 0.55517 0.55517 H 8.48831 7.5644 Z m -1.12685,-1.69262 c -0.1941,-0.29173 -0.3529,-0.54156 -0.3529,-0.55516 0,-0.0136 0.82085,-0.0247 1.82412,-0.0247 h 1.82412 v 0.55517 0.55516 H 7.94101 6.46979 Z"
       style="fill:#8bc34a;fill-opacity:1;stroke-width:0.05287301" />
  </g>
</svg>
