<?xml version="1.0" encoding="UTF-8" standalone="no"?>
<!-- Created with Inkscape (http://www.inkscape.org/) -->

<svg
   xmlns:dc="http://purl.org/dc/elements/1.1/"
   xmlns:cc="http://creativecommons.org/ns#"
   xmlns:rdf="http://www.w3.org/1999/02/22-rdf-syntax-ns#"
   xmlns:svg="http://www.w3.org/2000/svg"
   xmlns="http://www.w3.org/2000/svg"
   xmlns:sodipodi="http://sodipodi.sourceforge.net/DTD/sodipodi-0.dtd"
   xmlns:inkscape="http://www.inkscape.org/namespaces/inkscape"
   width="15.419mm"
   height="14.328mm"
   viewBox="0 0 15.419 14.328"
   version="1.1"
   id="svg1954"
   inkscape:version="0.92.2 (5c3e80d, 2017-08-06)"
   sodipodi:docname="IntegrationImage.svg">
  <defs
     id="defs1948">
    <clipPath
       clipPathUnits="userSpaceOnUse"
       id="clipPath1732-4-1-2">
      <circle
         style="opacity:0.67900002;fill:#333333;fill-opacity:1;stroke:none;stroke-width:2.17707753;stroke-miterlimit:4;stroke-dasharray:none;stroke-opacity:1"
         id="circle1734-9-5-3"
         cx="232.08441"
         cy="38.650665"
         r="36" />
    </clipPath>
  </defs>
  <sodipodi:namedview
     id="base"
     pagecolor="#ffffff"
     bordercolor="#666666"
     borderopacity="1.0"
     inkscape:pageopacity="0.0"
     inkscape:pageshadow="2"
     inkscape:zoom="1.979899"
     inkscape:cx="135.39194"
     inkscape:cy="95.125002"
     inkscape:document-units="mm"
     inkscape:current-layer="layer1"
     showgrid="false"
     inkscape:window-width="1366"
     inkscape:window-height="704"
     inkscape:window-x="0"
     inkscape:window-y="27"
     inkscape:window-maximized="1" />
  <metadata
     id="metadata1951">
    <rdf:RDF>
      <cc:Work
         rdf:about="">
        <dc:format>image/svg+xml</dc:format>
        <dc:type
           rdf:resource="http://purl.org/dc/dcmitype/StillImage" />
        <dc:title></dc:title>
      </cc:Work>
    </rdf:RDF>
  </metadata>
  <g
     inkscape:label="Layer 1"
     inkscape:groupmode="layer"
     id="layer1"
     transform="translate(0,-282.672)">
    <g
       style="fill:#8bc34a;fill-opacity:1"
       transform="matrix(0.21940747,0,0,0.21940747,-12.347828,268.77016)"
       id="g2249-0-3-4"
       inkscape:export-xdpi="96"
       inkscape:export-ydpi="96">
      <g
         style="fill:#8bc34a;fill-opacity:1"
         id="g2191-7-2-3">
        <g
           style="fill:#8bc34a;fill-opacity:1"
           id="g2189-3-0-5">
          <path
             inkscape:connector-curvature="0"
             style="fill:#8bc34a;fill-opacity:1;stroke-width:0.33052975"
             d="m 115.62262,86.316905 v -2.3765 l 8.7868,-0.40821 v -4.4086 l -8.7868,-0.40821 v -1.82882 h -6.87039 v -8.06393 c 0,-1.8275 -1.48705,-3.31588 -3.31224,-3.31588 H 77.656653 c -1.827499,0 -3.314553,1.48805 -3.314553,3.31588 v 8.06393 h -6.867747 v 1.82882 l -8.784489,0.40821 v 4.4086 l 8.784489,0.40821 v 2.3765 h 6.868078 v 5.12322 h -6.868078 v 1.82518 l -8.784489,0.4092 v 4.40629 l 8.784489,0.41052 v 2.376515 h 6.868078 v 5.67222 h -6.868078 v 1.82882 l -8.784489,0.40919 v 4.40762 l 8.784489,0.40919 v 2.37651 h 6.868078 v 6.96856 c 0,1.82882 1.487053,3.31224 3.314552,3.31224 h 27.783007 c 1.82519,0 3.31224,-1.48342 3.31224,-3.31224 v -6.96856 h 6.87039 v -2.37651 l 8.7868,-0.40919 v -4.40762 l -8.7868,-0.40919 v -1.82882 h -6.87039 v -5.67222 h 6.87039 v -2.376515 l 8.7868,-0.41052 v -4.40629 l -8.7868,-0.4092 v -1.82518 h -6.87039 v -5.12322 c 0,0 6.87039,0 6.87039,0 z m 7.04425,24.122075 v 1.08116 l -8.7868,0.40919 v 2.29619 h -4.8535 v -5.94424 h 4.8535 v 1.74949 z m -8.7868,-13.604945 v 2.29256 h -4.8535 v -5.94524 h 4.8535 v 1.75081 l 8.7868,0.4092 v 1.0848 z m 8.7868,-16.04623 v 1.08249 l -8.7868,0.40919 v 2.29487 h -4.8535 v -5.94656 h 4.8535 v 1.7495 z M 105.43999,124.50731 H 77.656653 c -0.86698,0 -1.572,-0.70502 -1.572,-1.56968 V 68.822635 c 0,-0.8693 0.70502,-1.57432 1.572,-1.57432 h 27.783007 c 0.86467,0 1.56969,0.70502 1.56969,1.57432 v 54.114995 c 3.3e-4,0.86466 -0.7037,1.56968 -1.56936,1.56968 z M 60.429772,111.52014 v -1.08116 l 8.786803,-0.4092 v -1.74949 h 4.854821 v 5.94424 h -4.854821 v -2.29619 z m 0,-15.096625 v -1.08447 l 8.786803,-0.40919 v -1.75082 h 4.854821 v 5.94524 h -4.854821 v -2.29255 z m 0,-14.55322 v -1.08249 l 8.786803,-0.40919 v -1.7495 h 4.854821 v 5.94656 h -4.854821 v -2.29486 z"
             id="path2185-1-8-0" />
        </g>
      </g>
      <g
         style="fill:#8bc34a;fill-opacity:1"
         id="g2193-0-2-5" />
      <g
         style="fill:#8bc34a;fill-opacity:1"
         id="g2195-1-9-0" />
      <g
         style="fill:#8bc34a;fill-opacity:1"
         id="g2197-8-8-8" />
      <g
         style="fill:#8bc34a;fill-opacity:1"
         id="g2199-1-9-8" />
      <g
         style="fill:#8bc34a;fill-opacity:1"
         id="g2201-4-3-7" />
      <g
         style="fill:#8bc34a;fill-opacity:1"
         id="g2203-2-2-3" />
      <g
         style="fill:#8bc34a;fill-opacity:1"
         id="g2205-4-6-7" />
      <g
         style="fill:#8bc34a;fill-opacity:1"
         id="g2207-8-5-5" />
      <g
         style="fill:#8bc34a;fill-opacity:1"
         id="g2209-3-0-7" />
      <g
         style="fill:#8bc34a;fill-opacity:1"
         id="g2211-3-9-4" />
      <g
         style="fill:#8bc34a;fill-opacity:1"
         id="g2213-4-8-1" />
      <g
         style="fill:#8bc34a;fill-opacity:1"
         id="g2215-2-6-3" />
      <g
         style="fill:#8bc34a;fill-opacity:1"
         id="g2217-2-5-7" />
      <g
         style="fill:#8bc34a;fill-opacity:1"
         id="g2219-0-9-0" />
      <g
         style="fill:#8bc34a;fill-opacity:1"
         id="g2221-0-5-8" />
    </g>
  </g>
</svg>
