<?xml version="1.0" encoding="UTF-8" standalone="no"?>
<!-- Created with Inkscape (http://www.inkscape.org/) -->

<svg
   xmlns:dc="http://purl.org/dc/elements/1.1/"
   xmlns:cc="http://creativecommons.org/ns#"
   xmlns:rdf="http://www.w3.org/1999/02/22-rdf-syntax-ns#"
   xmlns:svg="http://www.w3.org/2000/svg"
   xmlns="http://www.w3.org/2000/svg"
   xmlns:sodipodi="http://sodipodi.sourceforge.net/DTD/sodipodi-0.dtd"
   xmlns:inkscape="http://www.inkscape.org/namespaces/inkscape"
   width="8.4200001mm"
   height="9.8640003mm"
   viewBox="0 0 8.4199998 9.8640003"
   version="1.1"
   id="svg9712"
   inkscape:version="0.92.2 (5c3e80d, 2017-08-06)"
   sodipodi:docname="iosIcon.svg">
  <defs
     id="defs9706" />
  <sodipodi:namedview
     id="base"
     pagecolor="#ffffff"
     bordercolor="#666666"
     borderopacity="1.0"
     inkscape:pageopacity="0.0"
     inkscape:pageshadow="2"
     inkscape:zoom="1.979899"
     inkscape:cx="159.13388"
     inkscape:cy="57.670198"
     inkscape:document-units="mm"
     inkscape:current-layer="layer1"
     showgrid="false"
     inkscape:window-width="1366"
     inkscape:window-height="704"
     inkscape:window-x="0"
     inkscape:window-y="27"
     inkscape:window-maximized="1" />
  <metadata
     id="metadata9709">
    <rdf:RDF>
      <cc:Work
         rdf:about="">
        <dc:format>image/svg+xml</dc:format>
        <dc:type
           rdf:resource="http://purl.org/dc/dcmitype/StillImage" />
        <dc:title></dc:title>
      </cc:Work>
    </rdf:RDF>
  </metadata>
  <g
     inkscape:label="Layer 1"
     inkscape:groupmode="layer"
     id="layer1"
     transform="translate(0,-287.136)">
    <g
       id="g5335-3-5"
       transform="matrix(0.01865764,0,0,0.01865764,-0.19273474,287.60683)"
       style="fill:#8bc34a;fill-opacity:1">
      <g
         id="g5277-1-3"
         style="fill:#8bc34a;fill-opacity:1">
        <g
           id="g5275-92-5"
           style="fill:#8bc34a;fill-opacity:1">
          <path
             id="path5271-66-7"
             d="m 391.29,310.91 c -13.135,-18.842 -19.698,-40.07 -19.698,-63.666 0,-21.508 6.194,-41.213 18.556,-59.102 6.662,-9.707 17.514,-20.934 32.551,-33.689 -9.896,-12.178 -19.793,-21.695 -29.697,-28.549 -17.891,-12.37 -38.164,-18.555 -60.812,-18.555 -13.511,0 -29.979,3.234 -49.389,9.71 -18.654,6.471 -32.265,9.71 -40.826,9.71 -6.475,0 -19.606,-2.853 -39.401,-8.566 -19.985,-5.711 -36.831,-8.564 -50.535,-8.564 -32.738,0 -59.766,13.706 -81.083,41.112 -21.508,27.79 -32.264,63.382 -32.264,106.78 0,46.062 13.993,93.928 41.971,143.607 28.358,49.297 57.005,73.949 85.936,73.949 9.707,0 22.27,-3.237 37.685,-9.708 15.42,-6.276 28.933,-9.421 40.545,-9.421 12.368,0 26.741,3.045 43.109,9.133 17.319,6.085 30.646,9.131 39.971,9.131 24.362,0 48.824,-18.654 73.374,-55.959 15.985,-23.791 27.692,-47.582 35.115,-71.376 -16.94,-5.143 -31.974,-17.134 -45.108,-35.977 z"
             inkscape:connector-curvature="0"
             style="fill:#8bc34a;fill-opacity:1" />
          <path
             id="path5273-74-6"
             d="m 294.213,90.219 c 11.994,-11.991 20.844,-25.126 26.556,-39.399 5.517,-14.275 8.271,-27.22 8.271,-38.832 0,-0.759 -0.041,-1.712 -0.144,-2.855 C 328.81,7.991 328.759,7.042 328.759,6.28 328.567,5.708 328.331,4.661 328.047,3.14 327.763,1.619 327.526,0.572 327.331,0 c -33.499,7.808 -57.29,21.892 -71.376,42.259 -14.271,20.557 -21.698,45.013 -22.27,73.373 12.753,-1.143 22.646,-2.758 29.692,-4.853 10.286,-3.427 20.552,-10.282 30.836,-20.56 z"
             inkscape:connector-curvature="0"
             style="fill:#8bc34a;fill-opacity:1" />
        </g>
      </g>
      <g
         id="g5279-1-9"
         style="fill:#8bc34a;fill-opacity:1" />
      <g
         id="g5281-31-5"
         style="fill:#8bc34a;fill-opacity:1" />
      <g
         id="g5283-4-1"
         style="fill:#8bc34a;fill-opacity:1" />
      <g
         id="g5285-9-1"
         style="fill:#8bc34a;fill-opacity:1" />
      <g
         id="g5287-1-5"
         style="fill:#8bc34a;fill-opacity:1" />
      <g
         id="g5289-1-5"
         style="fill:#8bc34a;fill-opacity:1" />
      <g
         id="g5291-10-9"
         style="fill:#8bc34a;fill-opacity:1" />
      <g
         id="g5293-2-0"
         style="fill:#8bc34a;fill-opacity:1" />
      <g
         id="g5295-1-6"
         style="fill:#8bc34a;fill-opacity:1" />
      <g
         id="g5297-2-6"
         style="fill:#8bc34a;fill-opacity:1" />
      <g
         id="g5299-5-2"
         style="fill:#8bc34a;fill-opacity:1" />
      <g
         id="g5301-7-7"
         style="fill:#8bc34a;fill-opacity:1" />
      <g
         id="g5303-3-7"
         style="fill:#8bc34a;fill-opacity:1" />
      <g
         id="g5305-5-6"
         style="fill:#8bc34a;fill-opacity:1" />
      <g
         id="g5307-0-7"
         style="fill:#8bc34a;fill-opacity:1" />
    </g>
  </g>
</svg>
