<?xml version="1.0" encoding="UTF-8" standalone="no"?>
<!-- Created with Inkscape (http://www.inkscape.org/) -->

<svg
   xmlns:dc="http://purl.org/dc/elements/1.1/"
   xmlns:cc="http://creativecommons.org/ns#"
   xmlns:rdf="http://www.w3.org/1999/02/22-rdf-syntax-ns#"
   xmlns:svg="http://www.w3.org/2000/svg"
   xmlns="http://www.w3.org/2000/svg"
   xmlns:sodipodi="http://sodipodi.sourceforge.net/DTD/sodipodi-0.dtd"
   xmlns:inkscape="http://www.inkscape.org/namespaces/inkscape"
   width="14.235mm"
   height="14.235mm"
   viewBox="0 0 14.235 14.235"
   version="1.1"
   id="svg2764"
   inkscape:version="0.92.2 (5c3e80d, 2017-08-06)"
   sodipodi:docname="JD_Hustle.svg">
  <defs
     id="defs2758">
    <filter
       inkscape:collect="always"
       style="color-interpolation-filters:sRGB"
       id="filter10944-8-8"
       x="-0.035999976"
       width="1.072"
       y="-0.036000025"
       height="1.072">
      <feGaussianBlur
         inkscape:collect="always"
         stdDeviation="7.679997"
         id="feGaussianBlur10946-9-2" />
    </filter>
  </defs>
  <sodipodi:namedview
     id="base"
     pagecolor="#ffffff"
     bordercolor="#666666"
     borderopacity="1.0"
     inkscape:pageopacity="0.0"
     inkscape:pageshadow="2"
     inkscape:zoom="0.35"
     inkscape:cx="-234.28571"
     inkscape:cy="560"
     inkscape:document-units="mm"
     inkscape:current-layer="layer1"
     showgrid="false"
     inkscape:window-width="1366"
     inkscape:window-height="704"
     inkscape:window-x="0"
     inkscape:window-y="27"
     inkscape:window-maximized="1" />
  <metadata
     id="metadata2761">
    <rdf:RDF>
      <cc:Work
         rdf:about="">
        <dc:format>image/svg+xml</dc:format>
        <dc:type
           rdf:resource="http://purl.org/dc/dcmitype/StillImage" />
        <dc:title></dc:title>
      </cc:Work>
    </rdf:RDF>
  </metadata>
  <g
     inkscape:label="Layer 1"
     inkscape:groupmode="layer"
     id="layer1"
     transform="translate(0,-282.765)">
    <g
       transform="translate(943.21313,166.99004)"
       id="g12037-2-8"
       inkscape:export-xdpi="96"
       inkscape:export-ydpi="96">
      <g
         style="fill:#000000;fill-opacity:1;filter:url(#filter10944-8-8)"
         transform="matrix(0.02583824,0,0,0.02583824,-942.68396,116.30454)"
         id="g9516-9-3-1">
        <g
           style="fill:#000000;fill-opacity:1"
           id="g9527-6-7-7">
          <polygon
             id="polygon9437-1-2-5"
             points="73.119,344.219 167.78,438.881 242.391,390.203 121.796,269.608 "
             style="fill:#000000;fill-opacity:1" />
          <polygon
             id="polygon9439-7-6-3"
             points="291.571,375.745 296.246,486.95 381.641,401.555 403.094,264.221 247.778,108.905 110.445,130.358 25.05,215.753 136.255,220.429 "
             style="fill:#000000;fill-opacity:1" />
          <path
             id="path9441-1-5-8"
             d="M 504.825,7.176 C 413.031,-18.298 327.505,29.18 287.366,69.319 275.373,81.311 96.056,260.628 96.056,260.628 l 155.316,155.316 c 0,0 162.336,-162.336 191.309,-191.309 40.138,-40.139 87.617,-125.666 62.144,-217.459 z"
             style="fill:#000000;fill-opacity:1"
             inkscape:connector-curvature="0" />
          <path
             id="path9443-4-6-0"
             d="m 152.269,359.731 c -4.628,-4.628 -4.628,-12.133 0,-16.761 L 317.056,178.183 c 4.628,-4.628 12.133,-4.628 16.761,0 4.628,4.628 4.628,12.133 0,16.761 L 169.03,359.731 c -4.629,4.628 -12.133,4.629 -16.761,0 z"
             style="fill:#000000;fill-opacity:1"
             inkscape:connector-curvature="0" />
          <circle
             id="circle9445-0-8-7"
             r="43.796001"
             cy="108.895"
             cx="403.10501"
             style="fill:#000000;fill-opacity:1" />
          <g
             style="fill:#000000;fill-opacity:1"
             id="g9453-2-0-7">
            <path
               id="path9447-5-2-3"
               d="m 3.471,432.083 c -4.628,-4.628 -4.628,-12.133 0,-16.761 l 45.234,-45.234 c 4.628,-4.628 12.133,-4.628 16.761,0 4.628,4.628 4.628,12.133 0,16.761 l -45.234,45.234 c -4.628,4.628 -12.133,4.629 -16.761,0 z"
               style="fill:#000000;fill-opacity:1"
               inkscape:connector-curvature="0" />
            <path
               id="path9449-8-2-4"
               d="m 79.917,508.528 c -4.628,-4.628 -4.628,-12.133 0,-16.761 l 45.234,-45.234 c 4.628,-4.628 12.133,-4.628 16.761,0 4.628,4.628 4.628,12.133 0,16.761 l -45.234,45.234 c -4.629,4.629 -12.133,4.629 -16.761,0 z"
               style="fill:#000000;fill-opacity:1"
               inkscape:connector-curvature="0" />
            <path
               id="path9451-0-3-6"
               d="m 22.632,487.679 c -4.628,-4.628 -4.628,-12.133 0,-16.761 l 63.45,-63.45 c 4.628,-4.628 12.133,-4.628 16.761,0 4.628,4.628 4.628,12.133 0,16.761 l -63.45,63.45 c -4.628,4.628 -12.132,4.628 -16.761,0 z"
               style="fill:#000000;fill-opacity:1"
               inkscape:connector-curvature="0" />
          </g>
        </g>
        <g
           style="fill:#000000;fill-opacity:1"
           id="g9455-1-2-5" />
        <g
           style="fill:#000000;fill-opacity:1"
           id="g9457-6-4-5" />
        <g
           style="fill:#000000;fill-opacity:1"
           id="g9459-9-8-5" />
        <g
           style="fill:#000000;fill-opacity:1"
           id="g9461-7-2-8" />
        <g
           style="fill:#000000;fill-opacity:1"
           id="g9463-0-3-9" />
        <g
           style="fill:#000000;fill-opacity:1"
           id="g9465-5-8-3" />
        <g
           style="fill:#000000;fill-opacity:1"
           id="g9467-1-5-9" />
        <g
           style="fill:#000000;fill-opacity:1"
           id="g9469-3-7-6" />
        <g
           style="fill:#000000;fill-opacity:1"
           id="g9471-2-2-6" />
        <g
           style="fill:#000000;fill-opacity:1"
           id="g9473-9-8-4" />
        <g
           style="fill:#000000;fill-opacity:1"
           id="g9475-9-8-1" />
        <g
           style="fill:#000000;fill-opacity:1"
           id="g9477-9-7-5" />
        <g
           style="fill:#000000;fill-opacity:1"
           id="g9479-6-7-0" />
        <g
           style="fill:#000000;fill-opacity:1"
           id="g9481-0-3-7" />
        <g
           style="fill:#000000;fill-opacity:1"
           id="g9483-6-5-6" />
      </g>
      <g
         style="fill:#ff5722;fill-opacity:1"
         transform="matrix(0.02583824,0,0,0.02583824,-943.21313,115.77537)"
         id="g9516-3-6">
        <g
           style="fill:#ff5722;fill-opacity:1"
           id="g9527-9-8">
          <polygon
             id="polygon9437-0-1"
             points="121.796,269.608 73.119,344.219 167.78,438.881 242.391,390.203 "
             style="fill:#ff5722;fill-opacity:1" />
          <polygon
             id="polygon9439-8-6"
             points="403.094,264.221 247.778,108.905 110.445,130.358 25.05,215.753 136.255,220.429 291.571,375.745 296.246,486.95 381.641,401.555 "
             style="fill:#ff5722;fill-opacity:1" />
          <path
             id="path9441-16-8"
             d="M 504.825,7.176 C 413.031,-18.298 327.505,29.18 287.366,69.319 275.373,81.311 96.056,260.628 96.056,260.628 l 155.316,155.316 c 0,0 162.336,-162.336 191.309,-191.309 40.138,-40.139 87.617,-125.666 62.144,-217.459 z"
             style="fill:#ff5722;fill-opacity:1"
             inkscape:connector-curvature="0" />
          <path
             id="path9443-5-2"
             d="m 152.269,359.731 c -4.628,-4.628 -4.628,-12.133 0,-16.761 L 317.056,178.183 c 4.628,-4.628 12.133,-4.628 16.761,0 4.628,4.628 4.628,12.133 0,16.761 L 169.03,359.731 c -4.629,4.628 -12.133,4.629 -16.761,0 z"
             style="fill:#ffffff;fill-opacity:1"
             inkscape:connector-curvature="0" />
          <circle
             id="circle9445-5-5"
             r="43.796001"
             cy="108.895"
             cx="403.10501"
             style="fill:#ffffff;fill-opacity:1" />
          <g
             style="fill:#ff5722;fill-opacity:1"
             id="g9453-22-3">
            <path
               id="path9447-1-7"
               d="m 3.471,432.083 c -4.628,-4.628 -4.628,-12.133 0,-16.761 l 45.234,-45.234 c 4.628,-4.628 12.133,-4.628 16.761,0 4.628,4.628 4.628,12.133 0,16.761 l -45.234,45.234 c -4.628,4.628 -12.133,4.629 -16.761,0 z"
               style="fill:#ff5722;fill-opacity:1"
               inkscape:connector-curvature="0" />
            <path
               id="path9449-2-3"
               d="m 79.917,508.528 c -4.628,-4.628 -4.628,-12.133 0,-16.761 l 45.234,-45.234 c 4.628,-4.628 12.133,-4.628 16.761,0 4.628,4.628 4.628,12.133 0,16.761 l -45.234,45.234 c -4.629,4.629 -12.133,4.629 -16.761,0 z"
               style="fill:#ff5722;fill-opacity:1"
               inkscape:connector-curvature="0" />
            <path
               id="path9451-5-5"
               d="m 22.632,487.679 c -4.628,-4.628 -4.628,-12.133 0,-16.761 l 63.45,-63.45 c 4.628,-4.628 12.133,-4.628 16.761,0 4.628,4.628 4.628,12.133 0,16.761 l -63.45,63.45 c -4.628,4.628 -12.132,4.628 -16.761,0 z"
               style="fill:#ff5722;fill-opacity:1"
               inkscape:connector-curvature="0" />
          </g>
        </g>
        <g
           style="fill:#ff5722;fill-opacity:1"
           id="g9455-6-5" />
        <g
           style="fill:#ff5722;fill-opacity:1"
           id="g9457-5-1" />
        <g
           style="fill:#ff5722;fill-opacity:1"
           id="g9459-8-8" />
        <g
           style="fill:#ff5722;fill-opacity:1"
           id="g9461-8-1" />
        <g
           style="fill:#ff5722;fill-opacity:1"
           id="g9463-9-7" />
        <g
           style="fill:#ff5722;fill-opacity:1"
           id="g9465-9-6" />
        <g
           style="fill:#ff5722;fill-opacity:1"
           id="g9467-3-8" />
        <g
           style="fill:#ff5722;fill-opacity:1"
           id="g9469-4-2" />
        <g
           style="fill:#ff5722;fill-opacity:1"
           id="g9471-7-4" />
        <g
           style="fill:#ff5722;fill-opacity:1"
           id="g9473-0-7" />
        <g
           style="fill:#ff5722;fill-opacity:1"
           id="g9475-1-7" />
        <g
           style="fill:#ff5722;fill-opacity:1"
           id="g9477-1-3" />
        <g
           style="fill:#ff5722;fill-opacity:1"
           id="g9479-0-3" />
        <g
           style="fill:#ff5722;fill-opacity:1"
           id="g9481-1-3" />
        <g
           style="fill:#ff5722;fill-opacity:1"
           id="g9483-8-7" />
      </g>
    </g>
  </g>
</svg>
