<?xml version="1.0" encoding="UTF-8" standalone="no"?>
<!-- Created with Inkscape (http://www.inkscape.org/) -->

<svg
   xmlns:dc="http://purl.org/dc/elements/1.1/"
   xmlns:cc="http://creativecommons.org/ns#"
   xmlns:rdf="http://www.w3.org/1999/02/22-rdf-syntax-ns#"
   xmlns:svg="http://www.w3.org/2000/svg"
   xmlns="http://www.w3.org/2000/svg"
   xmlns:sodipodi="http://sodipodi.sourceforge.net/DTD/sodipodi-0.dtd"
   xmlns:inkscape="http://www.inkscape.org/namespaces/inkscape"
   width="7.5mm"
   height="8mm"
   viewBox="0 0 7.5 8"
   version="1.1"
   id="svg4802"
   inkscape:version="0.92.2 (5c3e80d, 2017-08-06)"
   sodipodi:docname="metronIcon.svg">
  <defs
     id="defs4796" />
  <sodipodi:namedview
     id="base"
     pagecolor="#ffffff"
     bordercolor="#666666"
     borderopacity="1.0"
     inkscape:pageopacity="0.0"
     inkscape:pageshadow="2"
     inkscape:zoom="1"
     inkscape:cx="-110"
     inkscape:cy="148.58661"
     inkscape:document-units="mm"
     inkscape:current-layer="layer1"
     showgrid="false"
     inkscape:window-width="1366"
     inkscape:window-height="704"
     inkscape:window-x="0"
     inkscape:window-y="27"
     inkscape:window-maximized="1" />
  <metadata
     id="metadata4799">
    <rdf:RDF>
      <cc:Work
         rdf:about="">
        <dc:format>image/svg+xml</dc:format>
        <dc:type
           rdf:resource="http://purl.org/dc/dcmitype/StillImage" />
        <dc:title></dc:title>
      </cc:Work>
    </rdf:RDF>
  </metadata>
  <g
     inkscape:label="Layer 1"
     inkscape:groupmode="layer"
     id="layer1"
     transform="translate(0,-289)">
    <path
       sodipodi:nodetypes="scccsscccssccccccccccscccccsscccsccscss"
       inkscape:connector-curvature="0"
       id="path8640"
       d="m 2.6311407,295.48196 c -0.76806,-0.83238 -1.42917,-1.55622 -1.4691,-1.60852 -0.0399,-0.0523 0.64625,0.56954 1.5248401,1.38188 1.2442899,1.15045 1.60084,1.50606 1.6127698,1.60852 0.0136,0.11701 0,0.13154 -0.1283499,0.13154 -0.1264301,0 -0.3111,-0.18146 -1.54016,-1.51342 z m 0.6824099,-0.2618 c -0.9037799,-0.97892 -1.9154399,-2.07459 -2.2481499,-2.43481 -0.3327,-0.36022 -0.56287,-0.62227 -0.51148,-0.58233 0.0514,0.0399 1.15137,1.04923 2.4444099,2.24288 2.28034,2.10507 2.3509602,2.17561 2.3509602,2.34777 0,0.17284 -0.005,0.17788 -0.19626,0.19193 L 4.9567706,297 Z m -0.9185999,0.74803 c -0.77583,-0.85069 -0.76329,-0.84731 0.20889,0.0563 0.59782,0.55567 0.68892,0.67208 0.55966,0.71516 -0.0274,0.009 -0.3732401,-0.33804 -0.76855,-0.77149 z m 3.3723101,0.5068 c -0.1152901,-0.10942 -5.1797101,-5.49771 -5.76252015,-6.13102 -0.0957,-0.10394 1.26924005,1.16694 3.03309005,2.82418 3.01443,2.83222 3.2070101,3.02296 3.2070101,3.17645 0,0.1119 -0.0295,0.17906 -0.0936,0.2134 -0.1471901,0.0788 -0.2330501,0.0602 -0.3839501,-0.083 z m -1.7262901,-3.1949 c -1.2473901,-1.35118 -2.21577,-2.41313 -2.15196,-2.35988 0.2135,0.17819 4.5231201,4.1478 4.68259,4.31316 0.0865,0.0897 0.1573199,0.20546 0.1573199,0.2572 0,0.13429 -0.13003,0.2462 -0.2860598,0.2462 -0.1147601,0 -0.4587502,-0.35184 -2.4018901,-2.45668 z m 1.20675,0.0745 c -1.9067301,-2.06095 -1.9248699,-2.08198 -1.3020601,-1.50928 2.5815502,2.37383 2.8558702,2.63985 2.8558702,2.76945 0,0.10225 -0.025601,0.13258 -0.1210202,0.14365 -0.1030499,0.0119 -0.3157998,-0.1965 -1.4327899,-1.40382 z m 0.43982,-0.53442 c -0.39761,-0.43264 -0.62549,-0.70153 -0.5063799,-0.59754 0.4968499,0.43384 1.4025398,1.29918 1.4025398,1.34006 0,0.16563 -0.2580499,-0.0482 -0.8961599,-0.74252 z"
       style="fill:#8bc34a;fill-opacity:1;stroke-width:0.04840767" />
  </g>
</svg>
