<?xml version="1.0" encoding="UTF-8" standalone="no"?>
<!-- Created with Inkscape (http://www.inkscape.org/) -->

<svg
   xmlns:dc="http://purl.org/dc/elements/1.1/"
   xmlns:cc="http://creativecommons.org/ns#"
   xmlns:rdf="http://www.w3.org/1999/02/22-rdf-syntax-ns#"
   xmlns:svg="http://www.w3.org/2000/svg"
   xmlns="http://www.w3.org/2000/svg"
   xmlns:sodipodi="http://sodipodi.sourceforge.net/DTD/sodipodi-0.dtd"
   xmlns:inkscape="http://www.inkscape.org/namespaces/inkscape"
   width="8.6820002mm"
   height="7.98mm"
   viewBox="0 0 8.6820003 7.9800001"
   version="1.1"
   id="svg23677"
   inkscape:version="0.92.2 (5c3e80d, 2017-08-06)"
   sodipodi:docname="mochaIconWhite.svg">
  <defs
     id="defs23671" />
  <sodipodi:namedview
     id="base"
     pagecolor="#ffffff"
     bordercolor="#666666"
     borderopacity="1.0"
     inkscape:pageopacity="0.0"
     inkscape:pageshadow="2"
     inkscape:zoom="0.75"
     inkscape:cx="-380.66667"
     inkscape:cy="-80"
     inkscape:document-units="mm"
     inkscape:current-layer="layer1"
     showgrid="false"
     inkscape:window-width="1366"
     inkscape:window-height="704"
     inkscape:window-x="0"
     inkscape:window-y="27"
     inkscape:window-maximized="1" />
  <metadata
     id="metadata23674">
    <rdf:RDF>
      <cc:Work
         rdf:about="">
        <dc:format>image/svg+xml</dc:format>
        <dc:type
           rdf:resource="http://purl.org/dc/dcmitype/StillImage" />
        <dc:title></dc:title>
      </cc:Work>
    </rdf:RDF>
  </metadata>
  <g
     inkscape:label="Layer 1"
     inkscape:groupmode="layer"
     id="layer1"
     transform="translate(0,-289.02)">
    <path
       inkscape:connector-curvature="0"
       id="path18549-3-7"
       d="m 4.6247101,296.47013 c -0.0451,0 -0.0912,-0.017 -0.1292,-0.037 -0.0304,-0.016 -2.7295901,-1.5755 -2.7518001,-1.5907 -0.0272,-0.019 -0.0723,-0.065 -0.0922,-0.093 -0.0388,-0.058 -0.0587,-0.113 -0.0639,-0.1794 0,-0.041 0,-3.1373 -1.1e-4,-3.1776 0,-0.038 0.0105,-0.068 0.0231,-0.1017 0.0252,-0.068 0.0755,-0.131 0.13549,-0.1722 0.0356,-0.024 2.7393301,-1.5855 2.7644801,-1.5964 0.0534,-0.023 0.0985,-0.032 0.16044,-0.029 0.0597,0 0.10269,0.013 0.15121,0.037 0.0304,0.016 2.71942,1.5692 2.74373,1.5855 0.0817,0.054 0.14063,0.145 0.15959,0.2462 0,0.023 0,0.1017 0,1.5955 5.29e-4,1.0888 -10e-5,1.5804 0,1.6016 0,0.037 -0.0105,0.062 -0.0178,0.092 -0.0251,0.077 -0.0744,0.1438 -0.13801,0.1915 -0.0189,0.015 -2.69029,1.5594 -2.74404,1.5874 -0.0461,0.024 -0.088,0.036 -0.14084,0.041 -0.0283,0 -0.0325,0 -0.0629,0 z m 0.10521,-0.4871 c 0.0136,0 0.0335,-0.011 0.044,-0.015 0.0199,-0.011 2.36418,-1.3601 2.39772,-1.3826 0.0241,-0.016 0.0639,-0.056 0.0796,-0.08 0.0251,-0.038 0.0419,-0.076 0.0513,-0.1211 0,-0.02 0,-0.091 0,-1.4078 0,-1.3315 -2e-4,-1.3875 0,-1.4085 -0.0136,-0.066 -0.0409,-0.1164 -0.0859,-0.1617 -0.0136,-0.014 -0.0335,-0.03 -0.0461,-0.039 -0.0115,-0.01 -0.5184,-0.3008 -1.12545,-0.6512 -0.60705,-0.3504 -1.13625,-0.6559 -1.17596,-0.6788 -0.0398,-0.023 -0.0796,-0.045 -0.0901,-0.049 -0.0838,-0.037 -0.18223,-0.035 -0.26229,0.011 -0.0105,0 -0.0702,0.039 -0.13267,0.075 -0.0933,0.054 -0.84136,0.4858 -2.05536,1.1866 -0.0996,0.058 -0.18694,0.1084 -0.19313,0.1127 -0.0723,0.05 -0.1222901,0.1337 -0.1334001,0.2253 0,0.017 0,0.3934 0,1.3989 8.39e-4,1.2831 0,1.3764 0,1.3932 0.0168,0.071 0.0451,0.1214 0.0912,0.1659 0.0126,0.012 0.0304,0.026 0.0398,0.034 0.0178,0.013 2.35894,1.3638 2.38189,1.3754 0.0189,0.01 0.0555,0.022 0.0786,0.026 0.0325,0.01 0.1006,0 0.13215,0 z m -0.088,-0.099 c -0.0189,0 -0.0409,-0.011 -0.0576,-0.013 -0.0178,-0.01 -2.3407,-1.3463 -2.37581,-1.3698 -0.0377,-0.025 -0.0671,-0.064 -0.0828,-0.1104 l -0.0105,-0.025 -5.29e-4,-1.3764 c -5.21e-4,-1.216 -2e-4,-1.3787 0,-1.3952 0.0105,-0.048 0.0377,-0.094 0.0744,-0.1237 0.0105,-0.011 0.11118,-0.068 0.22792,-0.1351 1.57154,-0.9075 2.14233,-1.2361 2.15816,-1.2425 0.0325,-0.013 0.0503,-0.016 0.0838,-0.015 0.0304,0 0.0555,0.01 0.0796,0.02 0.0105,0 0.42775,0.2463 0.93777,0.5406 0.51002,0.2945 1.03837,0.5995 1.17418,0.6778 0.16609,0.095 0.25223,0.147 0.26355,0.1566 0.0304,0.025 0.0545,0.063 0.0671,0.105 l 0.0105,0.019 v 1.3842 1.3842 l -0.0105,0.022 c -0.0147,0.045 -0.0388,0.08 -0.0734,0.1062 -0.0157,0.012 -2.34322,1.3566 -2.37256,1.3705 -0.0283,0.014 -0.0681,0.022 -0.0975,0.02 z m 2.40599,-2.3042 v -0.022 h -2.38933 -2.38943 v 0.022 0.022 h 2.38943 2.38933 z m -3.19863,-0.2513 c 0.0576,-0.011 0.11852,-0.035 0.16777,-0.071 0.0231,-0.018 0.0587,-0.053 0.0775,-0.079 0.0304,-0.04 0.0555,-0.1 0.0681,-0.1576 0.0105,-0.031 0.0105,-0.1196 1.1e-4,-0.1511 -0.0105,-0.033 -0.0231,-0.08 -0.0377,-0.1093 -0.0629,-0.1271 -0.19355,-0.2033 -0.34968,-0.2031 -0.0639,0 -0.10941,0.011 -0.164,0.034 -0.0671,0.03 -0.11936,0.074 -0.15981,0.1344 -0.0314,0.047 -0.0513,0.099 -0.0618,0.1577 -0.0105,0.04 -0.0105,0.1038 0,0.143 0.0283,0.1325 0.11013,0.2329 0.22676,0.2785 0.0713,0.028 0.15059,0.037 0.22928,0.024 z m -0.10887,-0.1189 c -0.0639,-0.01 -0.13026,-0.052 -0.16683,-0.1062 -0.0461,-0.069 -0.0597,-0.1642 -0.0335,-0.2485 0.0105,-0.023 0.0304,-0.066 0.0471,-0.087 0.0252,-0.032 0.0755,-0.065 0.11506,-0.079 0.0367,-0.013 0.0912,-0.015 0.13204,0 0.0534,0.014 0.10678,0.049 0.13937,0.094 0.0356,0.048 0.0545,0.1155 0.0513,0.1803 0,0.057 -0.0189,0.1048 -0.0513,0.1513 -0.0283,0.041 -0.087,0.081 -0.13812,0.093 -0.0241,0.011 -0.0712,0.011 -0.0943,0 z m 1.15374,0.1189 c 0.0692,-0.012 0.13623,-0.046 0.19543,-0.1038 l 0.0231,-0.023 -0.043,-0.044 c -0.0241,-0.024 -0.044,-0.044 -0.0451,-0.044 -7.41e-4,0 -0.0105,0.011 -0.022,0.017 -0.0241,0.02 -0.0713,0.051 -0.0901,0.061 -0.0325,0.016 -0.0943,0.023 -0.13455,0.016 -0.0283,-0.01 -0.0692,-0.02 -0.087,-0.03 -0.043,-0.025 -0.0838,-0.071 -0.10269,-0.1152 -0.0346,-0.082 -0.0314,-0.1768 0.0105,-0.2476 0.0231,-0.043 0.0451,-0.069 0.0828,-0.094 0.0471,-0.031 0.0817,-0.043 0.13434,-0.043 0.0723,-1e-4 0.11716,0.018 0.18789,0.076 0.0199,0.016 0.0199,0.017 0.0251,0.012 0,0 0.022,-0.025 0.044,-0.049 l 0.0388,-0.044 -0.0105,-0.01 c -0.0199,-0.021 -0.0629,-0.052 -0.087,-0.065 -0.0335,-0.018 -0.088,-0.034 -0.13256,-0.039 -0.0472,-0.011 -0.11317,0 -0.15111,0 -0.0702,0.016 -0.12365,0.042 -0.17364,0.085 -0.0325,0.028 -0.066,0.073 -0.0891,0.1206 -0.0555,0.1137 -0.0534,0.2402 0,0.3585 0.0189,0.038 0.0398,0.068 0.0734,0.1 0.0639,0.062 0.13864,0.095 0.2274,0.1047 0.0304,0 0.0964,0 0.12627,0 z m -2.39897,-0.2676 5.21e-4,-0.2667 0.11475,0.172 c 0.0755,0.1137 0.116,0.1719 0.11841,0.1714 0,0 0.0566,-0.08 0.1203,-0.1748 l 0.11653,-0.174 v 0.2668 0.2668 h 0.066 0.066 v -0.3752 -0.3753 h -0.0713 -0.0713 l -0.11223,0.1729 c -0.0618,0.095 -0.11297,0.1731 -0.11401,0.1734 -8.38e-4,0 -0.0524,-0.078 -0.11454,-0.1734 l -0.11265,-0.1741 -0.0713,-1e-4 h -0.0712 v 0.3778 0.3777 h 0.066 0.066 z m 3.00843,0.1037 v -0.1575 h 0.1793 0.17929 v 0.1575 0.1575 h 0.066 0.066 v -0.3753 -0.3751 h -0.066 -0.066 v 0.155 0.1549 h -0.17929 -0.1793 v -0.1549 -0.155 h -0.066 -0.066 v 0.3751 0.3753 h 0.066 0.066 z m 0.89449,0.1197 c 0.0105,-0.021 0.0273,-0.061 0.0388,-0.09 l 0.0231,-0.051 h 0.17552 0.17563 l 0.0367,0.089 0.0367,0.089 h 0.0702 c 0.0388,0 0.0702,0 0.0702,0 0,-10e-4 -0.0744,-0.171 -0.16453,-0.3776 l -0.16441,-0.3759 h -0.0608 -0.0608 l -0.16347,0.3733 c -0.0901,0.2052 -0.1639,0.3752 -0.16463,0.3777 -10e-4,0 0,0 0.0671,0 h 0.0681 l 0.0168,-0.038 z m 0.11244,-0.2617 c 0,-0.015 0.12408,-0.292 0.12502,-0.292 8.47e-4,0 0.11705,0.2712 0.12512,0.2922 5.29e-4,0 -0.0555,0 -0.12512,0 -0.0755,0 -0.12554,0 -0.12502,0 z m -1.74025,-0.6036 c 0.0262,-0.013 0.0859,-0.1087 0.11841,-0.1908 0.0576,-0.1442 0.0922,-0.3409 0.0964,-0.5431 l 10e-4,-0.068 -0.0115,-0.012 -0.0115,-0.011 h -0.365619 -0.36562 l -0.0105,0.01 c -0.0105,0 -0.0105,0.011 -0.0136,0.017 -0.0105,0.01 -0.0105,0.015 0,0.058 0.0126,0.3289 0.0807,0.5832 0.19533,0.7249 0.021,0.026 0.0105,0.024 0.19512,0.024 0.1466,0 0.16567,0 0.17353,0 z m -0.29205,-0.1085 c -0.0105,0 -0.0199,-0.014 -0.0367,-0.039 -0.0283,-0.041 -0.0472,-0.083 -0.066,-0.1409 -0.0314,-0.095 -0.0513,-0.2231 -0.0566,-0.3486 0,-0.044 -10e-4,-0.045 0,-0.055 0.0115,-0.018 -0.0105,-0.017 0.27728,-0.017 0.25181,0 0.25705,2e-4 0.26522,0 0,0 0.0105,0.01 0.0136,0.014 0,0.01 0,0.01 0,0.055 -0.0105,0.2056 -0.0545,0.3911 -0.1291,0.495 -0.0241,0.034 -0.0126,0.031 -0.15038,0.031 -0.065,0 -0.12114,0 -0.12512,0 z m 0.22896,-0.045 c 0.0126,-0.011 0.0356,-0.04 0.0555,-0.08 0.0241,-0.047 0.0451,-0.1143 0.0566,-0.1827 0.0105,-0.038 0.0105,-0.039 0,-0.026 -0.0189,0.026 -0.0681,0.052 -0.12219,0.065 -0.0681,0.016 -0.18202,0.018 -0.29121,0.011 h -0.0147 v 0.01 c 0.0105,0.022 0.0147,0.054 0.0241,0.079 0.021,0.057 0.0618,0.1266 0.0786,0.1337 0.0105,0 0.0346,0 0.10658,0 0.0828,0 0.10059,0 0.10667,0 z m -0.52238,-0.082 c 0,0 -8.39e-4,-0.013 0,-0.022 v -0.016 h -0.95611 -0.95611 v 0.022 0.022 h 0.95779 0.95779 z m 2.86309,-0.016 v -0.022 h -1.01668 -1.01668 v 0.011 c 0,0 -8.2e-4,0.014 0,0.022 v 0.016 h 1.01836 1.01835 z m -2.50942,-0.6542 c 0.0105,-0.01 0.0178,-0.021 0.0231,-0.033 0.0105,-0.016 0.0105,-0.02 0.0105,-0.039 0,-0.027 0,-0.04 -0.0241,-0.073 -0.022,-0.036 -0.0314,-0.06 -0.0314,-0.08 l -2.1e-4,-0.016 -0.0115,0.013 c -0.043,0.05 -0.0493,0.088 -0.0231,0.1406 0,0.01 0.0105,0.02 0.0147,0.025 0.0105,0.011 0.0157,0.034 0.0189,0.049 8.2e-4,0 0,0.013 0,0.018 7.41e-4,0 0,0.011 0,0.011 0,0 0.0105,-0.011 0.0178,-0.015 z m 0.14304,0 c 0.0503,-0.037 0.0754,-0.097 0.0629,-0.1539 -0.0105,-0.025 -0.0136,-0.043 -0.0356,-0.081 -0.0314,-0.052 -0.0451,-0.088 -0.0451,-0.1168 0,-0.01 0,-0.019 0,-0.022 0,-0.011 -0.0157,0.014 -0.0377,0.041 -0.0482,0.06 -0.0555,0.1115 -0.0241,0.1769 0.0105,0.012 0.0147,0.028 0.022,0.038 0.0231,0.035 0.0367,0.071 0.0398,0.1065 8.47e-4,0.012 0,0.021 0,0.021 5.29e-4,0 0.0105,0 0.0136,-0.011 z"
       style="fill:#fffdff;fill-opacity:1;stroke-width:0.00256094"
       inkscape:export-xdpi="96"
       inkscape:export-ydpi="96" />
  </g>
</svg>
