<?xml version="1.0" encoding="UTF-8" standalone="no"?>
<!-- Created with Inkscape (http://www.inkscape.org/) -->

<svg
   xmlns:dc="http://purl.org/dc/elements/1.1/"
   xmlns:cc="http://creativecommons.org/ns#"
   xmlns:rdf="http://www.w3.org/1999/02/22-rdf-syntax-ns#"
   xmlns:svg="http://www.w3.org/2000/svg"
   xmlns="http://www.w3.org/2000/svg"
   xmlns:sodipodi="http://sodipodi.sourceforge.net/DTD/sodipodi-0.dtd"
   xmlns:inkscape="http://www.inkscape.org/namespaces/inkscape"
   width="7.5mm"
   height="7.5mm"
   viewBox="0 0 7.5 7.5"
   version="1.1"
   id="svg4802"
   inkscape:version="0.92.2 (5c3e80d, 2017-08-06)"
   sodipodi:docname="nodeJs.svg">
  <defs
     id="defs4796" />
  <sodipodi:namedview
     id="base"
     pagecolor="#ffffff"
     bordercolor="#666666"
     borderopacity="1.0"
     inkscape:pageopacity="0.0"
     inkscape:pageshadow="2"
     inkscape:zoom="1"
     inkscape:cx="-110"
     inkscape:cy="148.58661"
     inkscape:document-units="mm"
     inkscape:current-layer="layer1"
     showgrid="false"
     inkscape:window-width="1366"
     inkscape:window-height="704"
     inkscape:window-x="0"
     inkscape:window-y="27"
     inkscape:window-maximized="1" />
  <metadata
     id="metadata4799">
    <rdf:RDF>
      <cc:Work
         rdf:about="">
        <dc:format>image/svg+xml</dc:format>
        <dc:type
           rdf:resource="http://purl.org/dc/dcmitype/StillImage" />
        <dc:title></dc:title>
      </cc:Work>
    </rdf:RDF>
  </metadata>
  <g
     inkscape:label="Layer 1"
     inkscape:groupmode="layer"
     id="layer1"
     transform="translate(0,-289.5)">
    <path
       inkscape:connector-curvature="0"
       id="path8184"
       d="m 3.608531,296.8834 c -0.0243,-0.005 -0.0626,-0.0168 -0.085,-0.0259 -0.0544,-0.0221 -0.88569,-0.53079 -0.90955,-0.55655 -0.0103,-0.0111 -0.0187,-0.0231 -0.0187,-0.0266 0,-0.0133 0.0278,-0.0313 0.0726,-0.047 0.0668,-0.0234 0.191,-0.083 0.27837,-0.13372 0.0466,-0.027 0.0833,-0.0439 0.0957,-0.0439 0.0141,0 0.11126,0.0539 0.32564,0.18078 0.16804,0.0994 0.31501,0.18238 0.32658,0.18433 0.0267,0.004 0.0152,0.0107 0.33598,-0.18008 0.14774,-0.0879 0.339,-0.20161 0.42503,-0.25277 0.086,-0.0512 0.47772,-0.28369 0.87045,-0.51672 0.40183,-0.23843 0.72371,-0.43369 0.73615,-0.44655 l 0.0221,-0.0229 v -1.41359 -1.41358 l -0.0153,-0.0218 c -0.0112,-0.016 -0.32384,-0.20993 -1.17478,-0.72892 -0.63771,-0.38893 -1.1669,-0.70904 -1.17597,-0.71134 -0.009,-0.002 -0.025,-0.001 -0.0354,0.003 -0.0165,0.006 -0.43411,0.26035 -1.9712,1.19954 -0.2524,0.15421 -0.36747,0.22821 -0.37572,0.24159 -0.0112,0.0182 -0.0118,0.0973 -0.0102,1.43533 l 0.002,1.41604 0.017,0.0163 c 0.0189,0.018 0.57123,0.35134 0.63584,0.38365 0.14156,0.0708 0.28991,0.0798 0.39274,0.0238 0.0641,-0.0349 0.11966,-0.11417 0.13421,-0.19146 0.005,-0.024 0.007,-0.51451 0.007,-1.42267 0,-0.9821 0.002,-1.39076 0.007,-1.40224 0.0167,-0.0367 0.0296,-0.0388 0.23406,-0.0388 h 0.18834 l 0.0233,0.0233 0.0233,0.0233 -0.002,1.44733 -0.002,1.44732 -0.0152,0.0664 c -0.0414,0.18043 -0.12314,0.32025 -0.23955,0.40982 -0.1278,0.0983 -0.28756,0.14592 -0.49023,0.14601 -0.15132,8e-5 -0.25096,-0.0239 -0.42162,-0.10148 -0.089,-0.0404 -0.71544,-0.40861 -0.77785,-0.45715 -0.0757,-0.0588 -0.14225997,-0.15965 -0.17463997,-0.26437 l -0.0157,-0.0508 -0.002,-1.46889 c -0.002,-1.08263 -5e-5,-1.48231 0.006,-1.5199 0.0206,-0.13464 0.0971,-0.26342 0.19938997,-0.33603 0.064,-0.0454 2.39489,-1.43794 2.44923,-1.46323 0.12507,-0.0582 0.29049,-0.0565 0.41282,0.004 0.0214,0.0106 0.27539,0.16072 0.56444,0.33356 1.49515,0.89408 1.87483,1.12314 1.90434,1.14886 0.0859,0.0748 0.14923,0.1928 0.16791,0.31269 0.006,0.038 0.007,0.42418 0.006,1.51989 l -0.002,1.4689 -0.0154,0.0498 c -0.0317,0.10214 -0.0885,0.19057 -0.16408,0.25505 -0.0201,0.0172 -0.27411,0.17321 -0.56437,0.34669 -1.82098,1.08838 -1.85471,1.10847 -1.89464,1.12855 -0.0885,0.0445 -0.21728,0.0624 -0.30943,0.043 z m 0.62906,-1.90158 c -0.29894,-0.0246 -0.5442,-0.10076 -0.71745,-0.22268 -0.0628,-0.0442 -0.15731,-0.13817 -0.1977,-0.19661 -0.0754,-0.109 -0.12103,-0.23706 -0.13558,-0.38009 -0.008,-0.082 -0.003,-0.10961 0.0253,-0.13189 0.0164,-0.0129 0.0273,-0.0137 0.18686,-0.0137 0.18556,0 0.20086,0.003 0.21522,0.0388 0.004,0.0105 0.0119,0.0405 0.0173,0.0667 0.0477,0.23512 0.19399,0.35173 0.500711,0.39916 0.126679,0.0196 0.427319,0.0214 0.542429,0.003 0.26728,-0.0421 0.410761,-0.14363 0.44746,-0.31674 0.0126,-0.0597 0.0123,-0.13279 -0.001,-0.17725 -0.0395,-0.13306 -0.24423,-0.2051 -0.74414,-0.26187 -0.38573,-0.0438 -0.56034,-0.0796 -0.7167,-0.14699 -0.2135,-0.092 -0.32878,-0.2213 -0.3794,-0.42557 -0.0127,-0.051 -0.0149,-0.0789 -0.0147,-0.18263 2e-4,-0.11051 0.002,-0.12902 0.0183,-0.19041 0.0634,-0.23837 0.2243,-0.40409 0.48729,-0.50173 0.0774,-0.0288 0.18154,-0.0549 0.27882,-0.0699 0.0975,-0.0151 0.38607,-0.0208 0.51194,-0.0102 0.56524,0.0476 0.87077,0.26104 0.939701,0.65629 0.013,0.0746 0.0132,0.10794 7.93e-4,0.13198 -0.0168,0.0326 -0.0318,0.035 -0.21494,0.035 H 5.11853 l -0.0199,-0.0187 c -0.0134,-0.0126 -0.0258,-0.0369 -0.0379,-0.0744 -0.0545,-0.16843 -0.17821,-0.25318 -0.42681,-0.29254 -0.11126,-0.0176 -0.45465,-0.0174 -0.55264,4e-4 -0.18132,0.0328 -0.29156,0.0997 -0.33048,0.20031 -0.0178,0.046 -0.0251,0.14678 -0.0137,0.18905 0.0331,0.1227 0.17415,0.17065 0.73859,0.25108 0.40545,0.0578 0.56393,0.0925 0.72781,0.15939 0.17715,0.0723 0.29896,0.18431 0.35537,0.32671 0.0731,0.18461 0.0626,0.44898 -0.0253,0.63661 -0.0387,0.0826 -0.0844,0.14759 -0.15007,0.2136 -0.15483,0.15554 -0.38459,0.25542 -0.67999,0.2956 -0.0943,0.0128 -0.36182,0.0186 -0.46583,0.01 z"
       style="fill:#8bc34a;fill-opacity:1;stroke-width:0.00680044" />
  </g>
</svg>
