<?xml version="1.0" encoding="UTF-8" standalone="no"?>
<!-- Created with Inkscape (http://www.inkscape.org/) -->

<svg
   xmlns:dc="http://purl.org/dc/elements/1.1/"
   xmlns:cc="http://creativecommons.org/ns#"
   xmlns:rdf="http://www.w3.org/1999/02/22-rdf-syntax-ns#"
   xmlns:svg="http://www.w3.org/2000/svg"
   xmlns="http://www.w3.org/2000/svg"
   xmlns:sodipodi="http://sodipodi.sourceforge.net/DTD/sodipodi-0.dtd"
   xmlns:inkscape="http://www.inkscape.org/namespaces/inkscape"
   width="14.5mm"
   height="7.5mm"
   viewBox="0 0 14.5 7.5"
   version="1.1"
   id="svg4802"
   inkscape:version="0.92.2 (5c3e80d, 2017-08-06)"
   sodipodi:docname="phpIcon.svg">
  <defs
     id="defs4796" />
  <sodipodi:namedview
     id="base"
     pagecolor="#ffffff"
     bordercolor="#666666"
     borderopacity="1.0"
     inkscape:pageopacity="0.0"
     inkscape:pageshadow="2"
     inkscape:zoom="1"
     inkscape:cx="-110"
     inkscape:cy="148.58661"
     inkscape:document-units="mm"
     inkscape:current-layer="layer1"
     showgrid="false"
     inkscape:window-width="1366"
     inkscape:window-height="704"
     inkscape:window-x="0"
     inkscape:window-y="27"
     inkscape:window-maximized="1" />
  <metadata
     id="metadata4799">
    <rdf:RDF>
      <cc:Work
         rdf:about="">
        <dc:format>image/svg+xml</dc:format>
        <dc:type
           rdf:resource="http://purl.org/dc/dcmitype/StillImage" />
        <dc:title></dc:title>
      </cc:Work>
    </rdf:RDF>
  </metadata>
  <g
     inkscape:label="Layer 1"
     inkscape:groupmode="layer"
     id="layer1"
     transform="translate(0,-289.5)">
    <path
       style="fill:#8bc34a;fill-opacity:1;stroke-width:0.0051401"
       d="m 7.0935117,296.89037 c -0.3662,-0.0123 -0.67293,-0.0305 -0.90555,-0.0537 -0.46516,-0.0462 -0.86141,-0.10553 -1.26868,-0.18995 -1.08285,-0.22433 -2.02987,-0.59237 -2.74535,-1.0669 -0.6745,-0.44733 -1.11638,-0.97828 -1.2762,-1.53336 -0.0469,-0.16304 -0.0669,-0.3087 -0.0669,-0.48643 7e-5,-0.26651 0.052,-0.49999 0.16816,-0.75619 0.16099,-0.35502 0.45346,-0.7089 0.8461,-1.02375 0.43101,-0.34563 1.00566,-0.65834 1.6581,-0.90233 0.62817,-0.2349 1.3186,-0.40786 2.07404,-0.51955 0.12367,-0.0183 0.33225,-0.0451 0.42404,-0.0545 0.0282,-0.002 0.0954,-0.01 0.14908,-0.0153 0.39057,-0.0402 0.78759,-0.0587 1.25676,-0.0587 0.4794,0 0.86749,0.0186 1.28502,0.0613 0.69117,0.0709 1.29718,0.18373 1.9095403,0.35562 0.94469,0.2652 1.75582,0.65084 2.34391,1.11437 0.21243,0.16744 0.411,0.36144 0.5601,0.54723 0.59262,0.73846 0.6385,1.5774 0.12745,2.33105 -0.11457,0.16894 -0.21867,0.29211 -0.38257,0.45257 -0.54939,0.53787 -1.36789,0.98469 -2.39458,1.30723 -0.73163,0.22982 -1.5644293,0.38618 -2.4131403,0.45304 -0.36163,0.0285 -0.561769,0.0364 -0.963769,0.0384 -0.185171,8.5e-4 -0.358661,7.9e-4 -0.385521,-10e-5 z m -3.64029,-1.42845 c 0.0122,-0.0622 0.0542,-0.27731 0.0931,-0.47804 l 0.0709,-0.36494 0.45955,-0.004 c 0.42445,-0.002 0.46707,-0.004 0.55789,-0.0141 0.41424,-0.0466 0.67626,-0.16328 0.94108,-0.41914 0.26446,-0.25551 0.41408,-0.54383 0.47646,-0.91817 0.0231,-0.13904 0.03,-0.29316 0.0184,-0.4126 -0.0406,-0.41831 -0.306599,-0.71727 -0.737589,-0.82926 -0.077,-0.02 -0.20211,-0.0403 -0.29712,-0.048 -0.0425,-0.004 -0.35433,-0.005 -0.87758,-0.005 h -0.81176 l -0.002,0.0121 c -0.002,0.0121 -0.0426,0.2162 -0.180349,0.92651 -0.0439,0.22617 -0.0983,0.50605 -0.12088,0.62195 -0.0227,0.11591 -0.0918,0.47096 -0.15352,0.78901 -0.0617,0.31804 -0.14149,0.72782 -0.17707,0.9106 -0.0356,0.18277 -0.0646,0.33603 -0.0646,0.34055 0,0.007 0.0352,0.008 0.39184,0.007 l 0.39184,-10e-4 z m 0.276,-1.42212 c 10e-4,-0.004 0.0536,-0.27052 0.1159,-0.59281 0.0624,-0.32228 0.12719,-0.65581 0.14404,-0.74116 0.0169,-0.0854 0.0306,-0.15776 0.0306,-0.16091 0,-0.004 0.0976,-0.005 0.35852,-0.004 0.39358,0.002 0.41781,0.004 0.53963,0.035 0.18553,0.0479 0.28026,0.13347 0.32089,0.29009 0.0109,0.0423 0.0121,0.0564 0.0121,0.16707 -3.17e-4,0.10806 -0.002,0.12894 -0.0144,0.19789 -0.0555,0.30687 -0.16415,0.51903 -0.32976,0.64391 -0.0727,0.0549 -0.20211,0.11011 -0.31614,0.13515 -0.14162,0.031 -0.15573,0.032 -0.52294,0.0343 -0.28188,10e-4 -0.3401,9.8e-4 -0.33806,-0.005 z m 5.88943,1.27562 c 0.0279,-0.14276 0.0697,-0.35788 0.093,-0.47803 l 0.0423,-0.21845 0.4546703,-0.002 c 0.49037,-0.004 0.53081,-0.005 0.70396,-0.0336 0.34497,-0.0568 0.60338,-0.19299 0.84662,-0.44603 0.25127,-0.26136 0.38709,-0.55308 0.44185,-0.94897 0.0128,-0.0926 0.0128,-0.30929 -6e-5,-0.38991 -0.0714,-0.44866 -0.38899,-0.73507 -0.89519,-0.80736 -0.14079,-0.0201 -0.17656,-0.0209 -1.008399,-0.0209 -0.7699813,-5e-5 -0.8132213,4.3e-4 -0.8156903,0.008 -0.004,0.0109 -0.0544,0.2728 -0.162141,0.82884 -0.0452,0.23325 -0.0928,0.47842 -0.105779,0.54486 -0.013,0.0665 -0.0618,0.31741 -0.108301,0.55771 -0.0466,0.24029 -0.10107,0.52018 -0.12094,0.62195 -0.10046,0.5134 -0.19985,1.02901 -0.199869,1.03705 -5e-5,0.008 0.021,0.008 0.3917,0.007 l 0.391729,-10e-4 0.0506,-0.25958 z m 0.24725,-1.27819 c 0.004,-0.0109 0.0855,-0.43204 0.2035903,-1.04257 0.0453,-0.23464 0.0838,-0.4331 0.0855,-0.44104 l 0.002,-0.0144 0.35804,0.002 c 0.39293,0.002 0.4174,0.004 0.53886,0.035 0.1992,0.0514 0.29699,0.14881 0.32806,0.32697 0.0335,0.19232 -0.0331,0.53623 -0.14283,0.73761 -0.12455,0.22849 -0.3012,0.33845 -0.62818,0.39101 -0.0618,0.01 -0.0929,0.0109 -0.40783,0.0129 -0.3286603,0.002 -0.3409103,0.002 -0.3382003,-0.007 z m -3.16643,0.56758 c 0.004,-0.0133 0.0419,-0.21103 0.17597,-0.90338 0.0794,-0.4094 0.21054,-1.08384 0.221311,-1.13765 l 0.002,-0.0146 0.38373,0.002 c 0.410329,0.002 0.416339,0.002 0.506949,0.0299 0.0977,0.0292 0.14196,0.0696 0.168,0.15362 0.0109,0.0334 0.0121,0.0487 0.0121,0.11566 -4.49e-4,0.0894 0.005,0.0549 -0.09,0.54485 -0.13844,0.712 -0.23592,1.21524 -0.23592,1.21799 0,10e-4 0.17792,0.002 0.39538,0.002 h 0.39534 l 0.006,-0.027 c 0.004,-0.0148 0.0567,-0.28952 0.11892,-0.61041 0.0622,-0.32085 0.12444,-0.64121 0.13826,-0.71188 0.0139,-0.0707 0.0356,-0.18171 0.0482,-0.24674 0.03689,-0.18892 0.04139,-0.22732 0.04119,-0.3521 -1.19e-4,-0.0949 -9.99e-4,-0.11808 -0.0121,-0.16433 -0.0153,-0.0713 -0.0273,-0.10626 -0.0555,-0.16305 -0.054,-0.10855 -0.13736,-0.18502 -0.270769,-0.2483 -0.12091,-0.0574 -0.223751,-0.083 -0.447951,-0.11168 -0.0502,-0.006 -0.148429,-0.008 -0.52558,-0.01 l -0.463919,-0.002 0.002,-0.0109 c 0.01,-0.0412 0.182479,-0.93537 0.182479,-0.94328 0,-0.005 -0.0925,-0.006 -0.38913,-0.005 l -0.38913,10e-4 -0.0556,0.28529 c -0.0306,0.1569 -0.0994,0.5108 -0.15289,0.78643 -0.0536,0.27564 -0.10795,0.55552 -0.12094,0.62195 -0.013,0.0665 -0.0618,0.31741 -0.10831,0.55771 -0.0467,0.2403 -0.101069,0.52017 -0.120949,0.62195 -0.0199,0.1018 -0.0592,0.30417 -0.0874,0.44977 -0.0282,0.14559 -0.0525,0.26875 -0.0539,0.27369 -0.002,0.008 0.0183,0.008 0.38775,0.008 h 0.39043 z"
       id="path8171"
       inkscape:connector-curvature="0" />
  </g>
</svg>
