<?xml version="1.0" encoding="UTF-8" standalone="no"?>
<!-- Created with Inkscape (http://www.inkscape.org/) -->

<svg
   xmlns:dc="http://purl.org/dc/elements/1.1/"
   xmlns:cc="http://creativecommons.org/ns#"
   xmlns:rdf="http://www.w3.org/1999/02/22-rdf-syntax-ns#"
   xmlns:svg="http://www.w3.org/2000/svg"
   xmlns="http://www.w3.org/2000/svg"
   xmlns:sodipodi="http://sodipodi.sourceforge.net/DTD/sodipodi-0.dtd"
   xmlns:inkscape="http://www.inkscape.org/namespaces/inkscape"
   width="25.444mm"
   height="25.444mm"
   viewBox="0 0 25.444 25.444"
   version="1.1"
   id="svg1954"
   inkscape:version="0.92.2 (5c3e80d, 2017-08-06)"
   sodipodi:docname="profileImage.svg">
  <defs
     id="defs1948">
    <clipPath
       clipPathUnits="userSpaceOnUse"
       id="clipPath1732-4-1-2">
      <circle
         style="opacity:0.67900002;fill:#333333;fill-opacity:1;stroke:none;stroke-width:2.17707753;stroke-miterlimit:4;stroke-dasharray:none;stroke-opacity:1"
         id="circle1734-9-5-3"
         cx="232.08441"
         cy="38.650665"
         r="36" />
    </clipPath>
  </defs>
  <sodipodi:namedview
     id="base"
     pagecolor="#ffffff"
     bordercolor="#666666"
     borderopacity="1.0"
     inkscape:pageopacity="0.0"
     inkscape:pageshadow="2"
     inkscape:zoom="0.35"
     inkscape:cx="-180"
     inkscape:cy="560"
     inkscape:document-units="mm"
     inkscape:current-layer="layer1"
     showgrid="false"
     inkscape:window-width="1366"
     inkscape:window-height="704"
     inkscape:window-x="0"
     inkscape:window-y="27"
     inkscape:window-maximized="1" />
  <metadata
     id="metadata1951">
    <rdf:RDF>
      <cc:Work
         rdf:about="">
        <dc:format>image/svg+xml</dc:format>
        <dc:type
           rdf:resource="http://purl.org/dc/dcmitype/StillImage" />
        <dc:title></dc:title>
      </cc:Work>
    </rdf:RDF>
  </metadata>
  <g
     inkscape:label="Layer 1"
     inkscape:groupmode="layer"
     id="layer1"
     transform="translate(0,-271.556)">
    <g
       transform="matrix(0.81479168,0,0,0.81479168,13.7068,-532.20331)"
       id="g1754-6-7-3"
       inkscape:export-xdpi="96"
       inkscape:export-ydpi="96">
      <circle
         style="opacity:1;fill:#8bc34a;fill-opacity:1;stroke:none;stroke-width:0.90711564;stroke-miterlimit:4;stroke-dasharray:none;stroke-opacity:1"
         id="path1658-8-9-0"
         cx="-1.1730093"
         cy="1002.038"
         r="15" />
      <g
         id="g1715-9-2-3"
         transform="matrix(0.41666667,0,0,0.41666667,-97.81051,985.9336)"
         style="fill:#ffffff"
         clip-path="url(#clipPath1732-4-1-2)">
        <path
           id="path1660-5-0-1"
           d="m 249.944,57.8115 -9.553,-4.776 c -0.901,-0.451 -1.461,-1.357 -1.461,-2.365 v -3.381 c 0.229,-0.28 0.47,-0.599 0.719,-0.951 1.239,-1.75 2.232,-3.698 2.954,-5.799 1.411,-0.647 2.327,-2.042 2.327,-3.617 v -4 c 0,-0.963 -0.36,-1.896 -1,-2.625 v -5.319 c 0.056,-0.55 0.276,-3.824 -2.092,-6.525 -2.054,-2.343 -5.387,-3.531 -9.908,-3.531 -4.521,0 -7.854,1.188 -9.908,3.53 -2.368,2.701 -2.148,5.976 -2.092,6.526 v 5.319 c -0.64,0.729 -1,1.662 -1,2.625 v 4 c 0,1.217 0.553,2.352 1.497,3.109 0.916,3.627 2.833,6.36 3.503,7.237 v 3.309 c 0,0.968 -0.528,1.856 -1.377,2.32 l -8.921,4.866 c -2.901,1.583 -4.702,4.617 -4.702,7.921 v 3.238 c 0,4.746 15.045,6 23,6 7.955,0 23,-1.254 23,-6 v -3.043 c 0,-3.438 -1.911,-6.53 -4.986,-8.068 z"
           inkscape:connector-curvature="0"
           style="fill:#ffffff" />
        <g
           id="g1662-7-4-8"
           style="fill:#ffffff" />
        <g
           id="g1664-8-1-0"
           style="fill:#ffffff" />
        <g
           id="g1666-7-1-9"
           style="fill:#ffffff" />
        <g
           id="g1668-6-5-7"
           style="fill:#ffffff" />
        <g
           id="g1670-6-0-2"
           style="fill:#ffffff" />
        <g
           id="g1672-5-8-8"
           style="fill:#ffffff" />
        <g
           id="g1674-5-0-0"
           style="fill:#ffffff" />
        <g
           id="g1676-9-5-5"
           style="fill:#ffffff" />
        <g
           id="g1678-5-6-0"
           style="fill:#ffffff" />
        <g
           id="g1680-5-9-8"
           style="fill:#ffffff" />
        <g
           id="g1682-2-3-0"
           style="fill:#ffffff" />
        <g
           id="g1684-7-5-9"
           style="fill:#ffffff" />
        <g
           id="g1686-6-8-1"
           style="fill:#ffffff" />
        <g
           id="g1688-6-9-4"
           style="fill:#ffffff" />
        <g
           id="g1690-2-2-8"
           style="fill:#ffffff" />
      </g>
    </g>
  </g>
</svg>
