<?xml version="1.0" encoding="UTF-8" standalone="no"?>
<!-- Created with Inkscape (http://www.inkscape.org/) -->

<svg
   xmlns:dc="http://purl.org/dc/elements/1.1/"
   xmlns:cc="http://creativecommons.org/ns#"
   xmlns:rdf="http://www.w3.org/1999/02/22-rdf-syntax-ns#"
   xmlns:svg="http://www.w3.org/2000/svg"
   xmlns="http://www.w3.org/2000/svg"
   xmlns:sodipodi="http://sodipodi.sourceforge.net/DTD/sodipodi-0.dtd"
   xmlns:inkscape="http://www.inkscape.org/namespaces/inkscape"
   width="7.5mm"
   height="8mm"
   viewBox="0 0 7.5 8"
   version="1.1"
   id="svg4802"
   inkscape:version="0.92.2 (5c3e80d, 2017-08-06)"
   sodipodi:docname="pythonIcon.svg">
  <defs
     id="defs4796" />
  <sodipodi:namedview
     id="base"
     pagecolor="#ffffff"
     bordercolor="#666666"
     borderopacity="1.0"
     inkscape:pageopacity="0.0"
     inkscape:pageshadow="2"
     inkscape:zoom="1"
     inkscape:cx="-110"
     inkscape:cy="148.58661"
     inkscape:document-units="mm"
     inkscape:current-layer="layer1"
     showgrid="false"
     inkscape:window-width="1366"
     inkscape:window-height="704"
     inkscape:window-x="0"
     inkscape:window-y="27"
     inkscape:window-maximized="1" />
  <metadata
     id="metadata4799">
    <rdf:RDF>
      <cc:Work
         rdf:about="">
        <dc:format>image/svg+xml</dc:format>
        <dc:type
           rdf:resource="http://purl.org/dc/dcmitype/StillImage" />
        <dc:title></dc:title>
      </cc:Work>
    </rdf:RDF>
  </metadata>
  <g
     inkscape:label="Layer 1"
     inkscape:groupmode="layer"
     id="layer1"
     transform="translate(0,-289)">
    <path
       style="fill:#8bc34a;fill-opacity:1;stroke-width:0.02973606"
       d="m 3.4575832,296.45593 c -0.40893,-0.0526 -0.78217,-0.18889 -1.02516,-0.37422 -0.0568,-0.0434 -0.13904,-0.1518 -0.18267,-0.24096 l -0.0793,-0.16214 0.0162,-0.73442 c 0.0215,-0.975 0.0858,-1.28642 0.30968,-1.49895 0.16215,-0.15393 0.28804,-0.17735 1.095101,-0.20355 1.04447,-0.0339 1.192499,-0.0462 1.422759,-0.11768 0.41324,-0.12831 0.61947,-0.47205 0.659871,-1.09982 0.009,-0.13901 0.0233,-0.32301 0.032,-0.40887 l 0.0158,-0.15611 h 0.335389 c 0.47656,0 0.61678,0.0601 0.80631,0.34563 0.54879,0.8268 0.37924,2.58703 -0.282499,2.93273 l -0.1566,0.0818 h -1.292102 -1.2921 l 0.009,0.0818 0.009,0.0818 0.84005,0.008 0.840041,0.008 v 0.35053 c 0,0.31609 -0.007,0.36548 -0.0758,0.50263 -0.17559,0.35237 -0.73547,0.58673 -1.47048,0.61554 -0.18808,0.007 -0.42894,0.002 -0.535251,-0.0115 z m 1.50563,-0.55929 c 0.19258,-0.15598 0.1566,-0.43713 -0.0679,-0.53096 -0.19245,-0.0804 -0.426649,0.0634 -0.426649,0.26206 0,0.10466 0.0699,0.24794 0.141239,0.28949 0.0825,0.0481 0.283031,0.0364 0.35336,-0.0206 z m -3.8167801,-1.15306 c -0.24621996,-0.1227 -0.43403996,-0.42967 -0.54880996,-0.89702 -0.0911,-0.37091 -0.0913,-1.04272 -4.5e-4,-1.41249 0.12163,-0.49514 0.36498,-0.86214 0.62288996,-0.93941 0.0836,-0.025 0.4910901,-0.0354 1.3880701,-0.0354 h 1.269741 l -0.009,-0.0818 -0.009,-0.0818 -0.84004,-0.008 -0.84005,-0.008 v -0.35054 c 0,-0.31608 0.007,-0.36547 0.0758,-0.50262 0.1227,-0.24623 0.42967,-0.43404 0.89702,-0.54882 0.371919,-0.0913 1.042629,-0.0913 1.414549,0 0.47507,0.11668 0.776691,0.30385 0.90184,0.55966 l 0.0792,0.16183 -0.0168,0.71984 c -0.0194,0.82769 -0.047,1.03381 -0.17305,1.29346 -0.17512,0.36057 -0.35235,0.40881 -1.64708,0.44823 -0.70388,0.0214 -0.89155,0.0361 -1.02128,0.0801 -0.21138,0.0716 -0.42387,0.26535 -0.50969,0.46481 -0.079,0.18357 -0.14662,0.53574 -0.14808,0.77087 -5.61e-4,0.0918 -0.01,0.22891 -0.0199,0.30478 l -0.0189,0.13797 h -0.34695 c -0.3122501,0 -0.3621601,-0.008 -0.4990501,-0.0758 z m 1.9067801,-3.83135 c 0.184141,-0.0769 0.245381,-0.25299 0.151311,-0.43491 -0.0565,-0.10927 -0.128671,-0.14826 -0.272801,-0.14743 -0.32699,0.002 -0.41884,0.44986 -0.11897,0.58028 0.11935,0.0519 0.12112,0.0519 0.24046,0.002 z"
       id="path8313"
       inkscape:connector-curvature="0" />
  </g>
</svg>
