<?xml version="1.0" encoding="UTF-8" standalone="no"?>
<!-- Created with Inkscape (http://www.inkscape.org/) -->

<svg
   xmlns:dc="http://purl.org/dc/elements/1.1/"
   xmlns:cc="http://creativecommons.org/ns#"
   xmlns:rdf="http://www.w3.org/1999/02/22-rdf-syntax-ns#"
   xmlns:svg="http://www.w3.org/2000/svg"
   xmlns="http://www.w3.org/2000/svg"
   xmlns:sodipodi="http://sodipodi.sourceforge.net/DTD/sodipodi-0.dtd"
   xmlns:inkscape="http://www.inkscape.org/namespaces/inkscape"
   width="6mm"
   height="8mm"
   viewBox="0 0 6 8"
   version="1.1"
   id="svg4802"
   inkscape:version="0.92.2 (5c3e80d, 2017-08-06)"
   sodipodi:docname="scalaIcon.svg">
  <defs
     id="defs4796" />
  <sodipodi:namedview
     id="base"
     pagecolor="#ffffff"
     bordercolor="#666666"
     borderopacity="1.0"
     inkscape:pageopacity="0.0"
     inkscape:pageshadow="2"
     inkscape:zoom="1"
     inkscape:cx="-110"
     inkscape:cy="148.58661"
     inkscape:document-units="mm"
     inkscape:current-layer="layer1"
     showgrid="false"
     inkscape:window-width="1366"
     inkscape:window-height="704"
     inkscape:window-x="0"
     inkscape:window-y="27"
     inkscape:window-maximized="1" />
  <metadata
     id="metadata4799">
    <rdf:RDF>
      <cc:Work
         rdf:about="">
        <dc:format>image/svg+xml</dc:format>
        <dc:type
           rdf:resource="http://purl.org/dc/dcmitype/StillImage" />
        <dc:title></dc:title>
      </cc:Work>
    </rdf:RDF>
  </metadata>
  <g
     inkscape:label="Layer 1"
     inkscape:groupmode="layer"
     id="layer1"
     transform="translate(0,-289)">
    <g
       transform="matrix(0.01183647,0,0,0.01183647,-5.5623994,294.75899)"
       id="g8591">
      <g
         id="g8532" />
      <g
         id="g8534" />
      <g
         id="g8536" />
      <g
         id="g8538" />
      <g
         id="g8540" />
      <g
         id="g8542" />
      <g
         id="g8544" />
      <g
         id="g8546" />
      <g
         id="g8548" />
      <g
         id="g8550" />
      <g
         id="g8552" />
      <g
         id="g8554" />
      <g
         id="g8556" />
      <g
         id="g8558" />
      <g
         id="g8560" />
      <g
         transform="translate(477.85328,-426.95338)"
         id="g8627">
        <path
           id="path8520"
           d="m 430.497,181.71 c 0,-13.776 -31.379,-33.293 -87.632,-30.614 -56.253,2.678 -254.097,32.371 -261.368,74.543 0,0 31.284,13.568 155.271,21.891 123.987,8.323 182.249,-40.18 182.249,-40.18 z"
           style="fill:#8b8a4a;fill-opacity:1"
           inkscape:connector-curvature="0" />
        <path
           id="path8522"
           d="m 430.497,138.772 c -5.74,33.293 -113.655,50.896 -188.659,63.141 C 166.833,214.158 102.545,215.69 81.497,225.64 V 95.608 c 21.047,-9.95 85.337,-11.48 160.342,-23.725 75.005,-12.245 182.919,-29.85 188.658,-63.142 z"
           style="fill:#8bc34a;fill-opacity:1"
           inkscape:connector-curvature="0" />
        <path
           id="path8524"
           d="m 430.497,354.679 c 0,-13.776 -31.379,-33.293 -87.632,-30.614 -56.253,2.678 -254.097,32.371 -261.368,74.543 0,0 31.284,13.568 155.271,21.891 123.987,8.324 182.249,-40.181 182.249,-40.181 z"
           style="fill:#8b8a4a;fill-opacity:1"
           inkscape:connector-curvature="0" />
        <g
           id="g8530">
          <path
             id="path8526"
             d="m 430.497,311.741 c -5.74,33.293 -113.655,50.896 -188.659,63.141 -75.005,12.245 -139.293,13.777 -160.341,23.726 V 268.577 c 21.047,-9.95 85.337,-11.48 160.342,-23.725 75.005,-12.245 182.919,-29.849 188.659,-63.141 v 130.03 z"
             style="fill:#8bc34a;fill-opacity:1"
             inkscape:connector-curvature="0" />
        </g>
        <path
           id="path8522-3"
           d="m 430.497,484.70996 c -5.74,33.293 -113.655,50.896 -188.659,63.141 -75.005,12.245 -139.293,13.777 -160.341,23.727 v -130.032 c 21.047,-9.95 85.337,-11.48 160.342,-23.725 75.005,-12.245 182.919,-29.85 188.658,-63.14196 z"
           style="fill:#8bc34a;fill-opacity:1"
           inkscape:connector-curvature="0" />
      </g>
    </g>
  </g>
</svg>
