<?xml version="1.0" encoding="UTF-8" standalone="no"?>
<!-- Created with Inkscape (http://www.inkscape.org/) -->

<svg
   xmlns:dc="http://purl.org/dc/elements/1.1/"
   xmlns:cc="http://creativecommons.org/ns#"
   xmlns:rdf="http://www.w3.org/1999/02/22-rdf-syntax-ns#"
   xmlns:svg="http://www.w3.org/2000/svg"
   xmlns="http://www.w3.org/2000/svg"
   xmlns:sodipodi="http://sodipodi.sourceforge.net/DTD/sodipodi-0.dtd"
   xmlns:inkscape="http://www.inkscape.org/namespaces/inkscape"
   width="7.0500002mm"
   height="7.0500002mm"
   viewBox="0 0 7.0500003 7.0500002"
   version="1.1"
   id="svg1954"
   inkscape:version="0.92.2 (5c3e80d, 2017-08-06)"
   sodipodi:docname="slackImage.svg">
  <defs
     id="defs1948">
    <clipPath
       clipPathUnits="userSpaceOnUse"
       id="clipPath1732-4-1-2">
      <circle
         style="opacity:0.67900002;fill:#333333;fill-opacity:1;stroke:none;stroke-width:2.17707753;stroke-miterlimit:4;stroke-dasharray:none;stroke-opacity:1"
         id="circle1734-9-5-3"
         cx="232.08441"
         cy="38.650665"
         r="36" />
    </clipPath>
  </defs>
  <sodipodi:namedview
     id="base"
     pagecolor="#ffffff"
     bordercolor="#666666"
     borderopacity="1.0"
     inkscape:pageopacity="0.0"
     inkscape:pageshadow="2"
     inkscape:zoom="1.979899"
     inkscape:cx="135.39194"
     inkscape:cy="95.125002"
     inkscape:document-units="mm"
     inkscape:current-layer="layer1"
     showgrid="false"
     inkscape:window-width="1366"
     inkscape:window-height="704"
     inkscape:window-x="0"
     inkscape:window-y="27"
     inkscape:window-maximized="1" />
  <metadata
     id="metadata1951">
    <rdf:RDF>
      <cc:Work
         rdf:about="">
        <dc:format>image/svg+xml</dc:format>
        <dc:type
           rdf:resource="http://purl.org/dc/dcmitype/StillImage" />
        <dc:title></dc:title>
      </cc:Work>
    </rdf:RDF>
  </metadata>
  <g
     inkscape:label="Layer 1"
     inkscape:groupmode="layer"
     id="layer1"
     transform="translate(0,-289.95)">
    <g
       id="g7326"
       transform="matrix(0.01181668,0,0,0.01181668,0.52916975,290.42075)"
       inkscape:export-xdpi="96"
       inkscape:export-ydpi="96">
      <g
         id="g7269">
        <g
           id="g7267">
          <path
             id="path7265"
             d="m 509.762,274.567 c -7.776,-23.968 -33.504,-37.056 -57.472,-29.28 l -45.952,14.944 c -10.176,-31.36 -21.024,-64.704 -31.2,-96 27.936,-9.088 45.952,-14.944 45.952,-14.944 23.968,-7.776 37.056,-33.504 29.28,-57.472 -7.776,-23.968 -33.504,-37.056 -57.472,-29.28 L 346.946,77.479 C 337.858,49.543 332.002,31.527 332.002,31.527 324.258,7.591 298.53,-5.529 274.562,2.247 c -23.968,7.776 -37.056,33.504 -29.28,57.472 l 14.944,45.952 -96,31.2 C 155.17,108.935 149.314,90.919 149.314,90.919 141.506,66.951 115.778,53.831 91.842,61.639 67.874,69.415 54.754,95.143 62.562,119.079 l 14.944,45.984 -47.424,15.424 c -22.4,8.096 -34.976,32.256 -28.288,55.488 6.976,24.192 32.672,38.944 56.448,31.232 0.192,-0.064 18.848,-6.112 47.424,-15.424 l 31.2,96 -47.424,15.424 c -22.368,8.096 -34.944,32.256 -28.288,55.488 6.976,24.192 32.672,38.976 56.448,31.232 0.192,-0.064 18.848,-6.112 47.456,-15.424 l 15.424,47.424 c 8.096,22.368 32.256,34.944 55.488,28.288 24.192,-6.976 38.976,-32.672 31.232,-56.448 -0.064,-0.192 -6.112,-18.816 -15.392,-47.424 31.36,-10.176 64.704,-21.024 96,-31.2 l 15.424,47.424 c 8.096,22.368 32.256,34.944 55.488,28.288 24.192,-6.976 38.976,-32.672 31.232,-56.448 -0.064,-0.192 -6.112,-18.816 -15.424,-47.424 27.936,-9.088 45.952,-14.944 45.952,-14.944 23.936,-7.776 37.056,-33.504 29.28,-57.472 z m -286.144,45.056 c -10.208,-31.36 -21.024,-64.704 -31.2,-96 31.36,-10.176 64.704,-21.024 96,-31.2 l 31.2,96 z"
             inkscape:connector-curvature="0" />
        </g>
      </g>
      <g
         id="g7271" />
      <g
         id="g7273" />
      <g
         id="g7275" />
      <g
         id="g7277" />
      <g
         id="g7279" />
      <g
         id="g7281" />
      <g
         id="g7283" />
      <g
         id="g7285" />
      <g
         id="g7287" />
      <g
         id="g7289" />
      <g
         id="g7291" />
      <g
         id="g7293" />
      <g
         id="g7295" />
      <g
         id="g7297" />
      <g
         id="g7299" />
    </g>
  </g>
</svg>
