<?xml version="1.0" encoding="UTF-8" standalone="no"?>
<!-- Created with Inkscape (http://www.inkscape.org/) -->

<svg
   xmlns:dc="http://purl.org/dc/elements/1.1/"
   xmlns:cc="http://creativecommons.org/ns#"
   xmlns:rdf="http://www.w3.org/1999/02/22-rdf-syntax-ns#"
   xmlns:svg="http://www.w3.org/2000/svg"
   xmlns="http://www.w3.org/2000/svg"
   xmlns:sodipodi="http://sodipodi.sourceforge.net/DTD/sodipodi-0.dtd"
   xmlns:inkscape="http://www.inkscape.org/namespaces/inkscape"
   width="8.6820002mm"
   height="7.98mm"
   viewBox="0 0 8.6820003 7.9800001"
   version="1.1"
   id="svg23677"
   inkscape:version="0.92.2 (5c3e80d, 2017-08-06)"
   sodipodi:docname="sonarcubeIconWhite.svg">
  <defs
     id="defs23671" />
  <sodipodi:namedview
     id="base"
     pagecolor="#ffffff"
     bordercolor="#666666"
     borderopacity="1.0"
     inkscape:pageopacity="0.0"
     inkscape:pageshadow="2"
     inkscape:zoom="0.75"
     inkscape:cx="-380.66667"
     inkscape:cy="-80"
     inkscape:document-units="mm"
     inkscape:current-layer="layer1"
     showgrid="false"
     inkscape:window-width="1366"
     inkscape:window-height="704"
     inkscape:window-x="0"
     inkscape:window-y="27"
     inkscape:window-maximized="1" />
  <metadata
     id="metadata23674">
    <rdf:RDF>
      <cc:Work
         rdf:about="">
        <dc:format>image/svg+xml</dc:format>
        <dc:type
           rdf:resource="http://purl.org/dc/dcmitype/StillImage" />
        <dc:title></dc:title>
      </cc:Work>
    </rdf:RDF>
  </metadata>
  <g
     inkscape:label="Layer 1"
     inkscape:groupmode="layer"
     id="layer1"
     transform="translate(0,-289.02)">
    <path
       sodipodi:nodetypes="ccsscccssccccccccccccsc"
       inkscape:connector-curvature="0"
       id="path18418-8-0"
       d="m 6.6016767,296.3173 c -0.23559,-1.6645 -0.98176,-2.9705 -2.2908699,-4.0095 -0.9399601,-0.746 -2.4076801,-1.2985 -3.44955013,-1.2985 -0.3072,0 -0.33209,-0.015 -0.33209,-0.1937 v -0.1935 l 0.58036003,0.053 c 1.95258,0.1786 3.74194,1.2506 4.8276201,2.8923 0.6178299,0.9341 1.03202,2.1636 1.03202,3.063 0,0.3066 -0.023201,0.3696 -0.1354399,0.3696 -0.1136901,0 -0.1509601,-0.1096 -0.2320502,-0.6827 z m 0.6312601,-1.9294 c -0.5367401,-1.7129 -2.15501,-3.3401 -3.8769102,-3.8983 -0.2590999,-0.084 -0.3648099,-0.2433 -0.2205599,-0.3325 0.0331,-0.021 0.33556,0.076 0.67205,0.2133 1.6482401,0.6747 3.0312201,2.1208 3.6203501,3.7856 0.1919802,0.5425 0.1968702,0.5848 0.0715,0.6176 -0.1079605,0.028 -0.1607104,-0.048 -0.2664403,-0.3857 z m 0.14672,-2.0427 c -0.40043,-0.6488 -1.0569599,-1.3902 -1.5773601,-1.7813 -0.5993599,-0.4504 -0.5787499,-0.4298 -0.5217899,-0.5219 0.1098799,-0.1779 1.23536,0.7556 1.7983499,1.4914 0.3609401,0.4718 0.7140403,1.0583 0.7140403,1.1861 0,0.193 -0.14305,0.064 -0.4132402,-0.3743 z"
       style="fill:#fffeff;fill-opacity:1;stroke-width:0.07488361"
       inkscape:export-xdpi="96"
       inkscape:export-ydpi="96" />
  </g>
</svg>
