<?xml version="1.0" encoding="UTF-8" standalone="no"?>
<!-- Created with Inkscape (http://www.inkscape.org/) -->

<svg
   xmlns:dc="http://purl.org/dc/elements/1.1/"
   xmlns:cc="http://creativecommons.org/ns#"
   xmlns:rdf="http://www.w3.org/1999/02/22-rdf-syntax-ns#"
   xmlns:svg="http://www.w3.org/2000/svg"
   xmlns="http://www.w3.org/2000/svg"
   xmlns:sodipodi="http://sodipodi.sourceforge.net/DTD/sodipodi-0.dtd"
   xmlns:inkscape="http://www.inkscape.org/namespaces/inkscape"
   width="7.6820002mm"
   height="7.98mm"
   viewBox="0 0 7.6820003 7.9800001"
   version="1.1"
   id="svg23677"
   inkscape:version="0.92.2 (5c3e80d, 2017-08-06)"
   sodipodi:docname="stackIconWhite.svg">
  <defs
     id="defs23671" />
  <sodipodi:namedview
     id="base"
     pagecolor="#ffffff"
     bordercolor="#666666"
     borderopacity="1.0"
     inkscape:pageopacity="0.0"
     inkscape:pageshadow="2"
     inkscape:zoom="0.75"
     inkscape:cx="-333.50258"
     inkscape:cy="-80"
     inkscape:document-units="mm"
     inkscape:current-layer="layer1"
     showgrid="false"
     inkscape:window-width="1366"
     inkscape:window-height="704"
     inkscape:window-x="0"
     inkscape:window-y="27"
     inkscape:window-maximized="1" />
  <metadata
     id="metadata23674">
    <rdf:RDF>
      <cc:Work
         rdf:about="">
        <dc:format>image/svg+xml</dc:format>
        <dc:type
           rdf:resource="http://purl.org/dc/dcmitype/StillImage" />
        <dc:title></dc:title>
      </cc:Work>
    </rdf:RDF>
  </metadata>
  <g
     inkscape:label="Layer 1"
     inkscape:groupmode="layer"
     id="layer1"
     transform="translate(0,-289.02)">
    <path
       inkscape:connector-curvature="0"
       id="path18337-7-8"
       d="m 3.3649662,296.41285 c -0.18197,-0.09 -0.2461,-0.2013 -0.40187,-0.6996 -0.0797,-0.2551 -0.15595,-0.4758 -0.1693,-0.4903 -0.0134,-0.015 -0.2388,0.046 -0.50097,0.1351 -0.58595,0.1985 -0.75168,0.2005 -0.93908,0.011 -0.16008,-0.1616 -0.22273,-0.3955 -0.16105,-0.6013 0.0728,-0.243 0.1819,-0.3192 0.72974,-0.5094 0.27287,-0.094 0.50293,-0.1778 0.51128,-0.1847 0.008,-0.01 -0.0615,-0.2577 -0.15522,-0.5574 l -0.17036,-0.5448 -0.46343,0.1554 c -0.25489,0.086 -0.51673,0.1555 -0.58185,0.1555 -0.35552003,0 -0.62335003,-0.4023 -0.50552003,-0.7592 0.0736,-0.223 0.20641,-0.3161 0.69070003,-0.4835 0.24564,-0.085 0.46141,-0.1635 0.47943,-0.1747 0.0182,-0.012 -0.0292,-0.2159 -0.10713,-0.4619 -0.0769,-0.243 -0.14011,-0.4941 -0.14036,-0.558 -0.001,-0.2579 0.1607,-0.4644 0.42613,-0.5439 0.18231,-0.054 0.36592,-0.013 0.5133,0.1164 0.10546,0.092 0.14458,0.176 0.26941,0.5741 0.0803,0.2562 0.15103,0.4714 0.15713,0.4783 0.0107,0.013 1.117191,-0.3463 1.14589,-0.3711 0.007,-0.01 -0.054,-0.2365 -0.13726,-0.5107 -0.16264,-0.5356 -0.16979,-0.677 -0.0429,-0.8486 0.11995,-0.162 0.2856501,-0.2489 0.4747711,-0.2489 0.357859,0 0.452809,0.1068 0.651679,0.7325 l 0.16051,0.505 0.39626,-0.1428 c 0.32634,-0.1175 0.43012,-0.1401 0.588021,-0.1281 0.169709,0.013 0.207029,0.032 0.324939,0.1575 0.17062,0.1829 0.21184,0.3975 0.12173,0.6334 -0.0777,0.2033 -0.21142,0.2907 -0.67384,0.4402 -0.19489,0.063 -0.36771,0.1267 -0.38405,0.1416 -0.0242,0.022 0.2676,1.0465 0.31027,1.0892 0.007,0.01 0.17542,-0.044 0.3744,-0.1133 0.19898,-0.069 0.42802,-0.1259 0.50896,-0.1259 0.36394,4e-4 0.630441,0.3869 0.52027,0.7546 -0.0728,0.2432 -0.21703,0.3514 -0.66781,0.5014 -0.28822,0.095 -0.39583,0.1469 -0.38262,0.1814 0.10623,0.2767 0.26983,0.8849 0.26983,1.003 0,0.2579 -0.14753,0.4503 -0.41203,0.5376 -0.17714,0.059 -0.35041,0.014 -0.51161,-0.1318 -0.12478,-0.1128 -0.15567,-0.1772 -0.28767,-0.6004 -0.0845,-0.2708 -0.16653,-0.4741 -0.19138,-0.4741 -0.0396,0 -1.0807101,0.351 -1.1066101,0.373 -0.006,0 0.0561,0.2225 0.1382301,0.4827 0.0848,0.2687 0.14839,0.5392 0.14715,0.6261 -0.005,0.3992 -0.4494001,0.6596 -0.8161401,0.479 z m 1.1711501,-3.6189 c -0.0873,-0.2866 -0.171269,-0.5345 -0.18653,-0.551 -0.0411,-0.044 -1.1330701,0.3383 -1.1334401,0.3972 -1.3e-4,0.026 0.0719,0.2763 0.16005,0.5551 l 0.1604,0.5067 0.5791601,-0.1934 0.57916,-0.1934 z"
       style="fill:#ffffff;fill-opacity:1;stroke-width:0.03543523"
       inkscape:export-xdpi="96"
       inkscape:export-ydpi="96" />
  </g>
</svg>
