<?xml version="1.0" encoding="UTF-8" standalone="no"?>
<!-- Created with Inkscape (http://www.inkscape.org/) -->

<svg
   xmlns:dc="http://purl.org/dc/elements/1.1/"
   xmlns:cc="http://creativecommons.org/ns#"
   xmlns:rdf="http://www.w3.org/1999/02/22-rdf-syntax-ns#"
   xmlns:svg="http://www.w3.org/2000/svg"
   xmlns="http://www.w3.org/2000/svg"
   xmlns:sodipodi="http://sodipodi.sourceforge.net/DTD/sodipodi-0.dtd"
   xmlns:inkscape="http://www.inkscape.org/namespaces/inkscape"
   width="7.8699999mm"
   height="8.3940001mm"
   viewBox="0 0 7.8699996 8.394"
   version="1.1"
   id="svg9712"
   inkscape:version="0.92.2 (5c3e80d, 2017-08-06)"
   sodipodi:docname="webIcon.svg">
  <defs
     id="defs9706" />
  <sodipodi:namedview
     id="base"
     pagecolor="#ffffff"
     bordercolor="#666666"
     borderopacity="1.0"
     inkscape:pageopacity="0.0"
     inkscape:pageshadow="2"
     inkscape:zoom="1.979899"
     inkscape:cx="159.13388"
     inkscape:cy="57.670198"
     inkscape:document-units="mm"
     inkscape:current-layer="layer1"
     showgrid="false"
     inkscape:window-width="1366"
     inkscape:window-height="704"
     inkscape:window-x="0"
     inkscape:window-y="27"
     inkscape:window-maximized="1" />
  <metadata
     id="metadata9709">
    <rdf:RDF>
      <cc:Work
         rdf:about="">
        <dc:format>image/svg+xml</dc:format>
        <dc:type
           rdf:resource="http://purl.org/dc/dcmitype/StillImage" />
        <dc:title></dc:title>
      </cc:Work>
    </rdf:RDF>
  </metadata>
  <g
     inkscape:label="Layer 1"
     inkscape:groupmode="layer"
     id="layer1"
     transform="translate(0,-288.606)">
    <g
       inkscape:export-ydpi="96"
       inkscape:export-xdpi="96"
       id="g4903-0-4"
       transform="matrix(0.16743754,0,0,0.16955615,-25.21917,281.44579)"
       style="fill:#8bc34a;fill-opacity:1">
      <path
         inkscape:connector-curvature="0"
         id="path128-2-8"
         style="fill:#8bc34a;fill-opacity:1;fill-rule:nonzero;stroke:none;stroke-width:0.03527778"
         d="m 173.17695,56.33758 c -2.33221,-0.13935 -4.58188,-0.71261 -6.65656,-1.68063 1.61678,-2.882196 3.88232,-5.310363 6.65656,-7.028743 z m 0,8.17704 h -9.4174 c 0.12665,-2.82081 0.7553,-5.51604 1.81751,-7.95726 2.36432,1.11125 4.93571,1.75966 7.59989,1.90147 z m 0,8.17245 c -2.66418,0.14287 -5.23557,0.79128 -7.59989,1.90253 -1.06221,-2.44122 -1.69086,-5.13751 -1.81751,-7.95832 h 9.4174 z m 0,10.83133 c -2.77424,-1.71908 -5.03978,-4.1462 -6.65621,-7.02839 2.07433,-0.96837 4.324,-1.54164 6.65621,-1.68063 z m -11.0423,-4.15466 c 0.76306,-0.67381 1.57551,-1.27459 2.42465,-1.80658 1.19309,2.13325 2.70968,4.04319 4.50144,5.6515 -2.59327,-0.77117 -4.94771,-2.09902 -6.92609,-3.84492 z m -6.20642,-12.73246 h 5.59682 c 0.13088,3.20146 0.85337,6.2604 2.0828,9.02406 -1.04986,0.64382 -2.04858,1.38289 -2.98167,2.21862 -2.71745,-3.01625 -4.45241,-6.93279 -4.69795,-11.24268 z m 4.69795,-13.359336 c 0.93309,0.835726 1.93181,1.575856 2.98167,2.218616 -1.22943,2.76366 -1.95192,5.82295 -2.0828,9.02406 h -5.59682 c 0.24554,-4.30918 1.9805,-8.22608 4.69795,-11.242676 z m 8.43456,-5.333646 c -1.79176,1.607609 -3.30835,3.518256 -4.50144,5.651492 -0.84949,-0.531976 -1.66159,-1.132766 -2.42465,-1.806916 1.97838,-1.746606 4.33282,-3.074109 6.92609,-3.844576 z m 6.34859,10.520532 c 2.66241,-0.14181 5.23169,-0.78951 7.59495,-1.89935 1.06433,2.44298 1.6951,5.13856 1.8221,7.95514 h -9.41705 z m 0,-10.829918 c 2.77036,1.718381 5.03378,4.149372 6.65057,7.030148 -2.07293,0.96732 -4.32083,1.53917 -6.65057,1.67852 z m 11.04194,4.153962 c -0.76411,0.67486 -1.57762,1.27705 -2.42887,1.809386 -1.1938,-2.134296 -2.7118,-4.047059 -4.50321,-5.656078 2.59574,0.770466 4.95194,2.098674 6.93208,3.846692 z m 6.20642,12.731746 h -5.59682 c -0.13158,-3.19617 -0.85654,-6.25475 -2.08773,-9.02053 1.05198,-0.64417 2.05175,-1.38501 2.98661,-2.222146 2.71745,3.016596 4.45241,6.933496 4.69794,11.242676 z m -10.85003,17.83891 c -0.73907,0.33196 -1.50107,0.62265 -2.28847,0.85619 0.75741,-0.6798 1.46262,-1.41711 2.11808,-2.19992 l -0.40393,-3.18594 c -1.52965,2.29659 -3.49497,4.24921 -5.82401,5.69419 v -8.70867 c 1.94133,0.11571 3.82411,0.53657 5.59752,1.2319 l -0.29915,-2.35973 c -1.69898,-0.55669 -3.47592,-0.89641 -5.29837,-0.99448 v -6.05579 h 9.41705 c -0.078,1.72756 -0.34713,3.40854 -0.7874,5.01403 l 1.86725,1.53741 c 0.66252,-2.07822 1.06081,-4.27814 1.15464,-6.55144 h 5.59682 c -0.19861,3.49003 -1.37477,6.72148 -3.25755,9.42658 l 1.63689,1.34761 c 2.37137,-3.34645 3.77014,-7.42809 3.77014,-11.83252 0,-5.29555 -2.01754,-10.12931 -5.32412,-13.772796 l 0.0257,-0.0254 -0.7553,-0.75036 c -3.34785,-3.328101 -7.64398,-5.359043 -12.27313,-5.84764 -0.0346,-0.0035 -0.0684,-0.0088 -0.10301,-0.01235 -0.28257,-0.02822 -0.56656,-0.04833 -0.85125,-0.06491 -0.0639,-0.0042 -0.127,-0.01094 -0.19085,-0.01376 -0.11924,-0.006 -0.23919,-0.006 -0.35878,-0.01023 -0.45967,-0.03669 -0.93239,-0.06209 -1.41993,-0.06844 -0.14711,-0.0025 -0.28751,0.03316 -0.42192,0.08714 -0.025,0.0011 -0.0497,0.0039 -0.0744,0.0053 -0.28504,0.01658 -0.56903,0.03669 -0.8516,0.06491 -0.0342,0.0035 -0.0684,0.0088 -0.10301,0.01235 -4.62915,0.488597 -8.92493,2.519539 -12.27314,5.84764 l -0.75495,0.75036 0.0254,0.0254 c -3.30658,3.643486 -5.32412,8.477246 -5.32412,13.772796 0,5.2966 2.01754,10.13001 5.32412,13.7728 l -0.0254,0.0257 0.75495,0.75106 c 3.34821,3.32705 7.64399,5.35834 12.27314,5.84694 0.0346,0.003 0.0688,0.009 0.10301,0.0124 0.28257,0.0282 0.56656,0.0483 0.8516,0.0653 0.0247,10e-4 0.0494,0.004 0.0744,0.006 0.13088,0.0519 0.26705,0.0861 0.40816,0.0861 0.004,0 0.009,0 0.0138,0 0.48754,-0.006 0.96026,-0.0318 1.41993,-0.0681 0.11959,-0.004 0.23954,-0.004 0.35878,-0.01 0.0639,-0.003 0.127,-0.0102 0.19085,-0.0138 0.28469,-0.0169 0.56868,-0.037 0.85125,-0.0653 0.0346,-0.004 0.0684,-0.009 0.10301,-0.0124 1.9431,-0.20461 3.82623,-0.68509 5.60635,-1.41605 l -0.27905,-2.19992" />
      <path
         inkscape:connector-curvature="0"
         id="path130-5-9"
         style="fill:#8bc34a;fill-opacity:1;fill-rule:nonzero;stroke:none;stroke-width:0.03527778"
         d="m 192.31761,80.28696 -10.4394,-8.59261 1.70145,13.41367 3.07446,-1.69616 2.86985,5.20207 2.58939,-1.4284 -2.86985,-5.20206 3.0741,-1.69651" />
    </g>
  </g>
</svg>
