<?xml version="1.0" encoding="UTF-8" standalone="no"?>
<!-- Created with Inkscape (http://www.inkscape.org/) -->

<svg
   xmlns:dc="http://purl.org/dc/elements/1.1/"
   xmlns:cc="http://creativecommons.org/ns#"
   xmlns:rdf="http://www.w3.org/1999/02/22-rdf-syntax-ns#"
   xmlns:svg="http://www.w3.org/2000/svg"
   xmlns="http://www.w3.org/2000/svg"
   xmlns:sodipodi="http://sodipodi.sourceforge.net/DTD/sodipodi-0.dtd"
   xmlns:inkscape="http://www.inkscape.org/namespaces/inkscape"
   width="14.328mm"
   height="14.328mm"
   viewBox="0 0 14.328 14.328"
   version="1.1"
   id="svg1954"
   inkscape:version="0.92.2 (5c3e80d, 2017-08-06)"
   sodipodi:docname="workspaceImage.svg">
  <defs
     id="defs1948">
    <clipPath
       clipPathUnits="userSpaceOnUse"
       id="clipPath1732-4-1-2">
      <circle
         style="opacity:0.67900002;fill:#333333;fill-opacity:1;stroke:none;stroke-width:2.17707753;stroke-miterlimit:4;stroke-dasharray:none;stroke-opacity:1"
         id="circle1734-9-5-3"
         cx="232.08441"
         cy="38.650665"
         r="36" />
    </clipPath>
  </defs>
  <sodipodi:namedview
     id="base"
     pagecolor="#ffffff"
     bordercolor="#666666"
     borderopacity="1.0"
     inkscape:pageopacity="0.0"
     inkscape:pageshadow="2"
     inkscape:zoom="1.979899"
     inkscape:cx="135.39194"
     inkscape:cy="104.9144"
     inkscape:document-units="mm"
     inkscape:current-layer="layer1"
     showgrid="false"
     inkscape:window-width="1366"
     inkscape:window-height="704"
     inkscape:window-x="0"
     inkscape:window-y="27"
     inkscape:window-maximized="1" />
  <metadata
     id="metadata1951">
    <rdf:RDF>
      <cc:Work
         rdf:about="">
        <dc:format>image/svg+xml</dc:format>
        <dc:type
           rdf:resource="http://purl.org/dc/dcmitype/StillImage" />
        <dc:title></dc:title>
      </cc:Work>
    </rdf:RDF>
  </metadata>
  <g
     inkscape:label="Layer 1"
     inkscape:groupmode="layer"
     id="layer1"
     transform="translate(0,-282.672)">
    <g
       style="fill:#8bc34a;fill-opacity:1"
       transform="matrix(0.02603145,0,0,0.02603145,0.52916016,283.14279)"
       id="g2075-9-6"
       inkscape:export-xdpi="96"
       inkscape:export-ydpi="96">
      <g
         style="fill:#8bc34a;fill-opacity:1"
         id="g2013-8-2">
        <g
           style="fill:#8bc34a;fill-opacity:1"
           id="g2011-6-7">
          <g
             style="fill:#8bc34a;fill-opacity:1"
             id="g2009-3-7">
            <path
               style="fill:#8bc34a;fill-opacity:1"
               inkscape:connector-curvature="0"
               d="m 213.333,213.331 c 0,-2.263 -0.899,-4.433 -2.5,-6.033 -1.6,-1.601 -3.77,-2.5 -6.033,-2.5 -2.263,0 -4.433,0.899 -6.033,2.5 L 156.1,249.965 c -1.601,1.6 -2.5,3.77 -2.5,6.033 0,2.263 0.899,4.434 2.5,6.033 l 42.667,42.667 c 3.332,3.332 8.735,3.332 12.067,0 3.332,-3.332 3.332,-8.734 0,-12.067 L 174.2,255.998 210.834,219.364 c 1.6,-1.599 2.499,-3.77 2.499,-6.033 z"
               id="path1999-9-9" />
            <path
               style="fill:#8bc34a;fill-opacity:1"
               inkscape:connector-curvature="0"
               d="m 313.233,207.298 c -3.341,-3.281 -8.701,-3.256 -12.012,0.054 -3.311,3.311 -3.335,8.671 -0.054,12.012 l 36.633,36.634 -36.634,36.634 c -2.178,2.151 -3.037,5.304 -2.251,8.262 0.786,2.958 3.097,5.269 6.055,6.055 2.958,0.786 6.111,-0.073 8.262,-2.251 l 42.667,-42.667 c 1.601,-1.6 2.5,-3.77 2.5,-6.033 0,-2.263 -0.899,-4.433 -2.5,-6.033 z"
               id="path2001-6-4" />
            <path
               style="fill:#8bc34a;fill-opacity:1"
               inkscape:connector-curvature="0"
               d="m 275.412,188.056 c -4.531,-1.275 -9.242,1.345 -10.55,5.867 L 230.729,313.39 c -1.292,4.531 1.33,9.252 5.858,10.55 0.765,0.214 1.556,0.323 2.35,0.325 3.809,-0.003 7.154,-2.529 8.2,-6.192 L 281.27,198.606 c 1.293,-4.53 -1.329,-9.251 -5.858,-10.55 z"
               id="path2003-8-1" />
            <path
               style="fill:#8bc34a;fill-opacity:1"
               inkscape:connector-curvature="0"
               d="m 256,93.865 c -89.544,0 -162.133,72.59 -162.133,162.133 0,89.543 72.589,162.133 162.133,162.133 89.544,0 162.133,-72.59 162.133,-162.133 C 418.032,166.496 345.502,93.966 256,93.865 Z m 0,307.2 c -80.118,0 -145.067,-64.949 -145.067,-145.067 0,-80.118 64.949,-145.067 145.067,-145.067 80.118,0 145.067,64.949 145.067,145.067 -0.09,80.081 -64.986,144.977 -145.067,145.067 z"
               id="path2005-7-5" />
            <path
               style="fill:#8bc34a;fill-opacity:1"
               inkscape:connector-curvature="0"
               d="m 510.583,228.957 c -0.342,-3.135 -2.385,-5.827 -5.313,-7 l -51.938,-20.792 c -4.465,-16 -10.868,-31.395 -19.067,-45.842 l 22.062,-51.525 c 1.242,-2.897 0.783,-6.243 -1.192,-8.7 -11.376,-14.042 -24.189,-26.856 -38.229,-38.233 -2.459,-1.977 -5.809,-2.436 -8.708,-1.192 L 356.669,77.732 C 342.225,69.53 326.831,63.127 310.832,58.665 l -20.8,-51.942 c -1.172,-2.926 -3.862,-4.967 -6.996,-5.309 -17.976,-1.883 -36.099,-1.883 -54.075,0 -3.133,0.341 -5.823,2.383 -6.996,5.308 l -20.8,51.942 c -16,4.462 -31.393,10.865 -45.837,19.067 L 103.8,55.673 c -2.9,-1.246 -6.25,-0.787 -8.708,1.192 -14.038,11.381 -26.85,24.195 -38.229,38.233 -1.975,2.457 -2.433,5.803 -1.192,8.7 l 22.063,51.525 C 69.535,169.77 63.132,185.165 58.667,201.165 L 6.729,221.956 c -2.927,1.174 -4.97,3.865 -5.312,7 -1.889,17.978 -1.889,36.105 0,54.083 0.343,3.135 2.385,5.827 5.312,7 l 51.938,20.792 c 4.465,16 10.868,31.395 19.067,45.842 l -22.063,51.525 c -1.242,2.897 -0.783,6.243 1.192,8.7 11.376,14.042 24.189,26.856 38.229,38.233 2.46,1.975 5.808,2.433 8.708,1.192 l 51.529,-22.059 c 14.444,8.202 29.838,14.605 45.837,19.067 l 20.8,51.942 c 1.172,2.926 3.862,4.967 6.996,5.308 17.976,1.889 36.1,1.889 54.075,0 3.133,-0.341 5.823,-2.382 6.996,-5.308 l 20.8,-51.942 c 16,-4.462 31.393,-10.865 45.837,-19.067 l 51.529,22.059 c 2.9,1.24 6.248,0.782 8.708,-1.192 14.038,-11.381 26.85,-24.195 38.229,-38.233 1.975,-2.457 2.433,-5.803 1.192,-8.7 l -22.062,-51.525 c 8.199,-14.447 14.602,-29.842 19.066,-45.842 l 51.938,-20.792 c 2.927,-1.173 4.97,-3.864 5.313,-7 1.889,-17.977 1.889,-36.104 0,-54.082 z m -16.475,47.166 -51.088,20.45 c -2.53,1.014 -4.423,3.176 -5.096,5.817 -4.439,17.344 -11.352,33.959 -20.525,49.333 -1.394,2.346 -1.585,5.216 -0.512,7.725 l 21.709,50.692 c -4.187,4.958 -8.763,9.925 -13.65,14.808 -4.846,4.85 -9.813,9.425 -14.804,13.642 l -50.692,-21.7 c -2.507,-1.082 -5.381,-0.893 -7.725,0.508 -15.374,9.174 -31.989,16.087 -49.333,20.525 -2.639,0.673 -4.798,2.564 -5.813,5.092 l -20.458,51.092 c -13.391,1.1 -26.85,1.1 -40.242,0 L 215.42,443.015 c -1.014,-2.527 -3.174,-4.419 -5.812,-5.092 -17.344,-4.438 -33.959,-11.351 -49.333,-20.525 -2.344,-1.401 -5.218,-1.59 -7.725,-0.508 l -50.692,21.7 C 96.866,434.373 91.9,429.798 87.05,424.948 82.167,420.065 77.592,415.098 73.404,410.14 l 21.709,-50.692 c 1.072,-2.509 0.882,-5.379 -0.513,-7.725 -9.173,-15.375 -16.086,-31.989 -20.525,-49.333 -0.673,-2.641 -2.566,-4.802 -5.096,-5.817 l -51.088,-20.45 c -0.546,-6.483 -0.825,-13.225 -0.825,-20.125 0,-6.9 0.279,-13.642 0.825,-20.125 l 51.088,-20.45 c 2.53,-1.014 4.423,-3.176 5.096,-5.817 4.439,-17.344 11.352,-33.959 20.525,-49.333 1.394,-2.345 1.584,-5.216 0.513,-7.725 L 73.404,101.856 c 4.187,-4.958 8.763,-9.925 13.65,-14.808 4.846,-4.85 9.813,-9.425 14.804,-13.642 l 50.692,21.7 c 2.507,1.081 5.381,0.892 7.725,-0.508 15.374,-9.174 31.989,-16.087 49.333,-20.525 2.639,-0.673 4.798,-2.565 5.812,-5.092 l 20.458,-51.092 c 13.391,-1.1 26.85,-1.1 40.242,0 l 20.459,51.091 c 1.014,2.527 3.174,4.419 5.813,5.092 17.344,4.438 33.959,11.351 49.333,20.525 2.344,1.401 5.218,1.59 7.725,0.508 l 50.692,-21.7 c 4.992,4.217 9.958,8.792 14.808,13.642 4.883,4.883 9.458,9.85 13.646,14.808 l -21.708,50.692 c -1.072,2.509 -0.882,5.379 0.512,7.725 9.173,15.375 16.086,31.989 20.525,49.333 0.673,2.641 2.566,4.802 5.096,5.817 l 51.088,20.45 c 0.546,6.483 0.825,13.225 0.825,20.125 -0.001,6.901 -0.28,13.643 -0.826,20.126 z"
               id="path2007-6-2" />
          </g>
        </g>
      </g>
      <g
         style="fill:#8bc34a;fill-opacity:1"
         id="g2015-7-9" />
      <g
         style="fill:#8bc34a;fill-opacity:1"
         id="g2017-3-9" />
      <g
         style="fill:#8bc34a;fill-opacity:1"
         id="g2019-3-9" />
      <g
         style="fill:#8bc34a;fill-opacity:1"
         id="g2021-9-3" />
      <g
         style="fill:#8bc34a;fill-opacity:1"
         id="g2023-0-9" />
      <g
         style="fill:#8bc34a;fill-opacity:1"
         id="g2025-5-8" />
      <g
         style="fill:#8bc34a;fill-opacity:1"
         id="g2027-5-4" />
      <g
         style="fill:#8bc34a;fill-opacity:1"
         id="g2029-8-3" />
      <g
         style="fill:#8bc34a;fill-opacity:1"
         id="g2031-5-7" />
      <g
         style="fill:#8bc34a;fill-opacity:1"
         id="g2033-3-4" />
      <g
         style="fill:#8bc34a;fill-opacity:1"
         id="g2035-2-8" />
      <g
         style="fill:#8bc34a;fill-opacity:1"
         id="g2037-4-5" />
      <g
         style="fill:#8bc34a;fill-opacity:1"
         id="g2039-1-3" />
      <g
         style="fill:#8bc34a;fill-opacity:1"
         id="g2041-1-6" />
      <g
         style="fill:#8bc34a;fill-opacity:1"
         id="g2043-8-8" />
    </g>
  </g>
</svg>
